G04 #@! TF.GenerationSoftware,KiCad,Pcbnew,5.1.10-88a1d61d58~90~ubuntu20.04.1*
G04 #@! TF.CreationDate,2021-08-08T16:04:40+03:00*
G04 #@! TF.ProjectId,GPS_keychain,4750535f-6b65-4796-9368-61696e2e6b69,rev?*
G04 #@! TF.SameCoordinates,Original*
G04 #@! TF.FileFunction,Legend,Bot*
G04 #@! TF.FilePolarity,Positive*
%FSLAX46Y46*%
G04 Gerber Fmt 4.6, Leading zero omitted, Abs format (unit mm)*
G04 Created by KiCad (PCBNEW 5.1.10-88a1d61d58~90~ubuntu20.04.1) date 2021-08-08 16:04:40*
%MOMM*%
%LPD*%
G01*
G04 APERTURE LIST*
%ADD10C,0.010000*%
%ADD11C,0.150000*%
%ADD12C,0.120000*%
%ADD13C,0.254000*%
%ADD14C,0.100000*%
%ADD15C,1.700000*%
%ADD16R,1.200000X1.600000*%
%ADD17R,1.800000X2.400000*%
%ADD18C,1.000000*%
%ADD19O,1.700000X1.700000*%
%ADD20R,1.700000X1.700000*%
%ADD21R,3.500000X1.500000*%
%ADD22O,1.350000X1.700000*%
%ADD23O,1.100000X1.500000*%
G04 APERTURE END LIST*
D10*
G36*
X197553536Y-132323518D02*
G01*
X197498079Y-132351168D01*
X197449132Y-132402080D01*
X197435651Y-132420938D01*
X197420966Y-132445615D01*
X197411438Y-132472416D01*
X197405987Y-132508187D01*
X197403533Y-132559769D01*
X197402994Y-132627867D01*
X197405428Y-132721188D01*
X197413886Y-132791257D01*
X197430106Y-132843531D01*
X197455826Y-132883469D01*
X197492783Y-132916529D01*
X197495498Y-132918486D01*
X197531920Y-132938508D01*
X197575778Y-132948415D01*
X197631556Y-132950857D01*
X197722232Y-132950857D01*
X197722270Y-133038883D01*
X197723114Y-133087908D01*
X197728256Y-133116665D01*
X197741693Y-133133911D01*
X197767422Y-133148408D01*
X197773601Y-133151369D01*
X197802516Y-133165248D01*
X197824904Y-133174014D01*
X197841551Y-133174771D01*
X197853244Y-133164623D01*
X197860770Y-133140673D01*
X197864914Y-133100026D01*
X197866465Y-133039786D01*
X197866209Y-132957055D01*
X197864931Y-132848939D01*
X197864532Y-132816600D01*
X197863095Y-132705124D01*
X197861808Y-132632203D01*
X197722309Y-132632203D01*
X197721525Y-132694099D01*
X197718040Y-132734597D01*
X197710156Y-132761308D01*
X197696175Y-132781844D01*
X197686683Y-132791860D01*
X197647876Y-132821167D01*
X197613517Y-132823552D01*
X197578064Y-132799350D01*
X197577166Y-132798457D01*
X197562741Y-132779753D01*
X197553967Y-132754332D01*
X197549541Y-132715184D01*
X197548162Y-132655297D01*
X197548137Y-132642030D01*
X197551468Y-132559501D01*
X197562311Y-132502291D01*
X197581940Y-132467366D01*
X197611630Y-132451694D01*
X197628789Y-132450114D01*
X197669514Y-132457526D01*
X197697448Y-132481930D01*
X197714263Y-132526580D01*
X197721630Y-132594730D01*
X197722309Y-132632203D01*
X197861808Y-132632203D01*
X197861572Y-132618845D01*
X197859603Y-132553933D01*
X197856830Y-132506558D01*
X197852892Y-132472890D01*
X197847431Y-132449098D01*
X197840088Y-132431353D01*
X197830503Y-132415824D01*
X197826393Y-132409981D01*
X197771875Y-132354785D01*
X197702944Y-132323490D01*
X197623208Y-132314765D01*
X197553536Y-132323518D01*
G37*
X197553536Y-132323518D02*
X197498079Y-132351168D01*
X197449132Y-132402080D01*
X197435651Y-132420938D01*
X197420966Y-132445615D01*
X197411438Y-132472416D01*
X197405987Y-132508187D01*
X197403533Y-132559769D01*
X197402994Y-132627867D01*
X197405428Y-132721188D01*
X197413886Y-132791257D01*
X197430106Y-132843531D01*
X197455826Y-132883469D01*
X197492783Y-132916529D01*
X197495498Y-132918486D01*
X197531920Y-132938508D01*
X197575778Y-132948415D01*
X197631556Y-132950857D01*
X197722232Y-132950857D01*
X197722270Y-133038883D01*
X197723114Y-133087908D01*
X197728256Y-133116665D01*
X197741693Y-133133911D01*
X197767422Y-133148408D01*
X197773601Y-133151369D01*
X197802516Y-133165248D01*
X197824904Y-133174014D01*
X197841551Y-133174771D01*
X197853244Y-133164623D01*
X197860770Y-133140673D01*
X197864914Y-133100026D01*
X197866465Y-133039786D01*
X197866209Y-132957055D01*
X197864931Y-132848939D01*
X197864532Y-132816600D01*
X197863095Y-132705124D01*
X197861808Y-132632203D01*
X197722309Y-132632203D01*
X197721525Y-132694099D01*
X197718040Y-132734597D01*
X197710156Y-132761308D01*
X197696175Y-132781844D01*
X197686683Y-132791860D01*
X197647876Y-132821167D01*
X197613517Y-132823552D01*
X197578064Y-132799350D01*
X197577166Y-132798457D01*
X197562741Y-132779753D01*
X197553967Y-132754332D01*
X197549541Y-132715184D01*
X197548162Y-132655297D01*
X197548137Y-132642030D01*
X197551468Y-132559501D01*
X197562311Y-132502291D01*
X197581940Y-132467366D01*
X197611630Y-132451694D01*
X197628789Y-132450114D01*
X197669514Y-132457526D01*
X197697448Y-132481930D01*
X197714263Y-132526580D01*
X197721630Y-132594730D01*
X197722309Y-132632203D01*
X197861808Y-132632203D01*
X197861572Y-132618845D01*
X197859603Y-132553933D01*
X197856830Y-132506558D01*
X197852892Y-132472890D01*
X197847431Y-132449098D01*
X197840088Y-132431353D01*
X197830503Y-132415824D01*
X197826393Y-132409981D01*
X197771875Y-132354785D01*
X197702944Y-132323490D01*
X197623208Y-132314765D01*
X197553536Y-132323518D01*
G36*
X196437187Y-132331380D02*
G01*
X196390608Y-132358323D01*
X196358223Y-132385066D01*
X196334538Y-132413084D01*
X196318221Y-132447348D01*
X196307941Y-132492827D01*
X196302366Y-132554492D01*
X196300164Y-132637311D01*
X196299909Y-132696846D01*
X196299909Y-132915991D01*
X196361594Y-132943644D01*
X196423280Y-132971297D01*
X196430537Y-132731270D01*
X196433536Y-132641628D01*
X196436682Y-132576562D01*
X196440579Y-132531626D01*
X196445833Y-132502370D01*
X196453049Y-132484348D01*
X196462830Y-132473111D01*
X196465968Y-132470679D01*
X196513519Y-132451683D01*
X196561583Y-132459200D01*
X196590194Y-132479143D01*
X196601833Y-132493275D01*
X196609889Y-132511820D01*
X196615009Y-132539934D01*
X196617839Y-132582773D01*
X196619024Y-132645495D01*
X196619223Y-132710861D01*
X196619262Y-132792868D01*
X196620666Y-132850916D01*
X196625366Y-132890065D01*
X196635293Y-132915380D01*
X196652377Y-132931923D01*
X196678548Y-132944756D01*
X196713505Y-132958091D01*
X196751684Y-132972607D01*
X196747139Y-132714989D01*
X196745309Y-132622119D01*
X196743168Y-132553489D01*
X196740099Y-132504311D01*
X196735486Y-132469798D01*
X196728712Y-132445162D01*
X196719161Y-132425616D01*
X196707646Y-132408370D01*
X196652090Y-132353280D01*
X196584300Y-132321422D01*
X196510567Y-132313791D01*
X196437187Y-132331380D01*
G37*
X196437187Y-132331380D02*
X196390608Y-132358323D01*
X196358223Y-132385066D01*
X196334538Y-132413084D01*
X196318221Y-132447348D01*
X196307941Y-132492827D01*
X196302366Y-132554492D01*
X196300164Y-132637311D01*
X196299909Y-132696846D01*
X196299909Y-132915991D01*
X196361594Y-132943644D01*
X196423280Y-132971297D01*
X196430537Y-132731270D01*
X196433536Y-132641628D01*
X196436682Y-132576562D01*
X196440579Y-132531626D01*
X196445833Y-132502370D01*
X196453049Y-132484348D01*
X196462830Y-132473111D01*
X196465968Y-132470679D01*
X196513519Y-132451683D01*
X196561583Y-132459200D01*
X196590194Y-132479143D01*
X196601833Y-132493275D01*
X196609889Y-132511820D01*
X196615009Y-132539934D01*
X196617839Y-132582773D01*
X196619024Y-132645495D01*
X196619223Y-132710861D01*
X196619262Y-132792868D01*
X196620666Y-132850916D01*
X196625366Y-132890065D01*
X196635293Y-132915380D01*
X196652377Y-132931923D01*
X196678548Y-132944756D01*
X196713505Y-132958091D01*
X196751684Y-132972607D01*
X196747139Y-132714989D01*
X196745309Y-132622119D01*
X196743168Y-132553489D01*
X196740099Y-132504311D01*
X196735486Y-132469798D01*
X196728712Y-132445162D01*
X196719161Y-132425616D01*
X196707646Y-132408370D01*
X196652090Y-132353280D01*
X196584300Y-132321422D01*
X196510567Y-132313791D01*
X196437187Y-132331380D01*
G36*
X198112165Y-132325562D02*
G01*
X198044135Y-132361333D01*
X197993929Y-132418901D01*
X197976095Y-132455912D01*
X197962217Y-132511482D01*
X197955113Y-132581696D01*
X197954440Y-132658327D01*
X197959853Y-132733152D01*
X197971010Y-132797942D01*
X197987566Y-132844473D01*
X197992654Y-132852487D01*
X198052925Y-132912307D01*
X198124511Y-132948135D01*
X198202188Y-132958620D01*
X198280732Y-132942410D01*
X198302591Y-132932692D01*
X198345158Y-132902743D01*
X198382517Y-132863033D01*
X198386048Y-132857997D01*
X198400399Y-132833724D01*
X198409886Y-132807778D01*
X198415490Y-132773622D01*
X198418194Y-132724719D01*
X198418981Y-132654535D01*
X198418994Y-132638800D01*
X198418958Y-132633792D01*
X198273851Y-132633792D01*
X198273007Y-132700030D01*
X198269684Y-132743986D01*
X198262697Y-132772379D01*
X198250864Y-132791925D01*
X198244823Y-132798457D01*
X198210094Y-132823280D01*
X198176377Y-132822148D01*
X198142285Y-132800616D01*
X198121951Y-132777629D01*
X198109909Y-132744078D01*
X198103146Y-132691169D01*
X198102682Y-132684999D01*
X198101528Y-132589113D01*
X198113592Y-132517899D01*
X198138710Y-132471794D01*
X198176720Y-132451235D01*
X198190288Y-132450114D01*
X198225916Y-132455752D01*
X198250286Y-132475286D01*
X198265187Y-132512642D01*
X198272405Y-132571750D01*
X198273851Y-132633792D01*
X198418958Y-132633792D01*
X198418454Y-132564013D01*
X198416184Y-132511759D01*
X198411212Y-132475549D01*
X198402567Y-132448899D01*
X198389275Y-132425322D01*
X198386337Y-132420938D01*
X198336967Y-132361849D01*
X198283171Y-132327547D01*
X198217678Y-132313931D01*
X198195438Y-132313265D01*
X198112165Y-132325562D01*
G37*
X198112165Y-132325562D02*
X198044135Y-132361333D01*
X197993929Y-132418901D01*
X197976095Y-132455912D01*
X197962217Y-132511482D01*
X197955113Y-132581696D01*
X197954440Y-132658327D01*
X197959853Y-132733152D01*
X197971010Y-132797942D01*
X197987566Y-132844473D01*
X197992654Y-132852487D01*
X198052925Y-132912307D01*
X198124511Y-132948135D01*
X198202188Y-132958620D01*
X198280732Y-132942410D01*
X198302591Y-132932692D01*
X198345158Y-132902743D01*
X198382517Y-132863033D01*
X198386048Y-132857997D01*
X198400399Y-132833724D01*
X198409886Y-132807778D01*
X198415490Y-132773622D01*
X198418194Y-132724719D01*
X198418981Y-132654535D01*
X198418994Y-132638800D01*
X198418958Y-132633792D01*
X198273851Y-132633792D01*
X198273007Y-132700030D01*
X198269684Y-132743986D01*
X198262697Y-132772379D01*
X198250864Y-132791925D01*
X198244823Y-132798457D01*
X198210094Y-132823280D01*
X198176377Y-132822148D01*
X198142285Y-132800616D01*
X198121951Y-132777629D01*
X198109909Y-132744078D01*
X198103146Y-132691169D01*
X198102682Y-132684999D01*
X198101528Y-132589113D01*
X198113592Y-132517899D01*
X198138710Y-132471794D01*
X198176720Y-132451235D01*
X198190288Y-132450114D01*
X198225916Y-132455752D01*
X198250286Y-132475286D01*
X198265187Y-132512642D01*
X198272405Y-132571750D01*
X198273851Y-132633792D01*
X198418958Y-132633792D01*
X198418454Y-132564013D01*
X198416184Y-132511759D01*
X198411212Y-132475549D01*
X198402567Y-132448899D01*
X198389275Y-132425322D01*
X198386337Y-132420938D01*
X198336967Y-132361849D01*
X198283171Y-132327547D01*
X198217678Y-132313931D01*
X198195438Y-132313265D01*
X198112165Y-132325562D01*
G36*
X196984977Y-132334839D02*
G01*
X196927753Y-132373335D01*
X196883531Y-132428935D01*
X196857113Y-132499686D01*
X196851770Y-132551762D01*
X196852377Y-132573493D01*
X196857458Y-132590131D01*
X196871425Y-132605037D01*
X196898691Y-132621573D01*
X196943668Y-132643098D01*
X197010769Y-132672974D01*
X197011109Y-132673124D01*
X197072873Y-132701413D01*
X197123521Y-132726533D01*
X197157876Y-132745779D01*
X197170762Y-132756448D01*
X197170766Y-132756534D01*
X197159408Y-132779766D01*
X197132849Y-132805374D01*
X197102357Y-132823821D01*
X197086910Y-132827486D01*
X197044765Y-132814812D01*
X197008472Y-132783071D01*
X196990763Y-132748172D01*
X196973728Y-132722445D01*
X196940358Y-132693146D01*
X196901131Y-132667835D01*
X196866524Y-132654071D01*
X196859287Y-132653314D01*
X196851141Y-132665760D01*
X196850650Y-132697572D01*
X196856637Y-132740466D01*
X196867923Y-132786158D01*
X196883330Y-132826361D01*
X196884109Y-132827922D01*
X196930476Y-132892662D01*
X196990569Y-132936697D01*
X197058815Y-132958311D01*
X197129642Y-132955785D01*
X197197476Y-132927404D01*
X197200492Y-132925408D01*
X197253853Y-132877048D01*
X197288940Y-132813952D01*
X197308358Y-132730987D01*
X197310964Y-132707678D01*
X197315579Y-132597655D01*
X197310047Y-132546348D01*
X197170766Y-132546348D01*
X197168956Y-132578353D01*
X197159058Y-132587693D01*
X197134382Y-132580705D01*
X197095485Y-132564187D01*
X197052005Y-132543481D01*
X197050924Y-132542933D01*
X197014071Y-132523549D01*
X196999280Y-132510613D01*
X197002927Y-132497051D01*
X197018285Y-132479232D01*
X197057357Y-132453445D01*
X197099434Y-132451550D01*
X197137177Y-132470317D01*
X197163246Y-132506515D01*
X197170766Y-132546348D01*
X197310047Y-132546348D01*
X197306086Y-132509627D01*
X197281730Y-132439812D01*
X197247824Y-132390902D01*
X197186627Y-132341478D01*
X197119217Y-132316959D01*
X197050400Y-132315397D01*
X196984977Y-132334839D01*
G37*
X196984977Y-132334839D02*
X196927753Y-132373335D01*
X196883531Y-132428935D01*
X196857113Y-132499686D01*
X196851770Y-132551762D01*
X196852377Y-132573493D01*
X196857458Y-132590131D01*
X196871425Y-132605037D01*
X196898691Y-132621573D01*
X196943668Y-132643098D01*
X197010769Y-132672974D01*
X197011109Y-132673124D01*
X197072873Y-132701413D01*
X197123521Y-132726533D01*
X197157876Y-132745779D01*
X197170762Y-132756448D01*
X197170766Y-132756534D01*
X197159408Y-132779766D01*
X197132849Y-132805374D01*
X197102357Y-132823821D01*
X197086910Y-132827486D01*
X197044765Y-132814812D01*
X197008472Y-132783071D01*
X196990763Y-132748172D01*
X196973728Y-132722445D01*
X196940358Y-132693146D01*
X196901131Y-132667835D01*
X196866524Y-132654071D01*
X196859287Y-132653314D01*
X196851141Y-132665760D01*
X196850650Y-132697572D01*
X196856637Y-132740466D01*
X196867923Y-132786158D01*
X196883330Y-132826361D01*
X196884109Y-132827922D01*
X196930476Y-132892662D01*
X196990569Y-132936697D01*
X197058815Y-132958311D01*
X197129642Y-132955785D01*
X197197476Y-132927404D01*
X197200492Y-132925408D01*
X197253853Y-132877048D01*
X197288940Y-132813952D01*
X197308358Y-132730987D01*
X197310964Y-132707678D01*
X197315579Y-132597655D01*
X197310047Y-132546348D01*
X197170766Y-132546348D01*
X197168956Y-132578353D01*
X197159058Y-132587693D01*
X197134382Y-132580705D01*
X197095485Y-132564187D01*
X197052005Y-132543481D01*
X197050924Y-132542933D01*
X197014071Y-132523549D01*
X196999280Y-132510613D01*
X197002927Y-132497051D01*
X197018285Y-132479232D01*
X197057357Y-132453445D01*
X197099434Y-132451550D01*
X197137177Y-132470317D01*
X197163246Y-132506515D01*
X197170766Y-132546348D01*
X197310047Y-132546348D01*
X197306086Y-132509627D01*
X197281730Y-132439812D01*
X197247824Y-132390902D01*
X197186627Y-132341478D01*
X197119217Y-132316959D01*
X197050400Y-132315397D01*
X196984977Y-132334839D01*
G36*
X195777394Y-132254889D02*
G01*
X195773141Y-132314213D01*
X195768255Y-132349172D01*
X195761485Y-132364420D01*
X195751578Y-132364615D01*
X195748366Y-132362795D01*
X195705636Y-132349615D01*
X195650053Y-132350385D01*
X195593543Y-132363933D01*
X195558198Y-132381461D01*
X195521959Y-132409461D01*
X195495467Y-132441149D01*
X195477281Y-132481413D01*
X195465958Y-132535143D01*
X195460058Y-132607226D01*
X195458137Y-132702551D01*
X195458103Y-132720837D01*
X195458080Y-132926246D01*
X195503789Y-132942180D01*
X195536253Y-132953020D01*
X195554065Y-132958068D01*
X195554589Y-132958114D01*
X195556343Y-132944428D01*
X195557836Y-132906676D01*
X195558954Y-132849824D01*
X195559583Y-132778834D01*
X195559680Y-132735673D01*
X195559882Y-132650573D01*
X195560922Y-132589581D01*
X195563449Y-132547777D01*
X195568116Y-132520242D01*
X195575573Y-132502056D01*
X195586469Y-132488298D01*
X195593273Y-132481673D01*
X195640008Y-132454975D01*
X195691008Y-132452975D01*
X195737279Y-132475555D01*
X195745836Y-132483707D01*
X195758387Y-132499036D01*
X195767092Y-132517218D01*
X195772649Y-132543509D01*
X195775754Y-132583162D01*
X195777104Y-132641432D01*
X195777394Y-132721773D01*
X195777394Y-132926246D01*
X195823103Y-132942180D01*
X195855567Y-132953020D01*
X195873379Y-132958068D01*
X195873903Y-132958114D01*
X195875243Y-132944223D01*
X195876452Y-132905039D01*
X195877479Y-132844300D01*
X195878278Y-132765741D01*
X195878799Y-132673098D01*
X195878994Y-132570109D01*
X195878994Y-132172942D01*
X195831823Y-132153044D01*
X195784651Y-132133147D01*
X195777394Y-132254889D01*
G37*
X195777394Y-132254889D02*
X195773141Y-132314213D01*
X195768255Y-132349172D01*
X195761485Y-132364420D01*
X195751578Y-132364615D01*
X195748366Y-132362795D01*
X195705636Y-132349615D01*
X195650053Y-132350385D01*
X195593543Y-132363933D01*
X195558198Y-132381461D01*
X195521959Y-132409461D01*
X195495467Y-132441149D01*
X195477281Y-132481413D01*
X195465958Y-132535143D01*
X195460058Y-132607226D01*
X195458137Y-132702551D01*
X195458103Y-132720837D01*
X195458080Y-132926246D01*
X195503789Y-132942180D01*
X195536253Y-132953020D01*
X195554065Y-132958068D01*
X195554589Y-132958114D01*
X195556343Y-132944428D01*
X195557836Y-132906676D01*
X195558954Y-132849824D01*
X195559583Y-132778834D01*
X195559680Y-132735673D01*
X195559882Y-132650573D01*
X195560922Y-132589581D01*
X195563449Y-132547777D01*
X195568116Y-132520242D01*
X195575573Y-132502056D01*
X195586469Y-132488298D01*
X195593273Y-132481673D01*
X195640008Y-132454975D01*
X195691008Y-132452975D01*
X195737279Y-132475555D01*
X195745836Y-132483707D01*
X195758387Y-132499036D01*
X195767092Y-132517218D01*
X195772649Y-132543509D01*
X195775754Y-132583162D01*
X195777104Y-132641432D01*
X195777394Y-132721773D01*
X195777394Y-132926246D01*
X195823103Y-132942180D01*
X195855567Y-132953020D01*
X195873379Y-132958068D01*
X195873903Y-132958114D01*
X195875243Y-132944223D01*
X195876452Y-132905039D01*
X195877479Y-132844300D01*
X195878278Y-132765741D01*
X195878799Y-132673098D01*
X195878994Y-132570109D01*
X195878994Y-132172942D01*
X195831823Y-132153044D01*
X195784651Y-132133147D01*
X195777394Y-132254889D01*
G36*
X195113536Y-132354568D02*
G01*
X195056664Y-132375687D01*
X195056013Y-132376093D01*
X195020840Y-132401980D01*
X194994873Y-132432233D01*
X194976610Y-132471658D01*
X194964548Y-132525062D01*
X194957184Y-132597251D01*
X194953016Y-132693032D01*
X194952651Y-132706678D01*
X194947404Y-132912442D01*
X194991564Y-132935278D01*
X195023517Y-132950710D01*
X195042810Y-132958023D01*
X195043702Y-132958114D01*
X195047041Y-132944622D01*
X195049693Y-132908226D01*
X195051324Y-132855052D01*
X195051680Y-132811993D01*
X195051688Y-132742241D01*
X195054877Y-132698437D01*
X195065992Y-132677544D01*
X195089779Y-132676525D01*
X195130984Y-132692341D01*
X195193194Y-132721415D01*
X195238939Y-132745563D01*
X195262467Y-132766513D01*
X195269384Y-132789347D01*
X195269394Y-132790477D01*
X195257981Y-132829812D01*
X195224188Y-132851062D01*
X195172471Y-132854139D01*
X195135219Y-132853606D01*
X195115577Y-132864335D01*
X195103328Y-132890105D01*
X195096278Y-132922937D01*
X195106438Y-132941566D01*
X195110263Y-132944232D01*
X195146279Y-132954940D01*
X195196714Y-132956456D01*
X195248654Y-132949359D01*
X195285458Y-132936388D01*
X195336342Y-132893185D01*
X195365266Y-132833046D01*
X195370994Y-132786062D01*
X195366623Y-132743682D01*
X195350805Y-132709088D01*
X195319483Y-132678363D01*
X195268602Y-132647590D01*
X195194104Y-132612852D01*
X195189566Y-132610888D01*
X195122459Y-132579887D01*
X195081048Y-132554462D01*
X195063299Y-132531614D01*
X195067173Y-132508345D01*
X195090637Y-132481656D01*
X195097653Y-132475514D01*
X195144650Y-132451700D01*
X195193347Y-132452703D01*
X195235758Y-132476051D01*
X195263896Y-132519275D01*
X195266511Y-132527760D01*
X195291972Y-132568908D01*
X195324279Y-132588728D01*
X195370994Y-132608370D01*
X195370994Y-132557550D01*
X195356784Y-132483682D01*
X195314605Y-132415927D01*
X195292656Y-132393261D01*
X195242763Y-132364169D01*
X195179313Y-132351000D01*
X195113536Y-132354568D01*
G37*
X195113536Y-132354568D02*
X195056664Y-132375687D01*
X195056013Y-132376093D01*
X195020840Y-132401980D01*
X194994873Y-132432233D01*
X194976610Y-132471658D01*
X194964548Y-132525062D01*
X194957184Y-132597251D01*
X194953016Y-132693032D01*
X194952651Y-132706678D01*
X194947404Y-132912442D01*
X194991564Y-132935278D01*
X195023517Y-132950710D01*
X195042810Y-132958023D01*
X195043702Y-132958114D01*
X195047041Y-132944622D01*
X195049693Y-132908226D01*
X195051324Y-132855052D01*
X195051680Y-132811993D01*
X195051688Y-132742241D01*
X195054877Y-132698437D01*
X195065992Y-132677544D01*
X195089779Y-132676525D01*
X195130984Y-132692341D01*
X195193194Y-132721415D01*
X195238939Y-132745563D01*
X195262467Y-132766513D01*
X195269384Y-132789347D01*
X195269394Y-132790477D01*
X195257981Y-132829812D01*
X195224188Y-132851062D01*
X195172471Y-132854139D01*
X195135219Y-132853606D01*
X195115577Y-132864335D01*
X195103328Y-132890105D01*
X195096278Y-132922937D01*
X195106438Y-132941566D01*
X195110263Y-132944232D01*
X195146279Y-132954940D01*
X195196714Y-132956456D01*
X195248654Y-132949359D01*
X195285458Y-132936388D01*
X195336342Y-132893185D01*
X195365266Y-132833046D01*
X195370994Y-132786062D01*
X195366623Y-132743682D01*
X195350805Y-132709088D01*
X195319483Y-132678363D01*
X195268602Y-132647590D01*
X195194104Y-132612852D01*
X195189566Y-132610888D01*
X195122459Y-132579887D01*
X195081048Y-132554462D01*
X195063299Y-132531614D01*
X195067173Y-132508345D01*
X195090637Y-132481656D01*
X195097653Y-132475514D01*
X195144650Y-132451700D01*
X195193347Y-132452703D01*
X195235758Y-132476051D01*
X195263896Y-132519275D01*
X195266511Y-132527760D01*
X195291972Y-132568908D01*
X195324279Y-132588728D01*
X195370994Y-132608370D01*
X195370994Y-132557550D01*
X195356784Y-132483682D01*
X195314605Y-132415927D01*
X195292656Y-132393261D01*
X195242763Y-132364169D01*
X195179313Y-132351000D01*
X195113536Y-132354568D01*
G36*
X194623354Y-132353355D02*
G01*
X194557422Y-132377684D01*
X194504007Y-132420717D01*
X194483116Y-132451009D01*
X194460341Y-132506594D01*
X194460814Y-132546786D01*
X194484718Y-132573817D01*
X194493563Y-132578413D01*
X194531750Y-132592744D01*
X194551252Y-132589072D01*
X194557858Y-132565007D01*
X194558194Y-132551714D01*
X194570288Y-132502810D01*
X194601809Y-132468599D01*
X194645621Y-132452076D01*
X194694585Y-132456234D01*
X194734386Y-132477827D01*
X194747830Y-132490144D01*
X194757359Y-132505087D01*
X194763795Y-132527675D01*
X194767963Y-132562928D01*
X194770683Y-132615866D01*
X194772778Y-132691507D01*
X194773320Y-132715457D01*
X194775299Y-132797390D01*
X194777549Y-132855055D01*
X194780923Y-132893208D01*
X194786274Y-132916604D01*
X194794456Y-132929998D01*
X194806321Y-132938145D01*
X194813918Y-132941744D01*
X194846178Y-132954052D01*
X194865169Y-132958114D01*
X194871444Y-132944548D01*
X194875274Y-132903534D01*
X194876680Y-132834599D01*
X194875682Y-132737269D01*
X194875372Y-132722257D01*
X194873179Y-132633459D01*
X194870587Y-132568619D01*
X194866898Y-132522667D01*
X194861416Y-132490535D01*
X194853445Y-132467153D01*
X194842287Y-132447452D01*
X194836450Y-132439010D01*
X194802984Y-132401657D01*
X194765553Y-132372603D01*
X194760971Y-132370067D01*
X194693854Y-132350043D01*
X194623354Y-132353355D01*
G37*
X194623354Y-132353355D02*
X194557422Y-132377684D01*
X194504007Y-132420717D01*
X194483116Y-132451009D01*
X194460341Y-132506594D01*
X194460814Y-132546786D01*
X194484718Y-132573817D01*
X194493563Y-132578413D01*
X194531750Y-132592744D01*
X194551252Y-132589072D01*
X194557858Y-132565007D01*
X194558194Y-132551714D01*
X194570288Y-132502810D01*
X194601809Y-132468599D01*
X194645621Y-132452076D01*
X194694585Y-132456234D01*
X194734386Y-132477827D01*
X194747830Y-132490144D01*
X194757359Y-132505087D01*
X194763795Y-132527675D01*
X194767963Y-132562928D01*
X194770683Y-132615866D01*
X194772778Y-132691507D01*
X194773320Y-132715457D01*
X194775299Y-132797390D01*
X194777549Y-132855055D01*
X194780923Y-132893208D01*
X194786274Y-132916604D01*
X194794456Y-132929998D01*
X194806321Y-132938145D01*
X194813918Y-132941744D01*
X194846178Y-132954052D01*
X194865169Y-132958114D01*
X194871444Y-132944548D01*
X194875274Y-132903534D01*
X194876680Y-132834599D01*
X194875682Y-132737269D01*
X194875372Y-132722257D01*
X194873179Y-132633459D01*
X194870587Y-132568619D01*
X194866898Y-132522667D01*
X194861416Y-132490535D01*
X194853445Y-132467153D01*
X194842287Y-132447452D01*
X194836450Y-132439010D01*
X194802984Y-132401657D01*
X194765553Y-132372603D01*
X194760971Y-132370067D01*
X194693854Y-132350043D01*
X194623354Y-132353355D01*
G36*
X193963163Y-132468958D02*
G01*
X193963347Y-132577437D01*
X193964061Y-132660887D01*
X193965605Y-132723304D01*
X193968279Y-132768685D01*
X193972386Y-132801029D01*
X193978225Y-132824333D01*
X193986098Y-132842595D01*
X193992059Y-132853018D01*
X194041425Y-132909545D01*
X194104016Y-132944977D01*
X194173267Y-132957690D01*
X194242612Y-132946063D01*
X194283905Y-132925168D01*
X194327255Y-132889022D01*
X194356799Y-132844876D01*
X194374625Y-132787062D01*
X194382817Y-132709913D01*
X194383978Y-132653314D01*
X194383822Y-132649247D01*
X194282423Y-132649247D01*
X194281804Y-132714150D01*
X194278966Y-132757114D01*
X194272440Y-132785222D01*
X194260757Y-132805553D01*
X194246797Y-132820888D01*
X194199915Y-132850490D01*
X194149579Y-132853019D01*
X194102004Y-132828305D01*
X194098301Y-132824956D01*
X194082497Y-132807535D01*
X194072587Y-132786809D01*
X194067222Y-132755962D01*
X194065052Y-132708177D01*
X194064709Y-132655348D01*
X194065453Y-132588981D01*
X194068532Y-132544706D01*
X194075219Y-132515609D01*
X194086784Y-132494773D01*
X194096267Y-132483707D01*
X194140320Y-132455798D01*
X194191056Y-132452443D01*
X194239484Y-132473759D01*
X194248830Y-132481673D01*
X194264740Y-132499247D01*
X194274670Y-132520187D01*
X194280002Y-132551382D01*
X194282117Y-132599722D01*
X194282423Y-132649247D01*
X194383822Y-132649247D01*
X194380470Y-132562168D01*
X194368554Y-132493686D01*
X194346145Y-132442200D01*
X194311156Y-132402043D01*
X194283905Y-132381461D01*
X194234373Y-132359225D01*
X194176964Y-132348904D01*
X194123598Y-132351667D01*
X194093737Y-132362812D01*
X194082019Y-132365983D01*
X194074243Y-132354157D01*
X194068815Y-132322466D01*
X194064709Y-132274193D01*
X194060213Y-132220429D01*
X194053967Y-132188082D01*
X194042604Y-132169585D01*
X194022752Y-132157370D01*
X194010280Y-132151962D01*
X193963109Y-132132201D01*
X193963163Y-132468958D01*
G37*
X193963163Y-132468958D02*
X193963347Y-132577437D01*
X193964061Y-132660887D01*
X193965605Y-132723304D01*
X193968279Y-132768685D01*
X193972386Y-132801029D01*
X193978225Y-132824333D01*
X193986098Y-132842595D01*
X193992059Y-132853018D01*
X194041425Y-132909545D01*
X194104016Y-132944977D01*
X194173267Y-132957690D01*
X194242612Y-132946063D01*
X194283905Y-132925168D01*
X194327255Y-132889022D01*
X194356799Y-132844876D01*
X194374625Y-132787062D01*
X194382817Y-132709913D01*
X194383978Y-132653314D01*
X194383822Y-132649247D01*
X194282423Y-132649247D01*
X194281804Y-132714150D01*
X194278966Y-132757114D01*
X194272440Y-132785222D01*
X194260757Y-132805553D01*
X194246797Y-132820888D01*
X194199915Y-132850490D01*
X194149579Y-132853019D01*
X194102004Y-132828305D01*
X194098301Y-132824956D01*
X194082497Y-132807535D01*
X194072587Y-132786809D01*
X194067222Y-132755962D01*
X194065052Y-132708177D01*
X194064709Y-132655348D01*
X194065453Y-132588981D01*
X194068532Y-132544706D01*
X194075219Y-132515609D01*
X194086784Y-132494773D01*
X194096267Y-132483707D01*
X194140320Y-132455798D01*
X194191056Y-132452443D01*
X194239484Y-132473759D01*
X194248830Y-132481673D01*
X194264740Y-132499247D01*
X194274670Y-132520187D01*
X194280002Y-132551382D01*
X194282117Y-132599722D01*
X194282423Y-132649247D01*
X194383822Y-132649247D01*
X194380470Y-132562168D01*
X194368554Y-132493686D01*
X194346145Y-132442200D01*
X194311156Y-132402043D01*
X194283905Y-132381461D01*
X194234373Y-132359225D01*
X194176964Y-132348904D01*
X194123598Y-132351667D01*
X194093737Y-132362812D01*
X194082019Y-132365983D01*
X194074243Y-132354157D01*
X194068815Y-132322466D01*
X194064709Y-132274193D01*
X194060213Y-132220429D01*
X194053967Y-132188082D01*
X194042604Y-132169585D01*
X194022752Y-132157370D01*
X194010280Y-132151962D01*
X193963109Y-132132201D01*
X193963163Y-132468958D01*
G36*
X193373447Y-132362263D02*
G01*
X193371232Y-132400450D01*
X193369496Y-132458486D01*
X193368381Y-132531780D01*
X193368023Y-132608655D01*
X193368023Y-132868796D01*
X193413954Y-132914727D01*
X193445605Y-132943029D01*
X193473390Y-132954493D01*
X193511365Y-132953768D01*
X193526440Y-132951921D01*
X193573554Y-132946548D01*
X193612524Y-132943469D01*
X193622023Y-132943185D01*
X193654047Y-132945045D01*
X193699848Y-132949714D01*
X193717606Y-132951921D01*
X193761223Y-132955335D01*
X193790535Y-132947920D01*
X193819600Y-132925027D01*
X193830092Y-132914727D01*
X193876023Y-132868796D01*
X193876023Y-132382202D01*
X193839054Y-132365358D01*
X193807221Y-132352882D01*
X193788597Y-132348514D01*
X193783822Y-132362318D01*
X193779359Y-132400886D01*
X193775505Y-132459956D01*
X193772558Y-132535263D01*
X193771137Y-132598886D01*
X193767166Y-132849257D01*
X193732521Y-132854156D01*
X193701012Y-132850731D01*
X193685572Y-132839641D01*
X193681257Y-132818908D01*
X193677572Y-132774745D01*
X193674811Y-132712746D01*
X193673268Y-132638509D01*
X193673045Y-132600306D01*
X193672823Y-132380383D01*
X193627114Y-132364449D01*
X193594762Y-132353615D01*
X193577165Y-132348562D01*
X193576657Y-132348514D01*
X193574892Y-132362248D01*
X193572951Y-132400330D01*
X193570998Y-132458082D01*
X193569196Y-132530827D01*
X193567937Y-132598886D01*
X193563966Y-132849257D01*
X193476880Y-132849257D01*
X193472884Y-132620840D01*
X193468888Y-132392422D01*
X193426433Y-132370468D01*
X193395088Y-132355393D01*
X193376536Y-132348551D01*
X193376001Y-132348514D01*
X193373447Y-132362263D01*
G37*
X193373447Y-132362263D02*
X193371232Y-132400450D01*
X193369496Y-132458486D01*
X193368381Y-132531780D01*
X193368023Y-132608655D01*
X193368023Y-132868796D01*
X193413954Y-132914727D01*
X193445605Y-132943029D01*
X193473390Y-132954493D01*
X193511365Y-132953768D01*
X193526440Y-132951921D01*
X193573554Y-132946548D01*
X193612524Y-132943469D01*
X193622023Y-132943185D01*
X193654047Y-132945045D01*
X193699848Y-132949714D01*
X193717606Y-132951921D01*
X193761223Y-132955335D01*
X193790535Y-132947920D01*
X193819600Y-132925027D01*
X193830092Y-132914727D01*
X193876023Y-132868796D01*
X193876023Y-132382202D01*
X193839054Y-132365358D01*
X193807221Y-132352882D01*
X193788597Y-132348514D01*
X193783822Y-132362318D01*
X193779359Y-132400886D01*
X193775505Y-132459956D01*
X193772558Y-132535263D01*
X193771137Y-132598886D01*
X193767166Y-132849257D01*
X193732521Y-132854156D01*
X193701012Y-132850731D01*
X193685572Y-132839641D01*
X193681257Y-132818908D01*
X193677572Y-132774745D01*
X193674811Y-132712746D01*
X193673268Y-132638509D01*
X193673045Y-132600306D01*
X193672823Y-132380383D01*
X193627114Y-132364449D01*
X193594762Y-132353615D01*
X193577165Y-132348562D01*
X193576657Y-132348514D01*
X193574892Y-132362248D01*
X193572951Y-132400330D01*
X193570998Y-132458082D01*
X193569196Y-132530827D01*
X193567937Y-132598886D01*
X193563966Y-132849257D01*
X193476880Y-132849257D01*
X193472884Y-132620840D01*
X193468888Y-132392422D01*
X193426433Y-132370468D01*
X193395088Y-132355393D01*
X193376536Y-132348551D01*
X193376001Y-132348514D01*
X193373447Y-132362263D01*
G36*
X193008404Y-132359935D02*
G01*
X192966613Y-132378944D01*
X192933811Y-132401978D01*
X192909777Y-132427733D01*
X192893183Y-132460958D01*
X192882703Y-132506400D01*
X192877009Y-132568807D01*
X192874773Y-132652927D01*
X192874537Y-132708321D01*
X192874537Y-132924426D01*
X192911506Y-132941270D01*
X192940624Y-132953581D01*
X192955049Y-132958114D01*
X192957808Y-132944625D01*
X192959998Y-132908253D01*
X192961338Y-132855142D01*
X192961623Y-132812972D01*
X192962846Y-132752047D01*
X192966144Y-132703715D01*
X192970959Y-132674118D01*
X192974784Y-132667829D01*
X193000497Y-132674252D01*
X193040862Y-132690725D01*
X193087601Y-132713058D01*
X193132435Y-132737057D01*
X193167087Y-132758530D01*
X193183278Y-132773285D01*
X193183342Y-132773445D01*
X193181950Y-132800752D01*
X193169462Y-132826819D01*
X193147537Y-132847992D01*
X193115537Y-132855074D01*
X193088188Y-132854249D01*
X193049454Y-132853642D01*
X193029122Y-132862716D01*
X193016911Y-132886692D01*
X193015371Y-132891213D01*
X193010077Y-132925406D01*
X193024233Y-132946168D01*
X193061132Y-132956062D01*
X193100991Y-132957892D01*
X193172718Y-132944327D01*
X193209848Y-132924955D01*
X193255704Y-132879445D01*
X193280024Y-132823583D01*
X193282207Y-132764557D01*
X193261651Y-132709553D01*
X193230731Y-132675086D01*
X193199860Y-132655789D01*
X193151338Y-132631359D01*
X193094795Y-132606585D01*
X193085370Y-132602799D01*
X193023261Y-132575391D01*
X192987458Y-132551234D01*
X192975943Y-132527219D01*
X192986700Y-132500235D01*
X193005166Y-132479143D01*
X193048811Y-132453172D01*
X193096834Y-132451224D01*
X193140874Y-132471237D01*
X193172571Y-132511151D01*
X193176731Y-132521448D01*
X193200953Y-132559324D01*
X193236315Y-132587442D01*
X193280937Y-132610517D01*
X193280937Y-132545085D01*
X193278311Y-132505106D01*
X193267050Y-132473597D01*
X193242081Y-132439978D01*
X193218111Y-132414084D01*
X193180839Y-132377417D01*
X193151879Y-132357721D01*
X193120775Y-132349820D01*
X193085567Y-132348514D01*
X193008404Y-132359935D01*
G37*
X193008404Y-132359935D02*
X192966613Y-132378944D01*
X192933811Y-132401978D01*
X192909777Y-132427733D01*
X192893183Y-132460958D01*
X192882703Y-132506400D01*
X192877009Y-132568807D01*
X192874773Y-132652927D01*
X192874537Y-132708321D01*
X192874537Y-132924426D01*
X192911506Y-132941270D01*
X192940624Y-132953581D01*
X192955049Y-132958114D01*
X192957808Y-132944625D01*
X192959998Y-132908253D01*
X192961338Y-132855142D01*
X192961623Y-132812972D01*
X192962846Y-132752047D01*
X192966144Y-132703715D01*
X192970959Y-132674118D01*
X192974784Y-132667829D01*
X193000497Y-132674252D01*
X193040862Y-132690725D01*
X193087601Y-132713058D01*
X193132435Y-132737057D01*
X193167087Y-132758530D01*
X193183278Y-132773285D01*
X193183342Y-132773445D01*
X193181950Y-132800752D01*
X193169462Y-132826819D01*
X193147537Y-132847992D01*
X193115537Y-132855074D01*
X193088188Y-132854249D01*
X193049454Y-132853642D01*
X193029122Y-132862716D01*
X193016911Y-132886692D01*
X193015371Y-132891213D01*
X193010077Y-132925406D01*
X193024233Y-132946168D01*
X193061132Y-132956062D01*
X193100991Y-132957892D01*
X193172718Y-132944327D01*
X193209848Y-132924955D01*
X193255704Y-132879445D01*
X193280024Y-132823583D01*
X193282207Y-132764557D01*
X193261651Y-132709553D01*
X193230731Y-132675086D01*
X193199860Y-132655789D01*
X193151338Y-132631359D01*
X193094795Y-132606585D01*
X193085370Y-132602799D01*
X193023261Y-132575391D01*
X192987458Y-132551234D01*
X192975943Y-132527219D01*
X192986700Y-132500235D01*
X193005166Y-132479143D01*
X193048811Y-132453172D01*
X193096834Y-132451224D01*
X193140874Y-132471237D01*
X193172571Y-132511151D01*
X193176731Y-132521448D01*
X193200953Y-132559324D01*
X193236315Y-132587442D01*
X193280937Y-132610517D01*
X193280937Y-132545085D01*
X193278311Y-132505106D01*
X193267050Y-132473597D01*
X193242081Y-132439978D01*
X193218111Y-132414084D01*
X193180839Y-132377417D01*
X193151879Y-132357721D01*
X193120775Y-132349820D01*
X193085567Y-132348514D01*
X193008404Y-132359935D01*
G36*
X192500680Y-132362352D02*
G01*
X192483332Y-132369934D01*
X192441924Y-132402728D01*
X192406515Y-132450147D01*
X192384616Y-132500751D01*
X192381051Y-132525698D01*
X192393001Y-132560527D01*
X192419213Y-132578957D01*
X192447316Y-132590116D01*
X192460185Y-132592172D01*
X192466451Y-132577249D01*
X192478824Y-132544775D01*
X192484252Y-132530102D01*
X192514690Y-132479344D01*
X192558760Y-132454027D01*
X192615270Y-132454806D01*
X192619455Y-132455803D01*
X192649625Y-132470107D01*
X192671804Y-132497993D01*
X192686953Y-132542887D01*
X192696030Y-132608215D01*
X192699994Y-132697404D01*
X192700366Y-132744861D01*
X192700550Y-132819671D01*
X192701758Y-132870669D01*
X192704971Y-132903071D01*
X192711171Y-132922095D01*
X192721340Y-132932956D01*
X192736461Y-132940872D01*
X192737334Y-132941270D01*
X192766452Y-132953581D01*
X192780877Y-132958114D01*
X192783094Y-132944409D01*
X192784991Y-132906525D01*
X192786433Y-132849315D01*
X192787282Y-132777627D01*
X192787451Y-132725165D01*
X192786588Y-132623647D01*
X192783210Y-132546632D01*
X192776138Y-132489623D01*
X192764192Y-132448126D01*
X192746190Y-132417643D01*
X192720953Y-132393680D01*
X192696033Y-132376955D01*
X192636109Y-132354697D01*
X192566369Y-132349676D01*
X192500680Y-132362352D01*
G37*
X192500680Y-132362352D02*
X192483332Y-132369934D01*
X192441924Y-132402728D01*
X192406515Y-132450147D01*
X192384616Y-132500751D01*
X192381051Y-132525698D01*
X192393001Y-132560527D01*
X192419213Y-132578957D01*
X192447316Y-132590116D01*
X192460185Y-132592172D01*
X192466451Y-132577249D01*
X192478824Y-132544775D01*
X192484252Y-132530102D01*
X192514690Y-132479344D01*
X192558760Y-132454027D01*
X192615270Y-132454806D01*
X192619455Y-132455803D01*
X192649625Y-132470107D01*
X192671804Y-132497993D01*
X192686953Y-132542887D01*
X192696030Y-132608215D01*
X192699994Y-132697404D01*
X192700366Y-132744861D01*
X192700550Y-132819671D01*
X192701758Y-132870669D01*
X192704971Y-132903071D01*
X192711171Y-132922095D01*
X192721340Y-132932956D01*
X192736461Y-132940872D01*
X192737334Y-132941270D01*
X192766452Y-132953581D01*
X192780877Y-132958114D01*
X192783094Y-132944409D01*
X192784991Y-132906525D01*
X192786433Y-132849315D01*
X192787282Y-132777627D01*
X192787451Y-132725165D01*
X192786588Y-132623647D01*
X192783210Y-132546632D01*
X192776138Y-132489623D01*
X192764192Y-132448126D01*
X192746190Y-132417643D01*
X192720953Y-132393680D01*
X192696033Y-132376955D01*
X192636109Y-132354697D01*
X192566369Y-132349676D01*
X192500680Y-132362352D01*
G36*
X191999685Y-132370566D02*
G01*
X191942259Y-132408097D01*
X191914561Y-132441696D01*
X191892618Y-132502664D01*
X191890875Y-132550908D01*
X191894823Y-132615416D01*
X192043594Y-132680534D01*
X192115931Y-132713802D01*
X192163196Y-132740564D01*
X192187773Y-132763744D01*
X192192043Y-132786267D01*
X192178391Y-132811055D01*
X192163337Y-132827486D01*
X192119534Y-132853835D01*
X192071891Y-132855681D01*
X192028135Y-132835146D01*
X191995991Y-132794352D01*
X191990242Y-132779947D01*
X191962704Y-132734956D01*
X191931022Y-132715782D01*
X191887566Y-132699379D01*
X191887566Y-132761566D01*
X191891408Y-132803883D01*
X191906457Y-132839569D01*
X191938000Y-132880543D01*
X191942688Y-132885867D01*
X191977774Y-132922320D01*
X192007933Y-132941883D01*
X192045665Y-132950883D01*
X192076945Y-132953830D01*
X192132895Y-132954565D01*
X192172725Y-132945260D01*
X192197572Y-132931446D01*
X192236624Y-132901067D01*
X192263655Y-132868213D01*
X192280763Y-132826894D01*
X192290042Y-132771121D01*
X192293587Y-132694905D01*
X192293870Y-132656222D01*
X192292908Y-132609847D01*
X192205273Y-132609847D01*
X192204257Y-132634726D01*
X192201724Y-132638800D01*
X192185006Y-132633265D01*
X192149031Y-132618617D01*
X192100949Y-132597790D01*
X192090894Y-132593314D01*
X192030128Y-132562414D01*
X191996648Y-132535257D01*
X191989290Y-132509820D01*
X192006889Y-132484081D01*
X192021424Y-132472709D01*
X192073870Y-132449964D01*
X192122958Y-132453722D01*
X192164053Y-132481484D01*
X192192522Y-132530752D01*
X192201649Y-132569857D01*
X192205273Y-132609847D01*
X192292908Y-132609847D01*
X192291995Y-132565849D01*
X192285084Y-132498984D01*
X192271396Y-132450295D01*
X192249184Y-132414449D01*
X192216706Y-132386113D01*
X192202547Y-132376955D01*
X192138227Y-132353107D01*
X192067807Y-132351606D01*
X191999685Y-132370566D01*
G37*
X191999685Y-132370566D02*
X191942259Y-132408097D01*
X191914561Y-132441696D01*
X191892618Y-132502664D01*
X191890875Y-132550908D01*
X191894823Y-132615416D01*
X192043594Y-132680534D01*
X192115931Y-132713802D01*
X192163196Y-132740564D01*
X192187773Y-132763744D01*
X192192043Y-132786267D01*
X192178391Y-132811055D01*
X192163337Y-132827486D01*
X192119534Y-132853835D01*
X192071891Y-132855681D01*
X192028135Y-132835146D01*
X191995991Y-132794352D01*
X191990242Y-132779947D01*
X191962704Y-132734956D01*
X191931022Y-132715782D01*
X191887566Y-132699379D01*
X191887566Y-132761566D01*
X191891408Y-132803883D01*
X191906457Y-132839569D01*
X191938000Y-132880543D01*
X191942688Y-132885867D01*
X191977774Y-132922320D01*
X192007933Y-132941883D01*
X192045665Y-132950883D01*
X192076945Y-132953830D01*
X192132895Y-132954565D01*
X192172725Y-132945260D01*
X192197572Y-132931446D01*
X192236624Y-132901067D01*
X192263655Y-132868213D01*
X192280763Y-132826894D01*
X192290042Y-132771121D01*
X192293587Y-132694905D01*
X192293870Y-132656222D01*
X192292908Y-132609847D01*
X192205273Y-132609847D01*
X192204257Y-132634726D01*
X192201724Y-132638800D01*
X192185006Y-132633265D01*
X192149031Y-132618617D01*
X192100949Y-132597790D01*
X192090894Y-132593314D01*
X192030128Y-132562414D01*
X191996648Y-132535257D01*
X191989290Y-132509820D01*
X192006889Y-132484081D01*
X192021424Y-132472709D01*
X192073870Y-132449964D01*
X192122958Y-132453722D01*
X192164053Y-132481484D01*
X192192522Y-132530752D01*
X192201649Y-132569857D01*
X192205273Y-132609847D01*
X192292908Y-132609847D01*
X192291995Y-132565849D01*
X192285084Y-132498984D01*
X192271396Y-132450295D01*
X192249184Y-132414449D01*
X192216706Y-132386113D01*
X192202547Y-132376955D01*
X192138227Y-132353107D01*
X192067807Y-132351606D01*
X191999685Y-132370566D01*
G36*
X195049370Y-127645948D02*
G01*
X194970826Y-127646378D01*
X194913982Y-127647542D01*
X194875175Y-127649807D01*
X194850742Y-127653540D01*
X194837018Y-127659106D01*
X194830340Y-127666873D01*
X194827044Y-127677205D01*
X194826724Y-127678543D01*
X194821718Y-127702679D01*
X194812451Y-127750301D01*
X194799888Y-127816341D01*
X194784993Y-127895728D01*
X194768729Y-127983396D01*
X194768161Y-127986475D01*
X194751870Y-128072389D01*
X194736628Y-128148296D01*
X194723419Y-128209645D01*
X194713226Y-128251882D01*
X194707032Y-128270455D01*
X194706737Y-128270784D01*
X194688492Y-128279853D01*
X194650875Y-128294967D01*
X194602009Y-128312862D01*
X194601737Y-128312958D01*
X194540187Y-128336093D01*
X194467623Y-128365565D01*
X194399223Y-128395197D01*
X194395986Y-128396662D01*
X194284578Y-128447226D01*
X194037881Y-128278760D01*
X193962203Y-128227403D01*
X193893649Y-128181489D01*
X193836192Y-128143630D01*
X193793804Y-128116437D01*
X193770455Y-128102521D01*
X193768238Y-128101489D01*
X193751270Y-128106084D01*
X193719579Y-128128255D01*
X193671928Y-128169047D01*
X193607082Y-128229505D01*
X193540883Y-128293827D01*
X193477066Y-128357212D01*
X193419951Y-128415051D01*
X193372975Y-128463775D01*
X193339577Y-128499810D01*
X193323195Y-128519584D01*
X193322586Y-128520602D01*
X193320775Y-128534172D01*
X193327597Y-128556333D01*
X193344740Y-128590078D01*
X193373887Y-128638400D01*
X193416725Y-128704292D01*
X193473832Y-128789117D01*
X193524514Y-128863777D01*
X193569819Y-128930740D01*
X193607130Y-128986116D01*
X193633828Y-129026020D01*
X193647295Y-129046562D01*
X193648143Y-129047956D01*
X193646499Y-129067638D01*
X193634035Y-129105893D01*
X193613232Y-129155489D01*
X193605818Y-129171328D01*
X193573466Y-129241890D01*
X193538952Y-129321953D01*
X193510915Y-129391229D01*
X193490712Y-129442645D01*
X193474665Y-129481719D01*
X193465392Y-129502141D01*
X193464239Y-129503714D01*
X193447184Y-129506321D01*
X193406982Y-129513463D01*
X193348978Y-129524123D01*
X193278517Y-129537285D01*
X193200945Y-129551933D01*
X193121608Y-129567049D01*
X193045849Y-129581618D01*
X192979016Y-129594622D01*
X192926452Y-129605045D01*
X192893504Y-129611870D01*
X192885423Y-129613799D01*
X192877075Y-129618562D01*
X192870774Y-129629318D01*
X192866235Y-129649698D01*
X192863176Y-129683334D01*
X192861313Y-129733855D01*
X192860362Y-129804892D01*
X192860040Y-129900076D01*
X192860023Y-129939092D01*
X192860023Y-130256399D01*
X192936223Y-130271439D01*
X192978617Y-130279595D01*
X193041880Y-130291499D01*
X193118318Y-130305716D01*
X193200237Y-130320810D01*
X193222880Y-130324955D01*
X193298474Y-130339653D01*
X193364327Y-130354105D01*
X193414914Y-130366975D01*
X193444706Y-130376922D01*
X193449668Y-130379887D01*
X193461854Y-130400883D01*
X193479327Y-130441567D01*
X193498703Y-130493922D01*
X193502546Y-130505200D01*
X193527941Y-130575123D01*
X193559463Y-130654018D01*
X193590311Y-130724866D01*
X193590463Y-130725195D01*
X193641833Y-130836333D01*
X193472881Y-131084853D01*
X193303928Y-131333372D01*
X193520851Y-131550658D01*
X193586461Y-131615326D01*
X193646301Y-131672333D01*
X193697013Y-131718633D01*
X193735234Y-131751184D01*
X193757605Y-131766943D01*
X193760814Y-131767943D01*
X193779654Y-131760069D01*
X193818100Y-131738178D01*
X193871950Y-131704867D01*
X193937004Y-131662731D01*
X194007340Y-131615543D01*
X194078725Y-131567410D01*
X194142372Y-131525528D01*
X194194239Y-131492471D01*
X194230285Y-131470818D01*
X194246413Y-131463143D01*
X194266091Y-131469637D01*
X194303405Y-131486750D01*
X194350659Y-131510926D01*
X194355668Y-131513613D01*
X194419303Y-131545527D01*
X194462939Y-131561179D01*
X194490078Y-131561345D01*
X194504223Y-131546804D01*
X194504305Y-131546600D01*
X194511375Y-131529379D01*
X194528238Y-131488499D01*
X194553585Y-131427125D01*
X194586109Y-131348419D01*
X194624502Y-131255547D01*
X194667458Y-131151672D01*
X194709058Y-131051102D01*
X194754776Y-130940116D01*
X194796754Y-130837303D01*
X194833732Y-130745815D01*
X194864453Y-130668801D01*
X194887658Y-130609415D01*
X194902090Y-130570809D01*
X194906537Y-130556400D01*
X194895384Y-130539872D01*
X194866211Y-130513530D01*
X194827309Y-130484487D01*
X194716523Y-130392639D01*
X194629929Y-130287359D01*
X194568564Y-130170866D01*
X194533465Y-130045376D01*
X194525672Y-129913107D01*
X194531337Y-129852057D01*
X194562202Y-129725395D01*
X194615360Y-129613541D01*
X194687513Y-129517601D01*
X194775363Y-129438676D01*
X194875615Y-129377870D01*
X194984970Y-129336287D01*
X195100133Y-129315028D01*
X195217805Y-129315199D01*
X195334690Y-129337901D01*
X195447491Y-129384238D01*
X195552911Y-129455313D01*
X195596912Y-129495511D01*
X195681301Y-129598729D01*
X195740058Y-129711525D01*
X195773576Y-129830610D01*
X195782245Y-129952695D01*
X195766457Y-130074493D01*
X195726602Y-130192716D01*
X195663073Y-130304075D01*
X195576259Y-130405284D01*
X195479251Y-130484487D01*
X195438843Y-130514762D01*
X195410298Y-130540819D01*
X195400023Y-130556425D01*
X195405403Y-130573443D01*
X195420705Y-130614100D01*
X195444668Y-130675242D01*
X195476036Y-130753719D01*
X195513548Y-130846380D01*
X195555947Y-130950072D01*
X195597617Y-131051126D01*
X195643590Y-131162207D01*
X195686173Y-131265141D01*
X195724059Y-131356765D01*
X195755940Y-131433916D01*
X195780509Y-131493431D01*
X195796460Y-131532144D01*
X195802370Y-131546600D01*
X195816332Y-131561285D01*
X195843340Y-131561242D01*
X195886867Y-131545699D01*
X195950390Y-131513884D01*
X195950892Y-131513613D01*
X195998720Y-131488923D01*
X196037383Y-131470938D01*
X196059185Y-131463214D01*
X196060147Y-131463143D01*
X196076559Y-131470978D01*
X196112793Y-131492765D01*
X196164806Y-131525928D01*
X196228555Y-131567891D01*
X196299220Y-131615543D01*
X196371164Y-131663791D01*
X196436006Y-131705751D01*
X196489545Y-131738827D01*
X196527583Y-131760421D01*
X196545747Y-131767943D01*
X196562472Y-131758057D01*
X196596100Y-131730426D01*
X196643270Y-131688095D01*
X196700622Y-131634105D01*
X196764796Y-131571499D01*
X196785783Y-131550583D01*
X197002781Y-131333223D01*
X196837612Y-131090820D01*
X196787416Y-131016381D01*
X196743361Y-130949572D01*
X196707918Y-130894265D01*
X196683561Y-130854329D01*
X196672758Y-130833636D01*
X196672442Y-130832163D01*
X196678137Y-130812658D01*
X196693454Y-130773422D01*
X196715743Y-130721030D01*
X196731387Y-130685955D01*
X196760639Y-130618801D01*
X196788186Y-130550958D01*
X196809543Y-130493634D01*
X196815345Y-130476172D01*
X196831828Y-130429538D01*
X196847940Y-130393505D01*
X196856790Y-130379887D01*
X196876320Y-130371552D01*
X196918946Y-130359737D01*
X196979135Y-130345781D01*
X197051358Y-130331022D01*
X197083680Y-130324955D01*
X197165758Y-130309873D01*
X197244485Y-130295269D01*
X197312171Y-130282580D01*
X197361120Y-130273242D01*
X197370337Y-130271439D01*
X197446537Y-130256399D01*
X197446537Y-129939092D01*
X197446366Y-129834754D01*
X197445664Y-129755813D01*
X197444146Y-129698638D01*
X197441531Y-129659599D01*
X197437534Y-129635065D01*
X197431871Y-129621405D01*
X197424260Y-129614989D01*
X197421137Y-129613799D01*
X197402302Y-129609580D01*
X197360692Y-129601162D01*
X197301650Y-129589561D01*
X197230523Y-129575795D01*
X197152655Y-129560880D01*
X197073393Y-129545832D01*
X196998082Y-129531669D01*
X196932067Y-129519406D01*
X196880693Y-129510061D01*
X196849305Y-129504650D01*
X196842321Y-129503714D01*
X196835995Y-129491196D01*
X196821990Y-129457846D01*
X196802925Y-129409977D01*
X196795646Y-129391229D01*
X196766284Y-129318795D01*
X196731709Y-129238770D01*
X196700743Y-129171328D01*
X196677957Y-129119759D01*
X196662798Y-129077385D01*
X196657738Y-129051434D01*
X196658544Y-129047956D01*
X196669239Y-129031536D01*
X196693660Y-128995017D01*
X196729185Y-128942287D01*
X196773193Y-128877235D01*
X196823063Y-128803751D01*
X196832924Y-128789245D01*
X196890788Y-128703304D01*
X196933324Y-128637861D01*
X196962226Y-128589904D01*
X196979190Y-128556420D01*
X196985913Y-128534395D01*
X196984090Y-128520817D01*
X196984044Y-128520731D01*
X196969694Y-128502897D01*
X196937957Y-128468417D01*
X196892270Y-128420868D01*
X196836076Y-128363822D01*
X196772812Y-128300855D01*
X196765678Y-128293827D01*
X196685950Y-128216620D01*
X196624423Y-128159930D01*
X196579859Y-128122710D01*
X196551023Y-128103915D01*
X196538322Y-128101489D01*
X196519786Y-128112071D01*
X196481319Y-128136516D01*
X196426894Y-128172212D01*
X196360482Y-128216547D01*
X196286055Y-128266911D01*
X196268679Y-128278760D01*
X196021983Y-128447226D01*
X195910574Y-128396662D01*
X195842823Y-128367195D01*
X195770097Y-128337559D01*
X195707577Y-128313930D01*
X195704823Y-128312958D01*
X195655920Y-128295057D01*
X195618223Y-128279920D01*
X195599855Y-128270810D01*
X195599824Y-128270784D01*
X195593995Y-128254317D01*
X195584088Y-128213819D01*
X195571085Y-128153842D01*
X195555971Y-128078940D01*
X195539728Y-127993664D01*
X195538399Y-127986475D01*
X195522105Y-127898614D01*
X195507147Y-127818860D01*
X195494489Y-127752281D01*
X195485094Y-127703947D01*
X195479926Y-127678925D01*
X195479836Y-127678543D01*
X195476691Y-127667899D01*
X195470576Y-127659862D01*
X195457827Y-127654067D01*
X195434780Y-127650147D01*
X195397771Y-127647735D01*
X195343136Y-127646465D01*
X195267213Y-127645971D01*
X195166336Y-127645886D01*
X195153280Y-127645886D01*
X195049370Y-127645948D01*
G37*
X195049370Y-127645948D02*
X194970826Y-127646378D01*
X194913982Y-127647542D01*
X194875175Y-127649807D01*
X194850742Y-127653540D01*
X194837018Y-127659106D01*
X194830340Y-127666873D01*
X194827044Y-127677205D01*
X194826724Y-127678543D01*
X194821718Y-127702679D01*
X194812451Y-127750301D01*
X194799888Y-127816341D01*
X194784993Y-127895728D01*
X194768729Y-127983396D01*
X194768161Y-127986475D01*
X194751870Y-128072389D01*
X194736628Y-128148296D01*
X194723419Y-128209645D01*
X194713226Y-128251882D01*
X194707032Y-128270455D01*
X194706737Y-128270784D01*
X194688492Y-128279853D01*
X194650875Y-128294967D01*
X194602009Y-128312862D01*
X194601737Y-128312958D01*
X194540187Y-128336093D01*
X194467623Y-128365565D01*
X194399223Y-128395197D01*
X194395986Y-128396662D01*
X194284578Y-128447226D01*
X194037881Y-128278760D01*
X193962203Y-128227403D01*
X193893649Y-128181489D01*
X193836192Y-128143630D01*
X193793804Y-128116437D01*
X193770455Y-128102521D01*
X193768238Y-128101489D01*
X193751270Y-128106084D01*
X193719579Y-128128255D01*
X193671928Y-128169047D01*
X193607082Y-128229505D01*
X193540883Y-128293827D01*
X193477066Y-128357212D01*
X193419951Y-128415051D01*
X193372975Y-128463775D01*
X193339577Y-128499810D01*
X193323195Y-128519584D01*
X193322586Y-128520602D01*
X193320775Y-128534172D01*
X193327597Y-128556333D01*
X193344740Y-128590078D01*
X193373887Y-128638400D01*
X193416725Y-128704292D01*
X193473832Y-128789117D01*
X193524514Y-128863777D01*
X193569819Y-128930740D01*
X193607130Y-128986116D01*
X193633828Y-129026020D01*
X193647295Y-129046562D01*
X193648143Y-129047956D01*
X193646499Y-129067638D01*
X193634035Y-129105893D01*
X193613232Y-129155489D01*
X193605818Y-129171328D01*
X193573466Y-129241890D01*
X193538952Y-129321953D01*
X193510915Y-129391229D01*
X193490712Y-129442645D01*
X193474665Y-129481719D01*
X193465392Y-129502141D01*
X193464239Y-129503714D01*
X193447184Y-129506321D01*
X193406982Y-129513463D01*
X193348978Y-129524123D01*
X193278517Y-129537285D01*
X193200945Y-129551933D01*
X193121608Y-129567049D01*
X193045849Y-129581618D01*
X192979016Y-129594622D01*
X192926452Y-129605045D01*
X192893504Y-129611870D01*
X192885423Y-129613799D01*
X192877075Y-129618562D01*
X192870774Y-129629318D01*
X192866235Y-129649698D01*
X192863176Y-129683334D01*
X192861313Y-129733855D01*
X192860362Y-129804892D01*
X192860040Y-129900076D01*
X192860023Y-129939092D01*
X192860023Y-130256399D01*
X192936223Y-130271439D01*
X192978617Y-130279595D01*
X193041880Y-130291499D01*
X193118318Y-130305716D01*
X193200237Y-130320810D01*
X193222880Y-130324955D01*
X193298474Y-130339653D01*
X193364327Y-130354105D01*
X193414914Y-130366975D01*
X193444706Y-130376922D01*
X193449668Y-130379887D01*
X193461854Y-130400883D01*
X193479327Y-130441567D01*
X193498703Y-130493922D01*
X193502546Y-130505200D01*
X193527941Y-130575123D01*
X193559463Y-130654018D01*
X193590311Y-130724866D01*
X193590463Y-130725195D01*
X193641833Y-130836333D01*
X193472881Y-131084853D01*
X193303928Y-131333372D01*
X193520851Y-131550658D01*
X193586461Y-131615326D01*
X193646301Y-131672333D01*
X193697013Y-131718633D01*
X193735234Y-131751184D01*
X193757605Y-131766943D01*
X193760814Y-131767943D01*
X193779654Y-131760069D01*
X193818100Y-131738178D01*
X193871950Y-131704867D01*
X193937004Y-131662731D01*
X194007340Y-131615543D01*
X194078725Y-131567410D01*
X194142372Y-131525528D01*
X194194239Y-131492471D01*
X194230285Y-131470818D01*
X194246413Y-131463143D01*
X194266091Y-131469637D01*
X194303405Y-131486750D01*
X194350659Y-131510926D01*
X194355668Y-131513613D01*
X194419303Y-131545527D01*
X194462939Y-131561179D01*
X194490078Y-131561345D01*
X194504223Y-131546804D01*
X194504305Y-131546600D01*
X194511375Y-131529379D01*
X194528238Y-131488499D01*
X194553585Y-131427125D01*
X194586109Y-131348419D01*
X194624502Y-131255547D01*
X194667458Y-131151672D01*
X194709058Y-131051102D01*
X194754776Y-130940116D01*
X194796754Y-130837303D01*
X194833732Y-130745815D01*
X194864453Y-130668801D01*
X194887658Y-130609415D01*
X194902090Y-130570809D01*
X194906537Y-130556400D01*
X194895384Y-130539872D01*
X194866211Y-130513530D01*
X194827309Y-130484487D01*
X194716523Y-130392639D01*
X194629929Y-130287359D01*
X194568564Y-130170866D01*
X194533465Y-130045376D01*
X194525672Y-129913107D01*
X194531337Y-129852057D01*
X194562202Y-129725395D01*
X194615360Y-129613541D01*
X194687513Y-129517601D01*
X194775363Y-129438676D01*
X194875615Y-129377870D01*
X194984970Y-129336287D01*
X195100133Y-129315028D01*
X195217805Y-129315199D01*
X195334690Y-129337901D01*
X195447491Y-129384238D01*
X195552911Y-129455313D01*
X195596912Y-129495511D01*
X195681301Y-129598729D01*
X195740058Y-129711525D01*
X195773576Y-129830610D01*
X195782245Y-129952695D01*
X195766457Y-130074493D01*
X195726602Y-130192716D01*
X195663073Y-130304075D01*
X195576259Y-130405284D01*
X195479251Y-130484487D01*
X195438843Y-130514762D01*
X195410298Y-130540819D01*
X195400023Y-130556425D01*
X195405403Y-130573443D01*
X195420705Y-130614100D01*
X195444668Y-130675242D01*
X195476036Y-130753719D01*
X195513548Y-130846380D01*
X195555947Y-130950072D01*
X195597617Y-131051126D01*
X195643590Y-131162207D01*
X195686173Y-131265141D01*
X195724059Y-131356765D01*
X195755940Y-131433916D01*
X195780509Y-131493431D01*
X195796460Y-131532144D01*
X195802370Y-131546600D01*
X195816332Y-131561285D01*
X195843340Y-131561242D01*
X195886867Y-131545699D01*
X195950390Y-131513884D01*
X195950892Y-131513613D01*
X195998720Y-131488923D01*
X196037383Y-131470938D01*
X196059185Y-131463214D01*
X196060147Y-131463143D01*
X196076559Y-131470978D01*
X196112793Y-131492765D01*
X196164806Y-131525928D01*
X196228555Y-131567891D01*
X196299220Y-131615543D01*
X196371164Y-131663791D01*
X196436006Y-131705751D01*
X196489545Y-131738827D01*
X196527583Y-131760421D01*
X196545747Y-131767943D01*
X196562472Y-131758057D01*
X196596100Y-131730426D01*
X196643270Y-131688095D01*
X196700622Y-131634105D01*
X196764796Y-131571499D01*
X196785783Y-131550583D01*
X197002781Y-131333223D01*
X196837612Y-131090820D01*
X196787416Y-131016381D01*
X196743361Y-130949572D01*
X196707918Y-130894265D01*
X196683561Y-130854329D01*
X196672758Y-130833636D01*
X196672442Y-130832163D01*
X196678137Y-130812658D01*
X196693454Y-130773422D01*
X196715743Y-130721030D01*
X196731387Y-130685955D01*
X196760639Y-130618801D01*
X196788186Y-130550958D01*
X196809543Y-130493634D01*
X196815345Y-130476172D01*
X196831828Y-130429538D01*
X196847940Y-130393505D01*
X196856790Y-130379887D01*
X196876320Y-130371552D01*
X196918946Y-130359737D01*
X196979135Y-130345781D01*
X197051358Y-130331022D01*
X197083680Y-130324955D01*
X197165758Y-130309873D01*
X197244485Y-130295269D01*
X197312171Y-130282580D01*
X197361120Y-130273242D01*
X197370337Y-130271439D01*
X197446537Y-130256399D01*
X197446537Y-129939092D01*
X197446366Y-129834754D01*
X197445664Y-129755813D01*
X197444146Y-129698638D01*
X197441531Y-129659599D01*
X197437534Y-129635065D01*
X197431871Y-129621405D01*
X197424260Y-129614989D01*
X197421137Y-129613799D01*
X197402302Y-129609580D01*
X197360692Y-129601162D01*
X197301650Y-129589561D01*
X197230523Y-129575795D01*
X197152655Y-129560880D01*
X197073393Y-129545832D01*
X196998082Y-129531669D01*
X196932067Y-129519406D01*
X196880693Y-129510061D01*
X196849305Y-129504650D01*
X196842321Y-129503714D01*
X196835995Y-129491196D01*
X196821990Y-129457846D01*
X196802925Y-129409977D01*
X196795646Y-129391229D01*
X196766284Y-129318795D01*
X196731709Y-129238770D01*
X196700743Y-129171328D01*
X196677957Y-129119759D01*
X196662798Y-129077385D01*
X196657738Y-129051434D01*
X196658544Y-129047956D01*
X196669239Y-129031536D01*
X196693660Y-128995017D01*
X196729185Y-128942287D01*
X196773193Y-128877235D01*
X196823063Y-128803751D01*
X196832924Y-128789245D01*
X196890788Y-128703304D01*
X196933324Y-128637861D01*
X196962226Y-128589904D01*
X196979190Y-128556420D01*
X196985913Y-128534395D01*
X196984090Y-128520817D01*
X196984044Y-128520731D01*
X196969694Y-128502897D01*
X196937957Y-128468417D01*
X196892270Y-128420868D01*
X196836076Y-128363822D01*
X196772812Y-128300855D01*
X196765678Y-128293827D01*
X196685950Y-128216620D01*
X196624423Y-128159930D01*
X196579859Y-128122710D01*
X196551023Y-128103915D01*
X196538322Y-128101489D01*
X196519786Y-128112071D01*
X196481319Y-128136516D01*
X196426894Y-128172212D01*
X196360482Y-128216547D01*
X196286055Y-128266911D01*
X196268679Y-128278760D01*
X196021983Y-128447226D01*
X195910574Y-128396662D01*
X195842823Y-128367195D01*
X195770097Y-128337559D01*
X195707577Y-128313930D01*
X195704823Y-128312958D01*
X195655920Y-128295057D01*
X195618223Y-128279920D01*
X195599855Y-128270810D01*
X195599824Y-128270784D01*
X195593995Y-128254317D01*
X195584088Y-128213819D01*
X195571085Y-128153842D01*
X195555971Y-128078940D01*
X195539728Y-127993664D01*
X195538399Y-127986475D01*
X195522105Y-127898614D01*
X195507147Y-127818860D01*
X195494489Y-127752281D01*
X195485094Y-127703947D01*
X195479926Y-127678925D01*
X195479836Y-127678543D01*
X195476691Y-127667899D01*
X195470576Y-127659862D01*
X195457827Y-127654067D01*
X195434780Y-127650147D01*
X195397771Y-127647735D01*
X195343136Y-127646465D01*
X195267213Y-127645971D01*
X195166336Y-127645886D01*
X195153280Y-127645886D01*
X195049370Y-127645948D01*
G36*
X197243700Y-121218114D02*
G01*
X196651033Y-121218114D01*
X196651033Y-120688947D01*
X196185366Y-120688947D01*
X196185366Y-121218114D01*
X195592700Y-121218114D01*
X195592700Y-120688947D01*
X195127033Y-120688947D01*
X195127033Y-121213190D01*
X194920658Y-121222199D01*
X194777445Y-121234846D01*
X194663312Y-121261765D01*
X194566112Y-121307616D01*
X194473697Y-121377058D01*
X194442579Y-121405566D01*
X194356051Y-121502426D01*
X194296755Y-121606994D01*
X194260516Y-121729586D01*
X194243160Y-121880518D01*
X194242161Y-121900739D01*
X194233109Y-122107114D01*
X193708866Y-122107114D01*
X193708866Y-122572780D01*
X194238033Y-122572780D01*
X194238033Y-123165447D01*
X193708866Y-123165447D01*
X193708866Y-123631114D01*
X194238033Y-123631114D01*
X194238033Y-124223780D01*
X193708866Y-124223780D01*
X193708866Y-124689447D01*
X194233109Y-124689447D01*
X194242161Y-124895822D01*
X194257558Y-125050791D01*
X194291344Y-125176199D01*
X194347694Y-125282362D01*
X194430781Y-125379595D01*
X194442579Y-125390994D01*
X194536059Y-125469131D01*
X194630365Y-125522158D01*
X194737646Y-125554736D01*
X194870047Y-125571522D01*
X194920658Y-125574361D01*
X195127033Y-125583371D01*
X195127033Y-126107614D01*
X195592700Y-126107614D01*
X195592700Y-125578447D01*
X196185366Y-125578447D01*
X196185366Y-126107614D01*
X196651033Y-126107614D01*
X196651033Y-125578447D01*
X197243700Y-125578447D01*
X197243700Y-126107614D01*
X197709366Y-126107614D01*
X197709366Y-125583371D01*
X197915741Y-125574319D01*
X198070253Y-125559018D01*
X198195392Y-125525418D01*
X198301728Y-125469250D01*
X198399829Y-125386245D01*
X198411913Y-125373901D01*
X198505304Y-125254614D01*
X198565030Y-125122560D01*
X198594120Y-124969612D01*
X198598160Y-124874655D01*
X198598366Y-124689447D01*
X199127533Y-124689447D01*
X199127533Y-124223780D01*
X198598366Y-124223780D01*
X198598366Y-123631114D01*
X199127533Y-123631114D01*
X199127533Y-123165447D01*
X198598366Y-123165447D01*
X198598366Y-122572780D01*
X199127533Y-122572780D01*
X199127533Y-122128280D01*
X197688200Y-122128280D01*
X197688200Y-124668280D01*
X195148200Y-124668280D01*
X195148200Y-122128280D01*
X197688200Y-122128280D01*
X199127533Y-122128280D01*
X199127533Y-122107114D01*
X198598366Y-122107114D01*
X198598160Y-121921905D01*
X198595682Y-121819502D01*
X198586612Y-121743330D01*
X198568087Y-121677448D01*
X198543998Y-121620280D01*
X198454379Y-121473584D01*
X198334966Y-121356838D01*
X198206783Y-121279119D01*
X198135918Y-121247965D01*
X198073191Y-121229527D01*
X198002413Y-121220643D01*
X197907395Y-121218150D01*
X197894575Y-121218130D01*
X197709366Y-121218114D01*
X197709366Y-120688947D01*
X197243700Y-120688947D01*
X197243700Y-121218114D01*
G37*
X197243700Y-121218114D02*
X196651033Y-121218114D01*
X196651033Y-120688947D01*
X196185366Y-120688947D01*
X196185366Y-121218114D01*
X195592700Y-121218114D01*
X195592700Y-120688947D01*
X195127033Y-120688947D01*
X195127033Y-121213190D01*
X194920658Y-121222199D01*
X194777445Y-121234846D01*
X194663312Y-121261765D01*
X194566112Y-121307616D01*
X194473697Y-121377058D01*
X194442579Y-121405566D01*
X194356051Y-121502426D01*
X194296755Y-121606994D01*
X194260516Y-121729586D01*
X194243160Y-121880518D01*
X194242161Y-121900739D01*
X194233109Y-122107114D01*
X193708866Y-122107114D01*
X193708866Y-122572780D01*
X194238033Y-122572780D01*
X194238033Y-123165447D01*
X193708866Y-123165447D01*
X193708866Y-123631114D01*
X194238033Y-123631114D01*
X194238033Y-124223780D01*
X193708866Y-124223780D01*
X193708866Y-124689447D01*
X194233109Y-124689447D01*
X194242161Y-124895822D01*
X194257558Y-125050791D01*
X194291344Y-125176199D01*
X194347694Y-125282362D01*
X194430781Y-125379595D01*
X194442579Y-125390994D01*
X194536059Y-125469131D01*
X194630365Y-125522158D01*
X194737646Y-125554736D01*
X194870047Y-125571522D01*
X194920658Y-125574361D01*
X195127033Y-125583371D01*
X195127033Y-126107614D01*
X195592700Y-126107614D01*
X195592700Y-125578447D01*
X196185366Y-125578447D01*
X196185366Y-126107614D01*
X196651033Y-126107614D01*
X196651033Y-125578447D01*
X197243700Y-125578447D01*
X197243700Y-126107614D01*
X197709366Y-126107614D01*
X197709366Y-125583371D01*
X197915741Y-125574319D01*
X198070253Y-125559018D01*
X198195392Y-125525418D01*
X198301728Y-125469250D01*
X198399829Y-125386245D01*
X198411913Y-125373901D01*
X198505304Y-125254614D01*
X198565030Y-125122560D01*
X198594120Y-124969612D01*
X198598160Y-124874655D01*
X198598366Y-124689447D01*
X199127533Y-124689447D01*
X199127533Y-124223780D01*
X198598366Y-124223780D01*
X198598366Y-123631114D01*
X199127533Y-123631114D01*
X199127533Y-123165447D01*
X198598366Y-123165447D01*
X198598366Y-122572780D01*
X199127533Y-122572780D01*
X199127533Y-122128280D01*
X197688200Y-122128280D01*
X197688200Y-124668280D01*
X195148200Y-124668280D01*
X195148200Y-122128280D01*
X197688200Y-122128280D01*
X199127533Y-122128280D01*
X199127533Y-122107114D01*
X198598366Y-122107114D01*
X198598160Y-121921905D01*
X198595682Y-121819502D01*
X198586612Y-121743330D01*
X198568087Y-121677448D01*
X198543998Y-121620280D01*
X198454379Y-121473584D01*
X198334966Y-121356838D01*
X198206783Y-121279119D01*
X198135918Y-121247965D01*
X198073191Y-121229527D01*
X198002413Y-121220643D01*
X197907395Y-121218150D01*
X197894575Y-121218130D01*
X197709366Y-121218114D01*
X197709366Y-120688947D01*
X197243700Y-120688947D01*
X197243700Y-121218114D01*
G36*
X196948844Y-116503099D02*
G01*
X196962304Y-116554140D01*
X196968489Y-116585705D01*
X196968533Y-116586875D01*
X196949108Y-116594925D01*
X196897784Y-116602317D01*
X196824989Y-116607629D01*
X196812292Y-116608181D01*
X196656051Y-116614364D01*
X197178086Y-118191280D01*
X197700120Y-119768197D01*
X197865560Y-119774416D01*
X198031001Y-119780635D01*
X198063894Y-119864374D01*
X198096788Y-119948114D01*
X199016592Y-119948114D01*
X199246113Y-119947880D01*
X199436362Y-119947119D01*
X199590394Y-119945742D01*
X199711269Y-119943660D01*
X199802044Y-119940785D01*
X199865777Y-119937027D01*
X199905525Y-119932298D01*
X199924347Y-119926508D01*
X199926666Y-119921655D01*
X199918652Y-119898011D01*
X199898250Y-119837157D01*
X199866446Y-119742049D01*
X199824227Y-119615644D01*
X199772578Y-119460897D01*
X199751988Y-119399176D01*
X198891090Y-119399176D01*
X198667114Y-119393186D01*
X198443139Y-119387197D01*
X198202776Y-118667530D01*
X198138153Y-118473582D01*
X198069945Y-118268058D01*
X198001299Y-118060499D01*
X197935365Y-117860445D01*
X197875290Y-117677439D01*
X197824221Y-117521022D01*
X197806240Y-117465627D01*
X197650068Y-116983391D01*
X197870908Y-116989377D01*
X198091748Y-116995364D01*
X198891090Y-119399176D01*
X199751988Y-119399176D01*
X199712485Y-119280765D01*
X199644936Y-119078202D01*
X199570914Y-118856166D01*
X199491408Y-118617611D01*
X199407403Y-118365494D01*
X199340554Y-118164822D01*
X198764173Y-116434447D01*
X196929155Y-116434447D01*
X196948844Y-116503099D01*
G37*
X196948844Y-116503099D02*
X196962304Y-116554140D01*
X196968489Y-116585705D01*
X196968533Y-116586875D01*
X196949108Y-116594925D01*
X196897784Y-116602317D01*
X196824989Y-116607629D01*
X196812292Y-116608181D01*
X196656051Y-116614364D01*
X197178086Y-118191280D01*
X197700120Y-119768197D01*
X197865560Y-119774416D01*
X198031001Y-119780635D01*
X198063894Y-119864374D01*
X198096788Y-119948114D01*
X199016592Y-119948114D01*
X199246113Y-119947880D01*
X199436362Y-119947119D01*
X199590394Y-119945742D01*
X199711269Y-119943660D01*
X199802044Y-119940785D01*
X199865777Y-119937027D01*
X199905525Y-119932298D01*
X199924347Y-119926508D01*
X199926666Y-119921655D01*
X199918652Y-119898011D01*
X199898250Y-119837157D01*
X199866446Y-119742049D01*
X199824227Y-119615644D01*
X199772578Y-119460897D01*
X199751988Y-119399176D01*
X198891090Y-119399176D01*
X198667114Y-119393186D01*
X198443139Y-119387197D01*
X198202776Y-118667530D01*
X198138153Y-118473582D01*
X198069945Y-118268058D01*
X198001299Y-118060499D01*
X197935365Y-117860445D01*
X197875290Y-117677439D01*
X197824221Y-117521022D01*
X197806240Y-117465627D01*
X197650068Y-116983391D01*
X197870908Y-116989377D01*
X198091748Y-116995364D01*
X198891090Y-119399176D01*
X199751988Y-119399176D01*
X199712485Y-119280765D01*
X199644936Y-119078202D01*
X199570914Y-118856166D01*
X199491408Y-118617611D01*
X199407403Y-118365494D01*
X199340554Y-118164822D01*
X198764173Y-116434447D01*
X196929155Y-116434447D01*
X196948844Y-116503099D01*
G36*
X194366511Y-116503099D02*
G01*
X194379970Y-116554140D01*
X194386156Y-116585705D01*
X194386200Y-116586875D01*
X194366775Y-116594925D01*
X194315451Y-116602317D01*
X194242656Y-116607629D01*
X194229959Y-116608181D01*
X194073718Y-116614364D01*
X194595752Y-118191280D01*
X195117787Y-119768197D01*
X195448667Y-119780635D01*
X195481561Y-119864374D01*
X195514455Y-119948114D01*
X196434259Y-119948114D01*
X196663780Y-119947880D01*
X196854028Y-119947119D01*
X197008061Y-119945742D01*
X197128936Y-119943660D01*
X197219711Y-119940785D01*
X197283444Y-119937027D01*
X197323192Y-119932298D01*
X197342014Y-119926508D01*
X197344332Y-119921655D01*
X197336318Y-119898011D01*
X197315917Y-119837157D01*
X197284113Y-119742049D01*
X197241894Y-119615644D01*
X197190244Y-119460897D01*
X197169654Y-119399176D01*
X196308757Y-119399176D01*
X196084781Y-119393186D01*
X195860805Y-119387197D01*
X195620443Y-118667530D01*
X195555819Y-118473582D01*
X195487611Y-118268058D01*
X195418966Y-118060499D01*
X195353032Y-117860445D01*
X195292957Y-117677439D01*
X195241888Y-117521022D01*
X195223907Y-117465627D01*
X195067734Y-116983391D01*
X195288574Y-116989377D01*
X195509414Y-116995364D01*
X195909085Y-118197270D01*
X196308757Y-119399176D01*
X197169654Y-119399176D01*
X197130152Y-119280765D01*
X197062602Y-119078202D01*
X196988581Y-118856166D01*
X196909075Y-118617611D01*
X196825070Y-118365494D01*
X196758221Y-118164822D01*
X196181839Y-116434447D01*
X194346822Y-116434447D01*
X194366511Y-116503099D01*
G37*
X194366511Y-116503099D02*
X194379970Y-116554140D01*
X194386156Y-116585705D01*
X194386200Y-116586875D01*
X194366775Y-116594925D01*
X194315451Y-116602317D01*
X194242656Y-116607629D01*
X194229959Y-116608181D01*
X194073718Y-116614364D01*
X194595752Y-118191280D01*
X195117787Y-119768197D01*
X195448667Y-119780635D01*
X195481561Y-119864374D01*
X195514455Y-119948114D01*
X196434259Y-119948114D01*
X196663780Y-119947880D01*
X196854028Y-119947119D01*
X197008061Y-119945742D01*
X197128936Y-119943660D01*
X197219711Y-119940785D01*
X197283444Y-119937027D01*
X197323192Y-119932298D01*
X197342014Y-119926508D01*
X197344332Y-119921655D01*
X197336318Y-119898011D01*
X197315917Y-119837157D01*
X197284113Y-119742049D01*
X197241894Y-119615644D01*
X197190244Y-119460897D01*
X197169654Y-119399176D01*
X196308757Y-119399176D01*
X196084781Y-119393186D01*
X195860805Y-119387197D01*
X195620443Y-118667530D01*
X195555819Y-118473582D01*
X195487611Y-118268058D01*
X195418966Y-118060499D01*
X195353032Y-117860445D01*
X195292957Y-117677439D01*
X195241888Y-117521022D01*
X195223907Y-117465627D01*
X195067734Y-116983391D01*
X195288574Y-116989377D01*
X195509414Y-116995364D01*
X195909085Y-118197270D01*
X196308757Y-119399176D01*
X197169654Y-119399176D01*
X197130152Y-119280765D01*
X197062602Y-119078202D01*
X196988581Y-118856166D01*
X196909075Y-118617611D01*
X196825070Y-118365494D01*
X196758221Y-118164822D01*
X196181839Y-116434447D01*
X194346822Y-116434447D01*
X194366511Y-116503099D01*
G36*
X192919343Y-116438986D02*
G01*
X192827863Y-116441073D01*
X192764712Y-116444444D01*
X192736198Y-116448940D01*
X192735200Y-116450056D01*
X192741734Y-116472346D01*
X192760634Y-116531588D01*
X192790844Y-116624581D01*
X192831311Y-116748127D01*
X192880979Y-116899026D01*
X192938794Y-117074081D01*
X193003701Y-117270092D01*
X193074645Y-117483860D01*
X193150572Y-117712185D01*
X193222033Y-117926697D01*
X193301473Y-118165033D01*
X193376883Y-118391420D01*
X193447210Y-118602691D01*
X193511403Y-118795678D01*
X193568409Y-118967212D01*
X193617175Y-119114125D01*
X193656651Y-119233251D01*
X193685782Y-119321420D01*
X193703518Y-119375465D01*
X193708866Y-119392316D01*
X193688685Y-119393870D01*
X193632079Y-119395252D01*
X193544957Y-119396396D01*
X193433229Y-119397236D01*
X193302803Y-119397704D01*
X193222033Y-119397780D01*
X193083554Y-119398438D01*
X192960378Y-119400284D01*
X192858417Y-119403125D01*
X192783583Y-119406769D01*
X192741788Y-119411022D01*
X192735014Y-119413655D01*
X192741543Y-119438577D01*
X192759527Y-119495387D01*
X192786339Y-119576051D01*
X192819350Y-119672537D01*
X192824972Y-119688733D01*
X192915116Y-119947936D01*
X193830575Y-119948025D01*
X194022832Y-119947687D01*
X194201373Y-119946684D01*
X194361889Y-119945091D01*
X194500070Y-119942983D01*
X194611609Y-119940434D01*
X194692195Y-119937520D01*
X194737520Y-119934315D01*
X194746033Y-119932141D01*
X194739488Y-119910111D01*
X194720497Y-119850854D01*
X194690027Y-119757298D01*
X194649045Y-119632369D01*
X194598517Y-119478992D01*
X194539409Y-119300095D01*
X194472689Y-119098605D01*
X194399323Y-118877446D01*
X194320278Y-118639546D01*
X194236520Y-118387831D01*
X194167477Y-118180600D01*
X193588921Y-116445030D01*
X193162060Y-116439300D01*
X193032845Y-116438342D01*
X192919343Y-116438986D01*
G37*
X192919343Y-116438986D02*
X192827863Y-116441073D01*
X192764712Y-116444444D01*
X192736198Y-116448940D01*
X192735200Y-116450056D01*
X192741734Y-116472346D01*
X192760634Y-116531588D01*
X192790844Y-116624581D01*
X192831311Y-116748127D01*
X192880979Y-116899026D01*
X192938794Y-117074081D01*
X193003701Y-117270092D01*
X193074645Y-117483860D01*
X193150572Y-117712185D01*
X193222033Y-117926697D01*
X193301473Y-118165033D01*
X193376883Y-118391420D01*
X193447210Y-118602691D01*
X193511403Y-118795678D01*
X193568409Y-118967212D01*
X193617175Y-119114125D01*
X193656651Y-119233251D01*
X193685782Y-119321420D01*
X193703518Y-119375465D01*
X193708866Y-119392316D01*
X193688685Y-119393870D01*
X193632079Y-119395252D01*
X193544957Y-119396396D01*
X193433229Y-119397236D01*
X193302803Y-119397704D01*
X193222033Y-119397780D01*
X193083554Y-119398438D01*
X192960378Y-119400284D01*
X192858417Y-119403125D01*
X192783583Y-119406769D01*
X192741788Y-119411022D01*
X192735014Y-119413655D01*
X192741543Y-119438577D01*
X192759527Y-119495387D01*
X192786339Y-119576051D01*
X192819350Y-119672537D01*
X192824972Y-119688733D01*
X192915116Y-119947936D01*
X193830575Y-119948025D01*
X194022832Y-119947687D01*
X194201373Y-119946684D01*
X194361889Y-119945091D01*
X194500070Y-119942983D01*
X194611609Y-119940434D01*
X194692195Y-119937520D01*
X194737520Y-119934315D01*
X194746033Y-119932141D01*
X194739488Y-119910111D01*
X194720497Y-119850854D01*
X194690027Y-119757298D01*
X194649045Y-119632369D01*
X194598517Y-119478992D01*
X194539409Y-119300095D01*
X194472689Y-119098605D01*
X194399323Y-118877446D01*
X194320278Y-118639546D01*
X194236520Y-118387831D01*
X194167477Y-118180600D01*
X193588921Y-116445030D01*
X193162060Y-116439300D01*
X193032845Y-116438342D01*
X192919343Y-116438986D01*
G36*
X195232866Y-124583614D02*
G01*
X196418200Y-124583614D01*
X196418200Y-123440614D01*
X195232866Y-123440614D01*
X195232866Y-124583614D01*
G37*
X195232866Y-124583614D02*
X196418200Y-124583614D01*
X196418200Y-123440614D01*
X195232866Y-123440614D01*
X195232866Y-124583614D01*
G36*
X196439366Y-124562447D02*
G01*
X197582366Y-124562447D01*
X197582366Y-123482947D01*
X197561200Y-123482947D01*
X197561200Y-124541280D01*
X196460533Y-124541280D01*
X196460533Y-123482947D01*
X197561200Y-123482947D01*
X197582366Y-123482947D01*
X197582366Y-123461780D01*
X196439366Y-123461780D01*
X196439366Y-124562447D01*
G37*
X196439366Y-124562447D02*
X197582366Y-124562447D01*
X197582366Y-123482947D01*
X197561200Y-123482947D01*
X197561200Y-124541280D01*
X196460533Y-124541280D01*
X196460533Y-123482947D01*
X197561200Y-123482947D01*
X197582366Y-123482947D01*
X197582366Y-123461780D01*
X196439366Y-123461780D01*
X196439366Y-124562447D01*
G36*
X196418200Y-123440614D02*
G01*
X197603533Y-123440614D01*
X197603533Y-122212947D01*
X196418200Y-122212947D01*
X196418200Y-123440614D01*
G37*
X196418200Y-123440614D02*
X197603533Y-123440614D01*
X197603533Y-122212947D01*
X196418200Y-122212947D01*
X196418200Y-123440614D01*
G36*
X195254033Y-123419447D02*
G01*
X196397033Y-123419447D01*
X196397033Y-122255280D01*
X196375866Y-122255280D01*
X196375866Y-123398280D01*
X195275200Y-123398280D01*
X195275200Y-122255280D01*
X196375866Y-122255280D01*
X196397033Y-122255280D01*
X196397033Y-122234114D01*
X195254033Y-122234114D01*
X195254033Y-123419447D01*
G37*
X195254033Y-123419447D02*
X196397033Y-123419447D01*
X196397033Y-122255280D01*
X196375866Y-122255280D01*
X196375866Y-123398280D01*
X195275200Y-123398280D01*
X195275200Y-122255280D01*
X196375866Y-122255280D01*
X196397033Y-122255280D01*
X196397033Y-122234114D01*
X195254033Y-122234114D01*
X195254033Y-123419447D01*
D11*
X201310240Y-110685580D02*
X201310240Y-134561580D01*
X201310240Y-134561580D02*
X229250240Y-134561580D01*
X229250240Y-134561580D02*
X229250240Y-110685580D01*
X229250240Y-110685580D02*
X201310240Y-110685580D01*
X202894201Y-111955580D02*
G75*
G03*
X202894201Y-111955580I-567961J0D01*
G01*
D12*
X199173060Y-146210020D02*
G75*
G03*
X199173060Y-146210020I-700000J0D01*
G01*
X192823060Y-146070320D02*
G75*
G03*
X192823060Y-146070320I-700000J0D01*
G01*
X231422500Y-134342224D02*
X231422500Y-133832776D01*
X230377500Y-134342224D02*
X230377500Y-133832776D01*
D11*
G36*
X213930000Y-137942000D02*
G01*
X213930000Y-135529000D01*
X212660000Y-136799000D01*
X213930000Y-137942000D01*
G37*
D13*
X210120000Y-138450000D02*
X210120000Y-148610000D01*
X212660000Y-138450000D02*
X210120000Y-138450000D01*
X212660000Y-148610000D02*
X212660000Y-138450000D01*
X210120000Y-148610000D02*
X212660000Y-148610000D01*
X217740000Y-138450000D02*
X217740000Y-148737000D01*
X220153000Y-138450000D02*
X217740000Y-138450000D01*
X220153000Y-148737000D02*
X220153000Y-138450000D01*
X217740000Y-148737000D02*
X220153000Y-148737000D01*
X227011000Y-135910000D02*
X228789000Y-135910000D01*
X227011000Y-134894000D02*
X227011000Y-135910000D01*
X199071000Y-134894000D02*
X227011000Y-134894000D01*
X199071000Y-138577000D02*
X203643000Y-138577000D01*
X199071000Y-134894000D02*
X199071000Y-138577000D01*
X227138000Y-152166000D02*
X199071000Y-152166000D01*
X227138000Y-151281000D02*
X227138000Y-152166000D01*
X228789000Y-151281000D02*
X227138000Y-151281000D01*
X228789000Y-148610000D02*
X228789000Y-151281000D01*
X228789000Y-135910000D02*
X228789000Y-138381000D01*
X205040000Y-135910000D02*
X205040000Y-134894000D01*
X201865000Y-135910000D02*
X205040000Y-135910000D01*
X199228000Y-138547000D02*
X201865000Y-135910000D01*
X199228000Y-138577000D02*
X199228000Y-138547000D01*
X207580000Y-151150000D02*
X199071000Y-151150000D01*
X207580000Y-135910000D02*
X207580000Y-151150000D01*
X205040000Y-135910000D02*
X207580000Y-135910000D01*
X225360000Y-151277000D02*
X227299000Y-151277000D01*
X225360000Y-151150000D02*
X225360000Y-151277000D01*
X225360000Y-150007000D02*
X225360000Y-151150000D01*
X222947000Y-150007000D02*
X225360000Y-150007000D01*
X222947000Y-135910000D02*
X222947000Y-150007000D01*
X227148000Y-135910000D02*
X222947000Y-135910000D01*
X203643000Y-138577000D02*
X203643000Y-141244000D01*
X203643000Y-143149000D02*
X203643000Y-143784000D01*
X203643000Y-145689000D02*
X203643000Y-146324000D01*
X203643000Y-148610000D02*
X203643000Y-148356000D01*
X199071000Y-148610000D02*
X203643000Y-148610000D01*
X199071000Y-152166000D02*
X199071000Y-148610000D01*
X226630000Y-138381000D02*
X226630000Y-140736000D01*
X228789000Y-138381000D02*
X226630000Y-138381000D01*
X226630000Y-140736000D02*
X226630000Y-141244000D01*
X226630000Y-143276000D02*
X226630000Y-143784000D01*
X226630000Y-145816000D02*
X226630000Y-146324000D01*
X226630000Y-148610000D02*
X226630000Y-148356000D01*
X228789000Y-148610000D02*
X226630000Y-148610000D01*
D14*
X201091752Y-110647990D02*
X201091752Y-111052752D01*
X201067942Y-111100371D01*
X201044133Y-111124180D01*
X200996514Y-111147990D01*
X200901276Y-111147990D01*
X200853657Y-111124180D01*
X200829847Y-111100371D01*
X200806038Y-111052752D01*
X200806038Y-110647990D01*
X200329847Y-110647990D02*
X200567942Y-110647990D01*
X200591752Y-110886085D01*
X200567942Y-110862276D01*
X200520323Y-110838466D01*
X200401276Y-110838466D01*
X200353657Y-110862276D01*
X200329847Y-110886085D01*
X200306038Y-110933704D01*
X200306038Y-111052752D01*
X200329847Y-111100371D01*
X200353657Y-111124180D01*
X200401276Y-111147990D01*
X200520323Y-111147990D01*
X200567942Y-111124180D01*
X200591752Y-111100371D01*
X198843852Y-144403000D02*
X198891471Y-144379190D01*
X198962900Y-144379190D01*
X199034328Y-144403000D01*
X199081947Y-144450619D01*
X199105757Y-144498238D01*
X199129566Y-144593476D01*
X199129566Y-144664904D01*
X199105757Y-144760142D01*
X199081947Y-144807761D01*
X199034328Y-144855380D01*
X198962900Y-144879190D01*
X198915280Y-144879190D01*
X198843852Y-144855380D01*
X198820042Y-144831571D01*
X198820042Y-144664904D01*
X198915280Y-144664904D01*
X198605757Y-144879190D02*
X198605757Y-144379190D01*
X198320042Y-144879190D01*
X198320042Y-144379190D01*
X198081947Y-144879190D02*
X198081947Y-144379190D01*
X197962900Y-144379190D01*
X197891471Y-144403000D01*
X197843852Y-144450619D01*
X197820042Y-144498238D01*
X197796233Y-144593476D01*
X197796233Y-144664904D01*
X197820042Y-144760142D01*
X197843852Y-144807761D01*
X197891471Y-144855380D01*
X197962900Y-144879190D01*
X198081947Y-144879190D01*
X192220838Y-144391890D02*
X192458933Y-144391890D01*
X192482742Y-144629985D01*
X192458933Y-144606176D01*
X192411314Y-144582366D01*
X192292266Y-144582366D01*
X192244647Y-144606176D01*
X192220838Y-144629985D01*
X192197028Y-144677604D01*
X192197028Y-144796652D01*
X192220838Y-144844271D01*
X192244647Y-144868080D01*
X192292266Y-144891890D01*
X192411314Y-144891890D01*
X192458933Y-144868080D01*
X192482742Y-144844271D01*
X192054171Y-144391890D02*
X191887504Y-144891890D01*
X191720838Y-144391890D01*
X232294590Y-133755271D02*
X232056495Y-133588604D01*
X232294590Y-133469557D02*
X231794590Y-133469557D01*
X231794590Y-133660033D01*
X231818400Y-133707652D01*
X231842209Y-133731461D01*
X231889828Y-133755271D01*
X231961257Y-133755271D01*
X232008876Y-133731461D01*
X232032685Y-133707652D01*
X232056495Y-133660033D01*
X232056495Y-133469557D01*
X232294590Y-134231461D02*
X232294590Y-133945747D01*
X232294590Y-134088604D02*
X231794590Y-134088604D01*
X231866019Y-134040985D01*
X231913638Y-133993366D01*
X231937447Y-133945747D01*
X231961257Y-134660033D02*
X232294590Y-134660033D01*
X231770780Y-134540985D02*
X232127923Y-134421938D01*
X232127923Y-134731461D01*
X199893898Y-135321230D02*
X199893898Y-135678373D01*
X199917707Y-135749801D01*
X199965326Y-135797420D01*
X200036755Y-135821230D01*
X200084374Y-135821230D01*
X199679612Y-135368849D02*
X199655802Y-135345040D01*
X199608183Y-135321230D01*
X199489136Y-135321230D01*
X199441517Y-135345040D01*
X199417707Y-135368849D01*
X199393898Y-135416468D01*
X199393898Y-135464087D01*
X199417707Y-135535516D01*
X199703421Y-135821230D01*
X199393898Y-135821230D01*
%LPC*%
D15*
X192798700Y-113271300D03*
D16*
X202326240Y-133291580D03*
D17*
X204866240Y-133291580D03*
X207406240Y-133291580D03*
X209946240Y-133291580D03*
X212486240Y-133291580D03*
X215026240Y-133291580D03*
X217566240Y-133291580D03*
X222646240Y-133291580D03*
X225186240Y-133291580D03*
X227726240Y-133291580D03*
X227726240Y-111955580D03*
X225186240Y-111955580D03*
X222646240Y-111955580D03*
X220106240Y-111955580D03*
X217566240Y-111955580D03*
X215026240Y-111955580D03*
X212486240Y-111955580D03*
X209946240Y-111955580D03*
X207406240Y-111955580D03*
X204866240Y-111955580D03*
X220106240Y-133291580D03*
D18*
X198473060Y-146210020D03*
X192123060Y-146070320D03*
G36*
G01*
X231137500Y-133662500D02*
X230662500Y-133662500D01*
G75*
G02*
X230425000Y-133425000I0J237500D01*
G01*
X230425000Y-132925000D01*
G75*
G02*
X230662500Y-132687500I237500J0D01*
G01*
X231137500Y-132687500D01*
G75*
G02*
X231375000Y-132925000I0J-237500D01*
G01*
X231375000Y-133425000D01*
G75*
G02*
X231137500Y-133662500I-237500J0D01*
G01*
G37*
G36*
G01*
X231137500Y-135487500D02*
X230662500Y-135487500D01*
G75*
G02*
X230425000Y-135250000I0J237500D01*
G01*
X230425000Y-134750000D01*
G75*
G02*
X230662500Y-134512500I237500J0D01*
G01*
X231137500Y-134512500D01*
G75*
G02*
X231375000Y-134750000I0J-237500D01*
G01*
X231375000Y-135250000D01*
G75*
G02*
X231137500Y-135487500I-237500J0D01*
G01*
G37*
D19*
X225376740Y-123898660D03*
X227916740Y-123898660D03*
X225376740Y-126438660D03*
X227916740Y-126438660D03*
X225376740Y-128978660D03*
D20*
X227916740Y-128978660D03*
D21*
X203046000Y-142260000D03*
X203046000Y-144800000D03*
X203046000Y-147340000D03*
X227354000Y-142260000D03*
X227354000Y-144800000D03*
X227354000Y-147340000D03*
D22*
X198084060Y-150702520D03*
X192624060Y-150702520D03*
D23*
X197774060Y-147702520D03*
X192934060Y-147702520D03*
M02*
