G04 #@! TF.GenerationSoftware,KiCad,Pcbnew,5.1.10-88a1d61d58~90~ubuntu20.04.1*
G04 #@! TF.CreationDate,2021-08-08T16:04:40+03:00*
G04 #@! TF.ProjectId,GPS_keychain,4750535f-6b65-4796-9368-61696e2e6b69,rev?*
G04 #@! TF.SameCoordinates,Original*
G04 #@! TF.FileFunction,Soldermask,Top*
G04 #@! TF.FilePolarity,Negative*
%FSLAX46Y46*%
G04 Gerber Fmt 4.6, Leading zero omitted, Abs format (unit mm)*
G04 Created by KiCad (PCBNEW 5.1.10-88a1d61d58~90~ubuntu20.04.1) date 2021-08-08 16:04:40*
%MOMM*%
%LPD*%
G01*
G04 APERTURE LIST*
%ADD10C,1.700000*%
%ADD11R,1.600000X0.550000*%
%ADD12R,0.550000X1.600000*%
%ADD13R,0.800000X1.800000*%
%ADD14R,0.650000X1.060000*%
%ADD15R,0.700000X0.510000*%
%ADD16R,2.290000X3.000000*%
%ADD17C,1.000000*%
%ADD18R,0.900000X0.800000*%
%ADD19O,1.700000X1.700000*%
%ADD20R,1.700000X1.700000*%
%ADD21C,2.000000*%
%ADD22R,1.430000X2.500000*%
%ADD23O,1.350000X1.700000*%
%ADD24O,1.100000X1.500000*%
%ADD25R,0.400000X1.650000*%
%ADD26R,2.000000X1.500000*%
%ADD27R,1.825000X0.700000*%
%ADD28R,1.350000X2.000000*%
%ADD29R,1.000000X1.000000*%
%ADD30R,2.200000X1.050000*%
G04 APERTURE END LIST*
D10*
X192798700Y-113271300D03*
D11*
X213569220Y-126630660D03*
X213569220Y-125830660D03*
X213569220Y-125030660D03*
X213569220Y-124230660D03*
X213569220Y-123430660D03*
X213569220Y-122630660D03*
X213569220Y-121830660D03*
X213569220Y-121030660D03*
D12*
X215019220Y-119580660D03*
X215819220Y-119580660D03*
X216619220Y-119580660D03*
X217419220Y-119580660D03*
X218219220Y-119580660D03*
X219019220Y-119580660D03*
X219819220Y-119580660D03*
X220619220Y-119580660D03*
D11*
X222069220Y-121030660D03*
X222069220Y-121830660D03*
X222069220Y-122630660D03*
X222069220Y-123430660D03*
X222069220Y-124230660D03*
X222069220Y-125030660D03*
X222069220Y-125830660D03*
X222069220Y-126630660D03*
D12*
X220619220Y-128080660D03*
X219819220Y-128080660D03*
X219019220Y-128080660D03*
X218219220Y-128080660D03*
X217419220Y-128080660D03*
X216619220Y-128080660D03*
X215819220Y-128080660D03*
X215019220Y-128080660D03*
G36*
G01*
X213033980Y-137727840D02*
X213033980Y-137527840D01*
G75*
G02*
X213133980Y-137427840I100000J0D01*
G01*
X214408980Y-137427840D01*
G75*
G02*
X214508980Y-137527840I0J-100000D01*
G01*
X214508980Y-137727840D01*
G75*
G02*
X214408980Y-137827840I-100000J0D01*
G01*
X213133980Y-137827840D01*
G75*
G02*
X213033980Y-137727840I0J100000D01*
G01*
G37*
G36*
G01*
X213033980Y-138377840D02*
X213033980Y-138177840D01*
G75*
G02*
X213133980Y-138077840I100000J0D01*
G01*
X214408980Y-138077840D01*
G75*
G02*
X214508980Y-138177840I0J-100000D01*
G01*
X214508980Y-138377840D01*
G75*
G02*
X214408980Y-138477840I-100000J0D01*
G01*
X213133980Y-138477840D01*
G75*
G02*
X213033980Y-138377840I0J100000D01*
G01*
G37*
G36*
G01*
X213033980Y-139027840D02*
X213033980Y-138827840D01*
G75*
G02*
X213133980Y-138727840I100000J0D01*
G01*
X214408980Y-138727840D01*
G75*
G02*
X214508980Y-138827840I0J-100000D01*
G01*
X214508980Y-139027840D01*
G75*
G02*
X214408980Y-139127840I-100000J0D01*
G01*
X213133980Y-139127840D01*
G75*
G02*
X213033980Y-139027840I0J100000D01*
G01*
G37*
G36*
G01*
X213033980Y-139677840D02*
X213033980Y-139477840D01*
G75*
G02*
X213133980Y-139377840I100000J0D01*
G01*
X214408980Y-139377840D01*
G75*
G02*
X214508980Y-139477840I0J-100000D01*
G01*
X214508980Y-139677840D01*
G75*
G02*
X214408980Y-139777840I-100000J0D01*
G01*
X213133980Y-139777840D01*
G75*
G02*
X213033980Y-139677840I0J100000D01*
G01*
G37*
G36*
G01*
X207308980Y-139677840D02*
X207308980Y-139477840D01*
G75*
G02*
X207408980Y-139377840I100000J0D01*
G01*
X208683980Y-139377840D01*
G75*
G02*
X208783980Y-139477840I0J-100000D01*
G01*
X208783980Y-139677840D01*
G75*
G02*
X208683980Y-139777840I-100000J0D01*
G01*
X207408980Y-139777840D01*
G75*
G02*
X207308980Y-139677840I0J100000D01*
G01*
G37*
G36*
G01*
X207308980Y-139027840D02*
X207308980Y-138827840D01*
G75*
G02*
X207408980Y-138727840I100000J0D01*
G01*
X208683980Y-138727840D01*
G75*
G02*
X208783980Y-138827840I0J-100000D01*
G01*
X208783980Y-139027840D01*
G75*
G02*
X208683980Y-139127840I-100000J0D01*
G01*
X207408980Y-139127840D01*
G75*
G02*
X207308980Y-139027840I0J100000D01*
G01*
G37*
G36*
G01*
X207308980Y-138377840D02*
X207308980Y-138177840D01*
G75*
G02*
X207408980Y-138077840I100000J0D01*
G01*
X208683980Y-138077840D01*
G75*
G02*
X208783980Y-138177840I0J-100000D01*
G01*
X208783980Y-138377840D01*
G75*
G02*
X208683980Y-138477840I-100000J0D01*
G01*
X207408980Y-138477840D01*
G75*
G02*
X207308980Y-138377840I0J100000D01*
G01*
G37*
G36*
G01*
X207308980Y-137727840D02*
X207308980Y-137527840D01*
G75*
G02*
X207408980Y-137427840I100000J0D01*
G01*
X208683980Y-137427840D01*
G75*
G02*
X208783980Y-137527840I0J-100000D01*
G01*
X208783980Y-137727840D01*
G75*
G02*
X208683980Y-137827840I-100000J0D01*
G01*
X207408980Y-137827840D01*
G75*
G02*
X207308980Y-137727840I0J100000D01*
G01*
G37*
D13*
X216113600Y-138007840D03*
X217213600Y-138007840D03*
X218313600Y-138007840D03*
X219413600Y-138007840D03*
X220513600Y-138007840D03*
X221613600Y-138007840D03*
X222713600Y-138007840D03*
X225713600Y-138007840D03*
X226813600Y-138007840D03*
X227913600Y-138007840D03*
X229013600Y-138007840D03*
X230113600Y-138007840D03*
X230113600Y-150007840D03*
X229013600Y-150007840D03*
X227913600Y-150007840D03*
X226813600Y-150007840D03*
X225713600Y-150007840D03*
X222713600Y-150007840D03*
X221613600Y-150007840D03*
X220513600Y-150007840D03*
X219413600Y-150007840D03*
X218313600Y-150007840D03*
X217213600Y-150007840D03*
X216113600Y-150007840D03*
D14*
X201218760Y-138706680D03*
X203118760Y-138706680D03*
X203118760Y-140906680D03*
X202168760Y-140906680D03*
X201218760Y-140906680D03*
G36*
G01*
X197719800Y-133161140D02*
X197919800Y-133161140D01*
G75*
G02*
X198019800Y-133261140I0J-100000D01*
G01*
X198019800Y-134536140D01*
G75*
G02*
X197919800Y-134636140I-100000J0D01*
G01*
X197719800Y-134636140D01*
G75*
G02*
X197619800Y-134536140I0J100000D01*
G01*
X197619800Y-133261140D01*
G75*
G02*
X197719800Y-133161140I100000J0D01*
G01*
G37*
G36*
G01*
X197069800Y-133161140D02*
X197269800Y-133161140D01*
G75*
G02*
X197369800Y-133261140I0J-100000D01*
G01*
X197369800Y-134536140D01*
G75*
G02*
X197269800Y-134636140I-100000J0D01*
G01*
X197069800Y-134636140D01*
G75*
G02*
X196969800Y-134536140I0J100000D01*
G01*
X196969800Y-133261140D01*
G75*
G02*
X197069800Y-133161140I100000J0D01*
G01*
G37*
G36*
G01*
X196419800Y-133161140D02*
X196619800Y-133161140D01*
G75*
G02*
X196719800Y-133261140I0J-100000D01*
G01*
X196719800Y-134536140D01*
G75*
G02*
X196619800Y-134636140I-100000J0D01*
G01*
X196419800Y-134636140D01*
G75*
G02*
X196319800Y-134536140I0J100000D01*
G01*
X196319800Y-133261140D01*
G75*
G02*
X196419800Y-133161140I100000J0D01*
G01*
G37*
G36*
G01*
X195769800Y-133161140D02*
X195969800Y-133161140D01*
G75*
G02*
X196069800Y-133261140I0J-100000D01*
G01*
X196069800Y-134536140D01*
G75*
G02*
X195969800Y-134636140I-100000J0D01*
G01*
X195769800Y-134636140D01*
G75*
G02*
X195669800Y-134536140I0J100000D01*
G01*
X195669800Y-133261140D01*
G75*
G02*
X195769800Y-133161140I100000J0D01*
G01*
G37*
G36*
G01*
X195769800Y-127436140D02*
X195969800Y-127436140D01*
G75*
G02*
X196069800Y-127536140I0J-100000D01*
G01*
X196069800Y-128811140D01*
G75*
G02*
X195969800Y-128911140I-100000J0D01*
G01*
X195769800Y-128911140D01*
G75*
G02*
X195669800Y-128811140I0J100000D01*
G01*
X195669800Y-127536140D01*
G75*
G02*
X195769800Y-127436140I100000J0D01*
G01*
G37*
G36*
G01*
X196419800Y-127436140D02*
X196619800Y-127436140D01*
G75*
G02*
X196719800Y-127536140I0J-100000D01*
G01*
X196719800Y-128811140D01*
G75*
G02*
X196619800Y-128911140I-100000J0D01*
G01*
X196419800Y-128911140D01*
G75*
G02*
X196319800Y-128811140I0J100000D01*
G01*
X196319800Y-127536140D01*
G75*
G02*
X196419800Y-127436140I100000J0D01*
G01*
G37*
G36*
G01*
X197069800Y-127436140D02*
X197269800Y-127436140D01*
G75*
G02*
X197369800Y-127536140I0J-100000D01*
G01*
X197369800Y-128811140D01*
G75*
G02*
X197269800Y-128911140I-100000J0D01*
G01*
X197069800Y-128911140D01*
G75*
G02*
X196969800Y-128811140I0J100000D01*
G01*
X196969800Y-127536140D01*
G75*
G02*
X197069800Y-127436140I100000J0D01*
G01*
G37*
G36*
G01*
X197719800Y-127436140D02*
X197919800Y-127436140D01*
G75*
G02*
X198019800Y-127536140I0J-100000D01*
G01*
X198019800Y-128811140D01*
G75*
G02*
X197919800Y-128911140I-100000J0D01*
G01*
X197719800Y-128911140D01*
G75*
G02*
X197619800Y-128811140I0J100000D01*
G01*
X197619800Y-127536140D01*
G75*
G02*
X197719800Y-127436140I100000J0D01*
G01*
G37*
D15*
X194487800Y-132161240D03*
X194487800Y-133111240D03*
X194487800Y-134061240D03*
X192167800Y-134061240D03*
X192167800Y-133111240D03*
X192167800Y-132161240D03*
D16*
X195458080Y-142189200D03*
G36*
G01*
X196958080Y-140434200D02*
X196958080Y-140134200D01*
G75*
G02*
X197108080Y-139984200I150000J0D01*
G01*
X198758080Y-139984200D01*
G75*
G02*
X198908080Y-140134200I0J-150000D01*
G01*
X198908080Y-140434200D01*
G75*
G02*
X198758080Y-140584200I-150000J0D01*
G01*
X197108080Y-140584200D01*
G75*
G02*
X196958080Y-140434200I0J150000D01*
G01*
G37*
G36*
G01*
X196958080Y-141704200D02*
X196958080Y-141404200D01*
G75*
G02*
X197108080Y-141254200I150000J0D01*
G01*
X198758080Y-141254200D01*
G75*
G02*
X198908080Y-141404200I0J-150000D01*
G01*
X198908080Y-141704200D01*
G75*
G02*
X198758080Y-141854200I-150000J0D01*
G01*
X197108080Y-141854200D01*
G75*
G02*
X196958080Y-141704200I0J150000D01*
G01*
G37*
G36*
G01*
X196958080Y-142974200D02*
X196958080Y-142674200D01*
G75*
G02*
X197108080Y-142524200I150000J0D01*
G01*
X198758080Y-142524200D01*
G75*
G02*
X198908080Y-142674200I0J-150000D01*
G01*
X198908080Y-142974200D01*
G75*
G02*
X198758080Y-143124200I-150000J0D01*
G01*
X197108080Y-143124200D01*
G75*
G02*
X196958080Y-142974200I0J150000D01*
G01*
G37*
G36*
G01*
X196958080Y-144244200D02*
X196958080Y-143944200D01*
G75*
G02*
X197108080Y-143794200I150000J0D01*
G01*
X198758080Y-143794200D01*
G75*
G02*
X198908080Y-143944200I0J-150000D01*
G01*
X198908080Y-144244200D01*
G75*
G02*
X198758080Y-144394200I-150000J0D01*
G01*
X197108080Y-144394200D01*
G75*
G02*
X196958080Y-144244200I0J150000D01*
G01*
G37*
G36*
G01*
X192008080Y-144244200D02*
X192008080Y-143944200D01*
G75*
G02*
X192158080Y-143794200I150000J0D01*
G01*
X193808080Y-143794200D01*
G75*
G02*
X193958080Y-143944200I0J-150000D01*
G01*
X193958080Y-144244200D01*
G75*
G02*
X193808080Y-144394200I-150000J0D01*
G01*
X192158080Y-144394200D01*
G75*
G02*
X192008080Y-144244200I0J150000D01*
G01*
G37*
G36*
G01*
X192008080Y-142974200D02*
X192008080Y-142674200D01*
G75*
G02*
X192158080Y-142524200I150000J0D01*
G01*
X193808080Y-142524200D01*
G75*
G02*
X193958080Y-142674200I0J-150000D01*
G01*
X193958080Y-142974200D01*
G75*
G02*
X193808080Y-143124200I-150000J0D01*
G01*
X192158080Y-143124200D01*
G75*
G02*
X192008080Y-142974200I0J150000D01*
G01*
G37*
G36*
G01*
X192008080Y-141704200D02*
X192008080Y-141404200D01*
G75*
G02*
X192158080Y-141254200I150000J0D01*
G01*
X193808080Y-141254200D01*
G75*
G02*
X193958080Y-141404200I0J-150000D01*
G01*
X193958080Y-141704200D01*
G75*
G02*
X193808080Y-141854200I-150000J0D01*
G01*
X192158080Y-141854200D01*
G75*
G02*
X192008080Y-141704200I0J150000D01*
G01*
G37*
G36*
G01*
X192008080Y-140434200D02*
X192008080Y-140134200D01*
G75*
G02*
X192158080Y-139984200I150000J0D01*
G01*
X193808080Y-139984200D01*
G75*
G02*
X193958080Y-140134200I0J-150000D01*
G01*
X193958080Y-140434200D01*
G75*
G02*
X193808080Y-140584200I-150000J0D01*
G01*
X192158080Y-140584200D01*
G75*
G02*
X192008080Y-140434200I0J150000D01*
G01*
G37*
D17*
X211421980Y-125826520D03*
X209745580Y-124747020D03*
X231609900Y-112268000D03*
X212407500Y-119621300D03*
X229425500Y-118465600D03*
X227609400Y-116928900D03*
X219415360Y-133672580D03*
X220515180Y-135613140D03*
X206006700Y-122339100D03*
X196507100Y-119430800D03*
X201307700Y-137020300D03*
X191604900Y-116852700D03*
G36*
G01*
X226392560Y-133356340D02*
X226392560Y-133831340D01*
G75*
G02*
X226155060Y-134068840I-237500J0D01*
G01*
X225655060Y-134068840D01*
G75*
G02*
X225417560Y-133831340I0J237500D01*
G01*
X225417560Y-133356340D01*
G75*
G02*
X225655060Y-133118840I237500J0D01*
G01*
X226155060Y-133118840D01*
G75*
G02*
X226392560Y-133356340I0J-237500D01*
G01*
G37*
G36*
G01*
X228217560Y-133356340D02*
X228217560Y-133831340D01*
G75*
G02*
X227980060Y-134068840I-237500J0D01*
G01*
X227480060Y-134068840D01*
G75*
G02*
X227242560Y-133831340I0J237500D01*
G01*
X227242560Y-133356340D01*
G75*
G02*
X227480060Y-133118840I237500J0D01*
G01*
X227980060Y-133118840D01*
G75*
G02*
X228217560Y-133356340I0J-237500D01*
G01*
G37*
G36*
G01*
X223683380Y-135743960D02*
X223683380Y-135268960D01*
G75*
G02*
X223920880Y-135031460I237500J0D01*
G01*
X224420880Y-135031460D01*
G75*
G02*
X224658380Y-135268960I0J-237500D01*
G01*
X224658380Y-135743960D01*
G75*
G02*
X224420880Y-135981460I-237500J0D01*
G01*
X223920880Y-135981460D01*
G75*
G02*
X223683380Y-135743960I0J237500D01*
G01*
G37*
G36*
G01*
X221858380Y-135743960D02*
X221858380Y-135268960D01*
G75*
G02*
X222095880Y-135031460I237500J0D01*
G01*
X222595880Y-135031460D01*
G75*
G02*
X222833380Y-135268960I0J-237500D01*
G01*
X222833380Y-135743960D01*
G75*
G02*
X222595880Y-135981460I-237500J0D01*
G01*
X222095880Y-135981460D01*
G75*
G02*
X221858380Y-135743960I0J237500D01*
G01*
G37*
G36*
G01*
X208154280Y-124767160D02*
X207679280Y-124767160D01*
G75*
G02*
X207441780Y-124529660I0J237500D01*
G01*
X207441780Y-124029660D01*
G75*
G02*
X207679280Y-123792160I237500J0D01*
G01*
X208154280Y-123792160D01*
G75*
G02*
X208391780Y-124029660I0J-237500D01*
G01*
X208391780Y-124529660D01*
G75*
G02*
X208154280Y-124767160I-237500J0D01*
G01*
G37*
G36*
G01*
X208154280Y-126592160D02*
X207679280Y-126592160D01*
G75*
G02*
X207441780Y-126354660I0J237500D01*
G01*
X207441780Y-125854660D01*
G75*
G02*
X207679280Y-125617160I237500J0D01*
G01*
X208154280Y-125617160D01*
G75*
G02*
X208391780Y-125854660I0J-237500D01*
G01*
X208391780Y-126354660D01*
G75*
G02*
X208154280Y-126592160I-237500J0D01*
G01*
G37*
G36*
G01*
X192773480Y-120958620D02*
X192773480Y-120483620D01*
G75*
G02*
X193010980Y-120246120I237500J0D01*
G01*
X193510980Y-120246120D01*
G75*
G02*
X193748480Y-120483620I0J-237500D01*
G01*
X193748480Y-120958620D01*
G75*
G02*
X193510980Y-121196120I-237500J0D01*
G01*
X193010980Y-121196120D01*
G75*
G02*
X192773480Y-120958620I0J237500D01*
G01*
G37*
G36*
G01*
X190948480Y-120958620D02*
X190948480Y-120483620D01*
G75*
G02*
X191185980Y-120246120I237500J0D01*
G01*
X191685980Y-120246120D01*
G75*
G02*
X191923480Y-120483620I0J-237500D01*
G01*
X191923480Y-120958620D01*
G75*
G02*
X191685980Y-121196120I-237500J0D01*
G01*
X191185980Y-121196120D01*
G75*
G02*
X190948480Y-120958620I0J237500D01*
G01*
G37*
G36*
G01*
X191976820Y-122632460D02*
X191976820Y-123107460D01*
G75*
G02*
X191739320Y-123344960I-237500J0D01*
G01*
X191239320Y-123344960D01*
G75*
G02*
X191001820Y-123107460I0J237500D01*
G01*
X191001820Y-122632460D01*
G75*
G02*
X191239320Y-122394960I237500J0D01*
G01*
X191739320Y-122394960D01*
G75*
G02*
X191976820Y-122632460I0J-237500D01*
G01*
G37*
G36*
G01*
X193801820Y-122632460D02*
X193801820Y-123107460D01*
G75*
G02*
X193564320Y-123344960I-237500J0D01*
G01*
X193064320Y-123344960D01*
G75*
G02*
X192826820Y-123107460I0J237500D01*
G01*
X192826820Y-122632460D01*
G75*
G02*
X193064320Y-122394960I237500J0D01*
G01*
X193564320Y-122394960D01*
G75*
G02*
X193801820Y-122632460I0J-237500D01*
G01*
G37*
G36*
G01*
X229197080Y-121387880D02*
X229197080Y-120912880D01*
G75*
G02*
X229434580Y-120675380I237500J0D01*
G01*
X229934580Y-120675380D01*
G75*
G02*
X230172080Y-120912880I0J-237500D01*
G01*
X230172080Y-121387880D01*
G75*
G02*
X229934580Y-121625380I-237500J0D01*
G01*
X229434580Y-121625380D01*
G75*
G02*
X229197080Y-121387880I0J237500D01*
G01*
G37*
G36*
G01*
X227372080Y-121387880D02*
X227372080Y-120912880D01*
G75*
G02*
X227609580Y-120675380I237500J0D01*
G01*
X228109580Y-120675380D01*
G75*
G02*
X228347080Y-120912880I0J-237500D01*
G01*
X228347080Y-121387880D01*
G75*
G02*
X228109580Y-121625380I-237500J0D01*
G01*
X227609580Y-121625380D01*
G75*
G02*
X227372080Y-121387880I0J237500D01*
G01*
G37*
G36*
G01*
X231463840Y-129433500D02*
X231938840Y-129433500D01*
G75*
G02*
X232176340Y-129671000I0J-237500D01*
G01*
X232176340Y-130171000D01*
G75*
G02*
X231938840Y-130408500I-237500J0D01*
G01*
X231463840Y-130408500D01*
G75*
G02*
X231226340Y-130171000I0J237500D01*
G01*
X231226340Y-129671000D01*
G75*
G02*
X231463840Y-129433500I237500J0D01*
G01*
G37*
G36*
G01*
X231463840Y-127608500D02*
X231938840Y-127608500D01*
G75*
G02*
X232176340Y-127846000I0J-237500D01*
G01*
X232176340Y-128346000D01*
G75*
G02*
X231938840Y-128583500I-237500J0D01*
G01*
X231463840Y-128583500D01*
G75*
G02*
X231226340Y-128346000I0J237500D01*
G01*
X231226340Y-127846000D01*
G75*
G02*
X231463840Y-127608500I237500J0D01*
G01*
G37*
G36*
G01*
X206497100Y-133206500D02*
X206497100Y-132731500D01*
G75*
G02*
X206734600Y-132494000I237500J0D01*
G01*
X207234600Y-132494000D01*
G75*
G02*
X207472100Y-132731500I0J-237500D01*
G01*
X207472100Y-133206500D01*
G75*
G02*
X207234600Y-133444000I-237500J0D01*
G01*
X206734600Y-133444000D01*
G75*
G02*
X206497100Y-133206500I0J237500D01*
G01*
G37*
G36*
G01*
X204672100Y-133206500D02*
X204672100Y-132731500D01*
G75*
G02*
X204909600Y-132494000I237500J0D01*
G01*
X205409600Y-132494000D01*
G75*
G02*
X205647100Y-132731500I0J-237500D01*
G01*
X205647100Y-133206500D01*
G75*
G02*
X205409600Y-133444000I-237500J0D01*
G01*
X204909600Y-133444000D01*
G75*
G02*
X204672100Y-133206500I0J237500D01*
G01*
G37*
G36*
G01*
X203127600Y-134551600D02*
X203602600Y-134551600D01*
G75*
G02*
X203840100Y-134789100I0J-237500D01*
G01*
X203840100Y-135289100D01*
G75*
G02*
X203602600Y-135526600I-237500J0D01*
G01*
X203127600Y-135526600D01*
G75*
G02*
X202890100Y-135289100I0J237500D01*
G01*
X202890100Y-134789100D01*
G75*
G02*
X203127600Y-134551600I237500J0D01*
G01*
G37*
G36*
G01*
X203127600Y-132726600D02*
X203602600Y-132726600D01*
G75*
G02*
X203840100Y-132964100I0J-237500D01*
G01*
X203840100Y-133464100D01*
G75*
G02*
X203602600Y-133701600I-237500J0D01*
G01*
X203127600Y-133701600D01*
G75*
G02*
X202890100Y-133464100I0J237500D01*
G01*
X202890100Y-132964100D01*
G75*
G02*
X203127600Y-132726600I237500J0D01*
G01*
G37*
G36*
G01*
X202953800Y-128571000D02*
X202953800Y-128096000D01*
G75*
G02*
X203191300Y-127858500I237500J0D01*
G01*
X203691300Y-127858500D01*
G75*
G02*
X203928800Y-128096000I0J-237500D01*
G01*
X203928800Y-128571000D01*
G75*
G02*
X203691300Y-128808500I-237500J0D01*
G01*
X203191300Y-128808500D01*
G75*
G02*
X202953800Y-128571000I0J237500D01*
G01*
G37*
G36*
G01*
X201128800Y-128571000D02*
X201128800Y-128096000D01*
G75*
G02*
X201366300Y-127858500I237500J0D01*
G01*
X201866300Y-127858500D01*
G75*
G02*
X202103800Y-128096000I0J-237500D01*
G01*
X202103800Y-128571000D01*
G75*
G02*
X201866300Y-128808500I-237500J0D01*
G01*
X201366300Y-128808500D01*
G75*
G02*
X201128800Y-128571000I0J237500D01*
G01*
G37*
G36*
G01*
X202953800Y-130120400D02*
X202953800Y-129645400D01*
G75*
G02*
X203191300Y-129407900I237500J0D01*
G01*
X203691300Y-129407900D01*
G75*
G02*
X203928800Y-129645400I0J-237500D01*
G01*
X203928800Y-130120400D01*
G75*
G02*
X203691300Y-130357900I-237500J0D01*
G01*
X203191300Y-130357900D01*
G75*
G02*
X202953800Y-130120400I0J237500D01*
G01*
G37*
G36*
G01*
X201128800Y-130120400D02*
X201128800Y-129645400D01*
G75*
G02*
X201366300Y-129407900I237500J0D01*
G01*
X201866300Y-129407900D01*
G75*
G02*
X202103800Y-129645400I0J-237500D01*
G01*
X202103800Y-130120400D01*
G75*
G02*
X201866300Y-130357900I-237500J0D01*
G01*
X201366300Y-130357900D01*
G75*
G02*
X201128800Y-130120400I0J237500D01*
G01*
G37*
G36*
G01*
X209224700Y-129416800D02*
X209224700Y-129891800D01*
G75*
G02*
X208987200Y-130129300I-237500J0D01*
G01*
X208487200Y-130129300D01*
G75*
G02*
X208249700Y-129891800I0J237500D01*
G01*
X208249700Y-129416800D01*
G75*
G02*
X208487200Y-129179300I237500J0D01*
G01*
X208987200Y-129179300D01*
G75*
G02*
X209224700Y-129416800I0J-237500D01*
G01*
G37*
G36*
G01*
X211049700Y-129416800D02*
X211049700Y-129891800D01*
G75*
G02*
X210812200Y-130129300I-237500J0D01*
G01*
X210312200Y-130129300D01*
G75*
G02*
X210074700Y-129891800I0J237500D01*
G01*
X210074700Y-129416800D01*
G75*
G02*
X210312200Y-129179300I237500J0D01*
G01*
X210812200Y-129179300D01*
G75*
G02*
X211049700Y-129416800I0J-237500D01*
G01*
G37*
G36*
G01*
X206354860Y-151905980D02*
X206354860Y-151430980D01*
G75*
G02*
X206592360Y-151193480I237500J0D01*
G01*
X207092360Y-151193480D01*
G75*
G02*
X207329860Y-151430980I0J-237500D01*
G01*
X207329860Y-151905980D01*
G75*
G02*
X207092360Y-152143480I-237500J0D01*
G01*
X206592360Y-152143480D01*
G75*
G02*
X206354860Y-151905980I0J237500D01*
G01*
G37*
G36*
G01*
X204529860Y-151905980D02*
X204529860Y-151430980D01*
G75*
G02*
X204767360Y-151193480I237500J0D01*
G01*
X205267360Y-151193480D01*
G75*
G02*
X205504860Y-151430980I0J-237500D01*
G01*
X205504860Y-151905980D01*
G75*
G02*
X205267360Y-152143480I-237500J0D01*
G01*
X204767360Y-152143480D01*
G75*
G02*
X204529860Y-151905980I0J237500D01*
G01*
G37*
G36*
G01*
X213464960Y-150366740D02*
X213464960Y-149891740D01*
G75*
G02*
X213702460Y-149654240I237500J0D01*
G01*
X214202460Y-149654240D01*
G75*
G02*
X214439960Y-149891740I0J-237500D01*
G01*
X214439960Y-150366740D01*
G75*
G02*
X214202460Y-150604240I-237500J0D01*
G01*
X213702460Y-150604240D01*
G75*
G02*
X213464960Y-150366740I0J237500D01*
G01*
G37*
G36*
G01*
X211639960Y-150366740D02*
X211639960Y-149891740D01*
G75*
G02*
X211877460Y-149654240I237500J0D01*
G01*
X212377460Y-149654240D01*
G75*
G02*
X212614960Y-149891740I0J-237500D01*
G01*
X212614960Y-150366740D01*
G75*
G02*
X212377460Y-150604240I-237500J0D01*
G01*
X211877460Y-150604240D01*
G75*
G02*
X211639960Y-150366740I0J237500D01*
G01*
G37*
G36*
G01*
X216697740Y-115129320D02*
X216697740Y-114654320D01*
G75*
G02*
X216935240Y-114416820I237500J0D01*
G01*
X217435240Y-114416820D01*
G75*
G02*
X217672740Y-114654320I0J-237500D01*
G01*
X217672740Y-115129320D01*
G75*
G02*
X217435240Y-115366820I-237500J0D01*
G01*
X216935240Y-115366820D01*
G75*
G02*
X216697740Y-115129320I0J237500D01*
G01*
G37*
G36*
G01*
X214872740Y-115129320D02*
X214872740Y-114654320D01*
G75*
G02*
X215110240Y-114416820I237500J0D01*
G01*
X215610240Y-114416820D01*
G75*
G02*
X215847740Y-114654320I0J-237500D01*
G01*
X215847740Y-115129320D01*
G75*
G02*
X215610240Y-115366820I-237500J0D01*
G01*
X215110240Y-115366820D01*
G75*
G02*
X214872740Y-115129320I0J237500D01*
G01*
G37*
G36*
G01*
X204143600Y-118384500D02*
X204618600Y-118384500D01*
G75*
G02*
X204856100Y-118622000I0J-237500D01*
G01*
X204856100Y-119122000D01*
G75*
G02*
X204618600Y-119359500I-237500J0D01*
G01*
X204143600Y-119359500D01*
G75*
G02*
X203906100Y-119122000I0J237500D01*
G01*
X203906100Y-118622000D01*
G75*
G02*
X204143600Y-118384500I237500J0D01*
G01*
G37*
G36*
G01*
X204143600Y-116559500D02*
X204618600Y-116559500D01*
G75*
G02*
X204856100Y-116797000I0J-237500D01*
G01*
X204856100Y-117297000D01*
G75*
G02*
X204618600Y-117534500I-237500J0D01*
G01*
X204143600Y-117534500D01*
G75*
G02*
X203906100Y-117297000I0J237500D01*
G01*
X203906100Y-116797000D01*
G75*
G02*
X204143600Y-116559500I237500J0D01*
G01*
G37*
G36*
G01*
X224152640Y-115408720D02*
X224152640Y-114933720D01*
G75*
G02*
X224390140Y-114696220I237500J0D01*
G01*
X224890140Y-114696220D01*
G75*
G02*
X225127640Y-114933720I0J-237500D01*
G01*
X225127640Y-115408720D01*
G75*
G02*
X224890140Y-115646220I-237500J0D01*
G01*
X224390140Y-115646220D01*
G75*
G02*
X224152640Y-115408720I0J237500D01*
G01*
G37*
G36*
G01*
X222327640Y-115408720D02*
X222327640Y-114933720D01*
G75*
G02*
X222565140Y-114696220I237500J0D01*
G01*
X223065140Y-114696220D01*
G75*
G02*
X223302640Y-114933720I0J-237500D01*
G01*
X223302640Y-115408720D01*
G75*
G02*
X223065140Y-115646220I-237500J0D01*
G01*
X222565140Y-115646220D01*
G75*
G02*
X222327640Y-115408720I0J237500D01*
G01*
G37*
G36*
G01*
X223987540Y-116902240D02*
X223987540Y-116427240D01*
G75*
G02*
X224225040Y-116189740I237500J0D01*
G01*
X224725040Y-116189740D01*
G75*
G02*
X224962540Y-116427240I0J-237500D01*
G01*
X224962540Y-116902240D01*
G75*
G02*
X224725040Y-117139740I-237500J0D01*
G01*
X224225040Y-117139740D01*
G75*
G02*
X223987540Y-116902240I0J237500D01*
G01*
G37*
G36*
G01*
X222162540Y-116902240D02*
X222162540Y-116427240D01*
G75*
G02*
X222400040Y-116189740I237500J0D01*
G01*
X222900040Y-116189740D01*
G75*
G02*
X223137540Y-116427240I0J-237500D01*
G01*
X223137540Y-116902240D01*
G75*
G02*
X222900040Y-117139740I-237500J0D01*
G01*
X222400040Y-117139740D01*
G75*
G02*
X222162540Y-116902240I0J237500D01*
G01*
G37*
G36*
G01*
X230991400Y-118460700D02*
X231466400Y-118460700D01*
G75*
G02*
X231703900Y-118698200I0J-237500D01*
G01*
X231703900Y-119198200D01*
G75*
G02*
X231466400Y-119435700I-237500J0D01*
G01*
X230991400Y-119435700D01*
G75*
G02*
X230753900Y-119198200I0J237500D01*
G01*
X230753900Y-118698200D01*
G75*
G02*
X230991400Y-118460700I237500J0D01*
G01*
G37*
G36*
G01*
X230991400Y-116635700D02*
X231466400Y-116635700D01*
G75*
G02*
X231703900Y-116873200I0J-237500D01*
G01*
X231703900Y-117373200D01*
G75*
G02*
X231466400Y-117610700I-237500J0D01*
G01*
X230991400Y-117610700D01*
G75*
G02*
X230753900Y-117373200I0J237500D01*
G01*
X230753900Y-116873200D01*
G75*
G02*
X230991400Y-116635700I237500J0D01*
G01*
G37*
G36*
G01*
X205328340Y-140854420D02*
X205328340Y-141329420D01*
G75*
G02*
X205090840Y-141566920I-237500J0D01*
G01*
X204590840Y-141566920D01*
G75*
G02*
X204353340Y-141329420I0J237500D01*
G01*
X204353340Y-140854420D01*
G75*
G02*
X204590840Y-140616920I237500J0D01*
G01*
X205090840Y-140616920D01*
G75*
G02*
X205328340Y-140854420I0J-237500D01*
G01*
G37*
G36*
G01*
X207153340Y-140854420D02*
X207153340Y-141329420D01*
G75*
G02*
X206915840Y-141566920I-237500J0D01*
G01*
X206415840Y-141566920D01*
G75*
G02*
X206178340Y-141329420I0J237500D01*
G01*
X206178340Y-140854420D01*
G75*
G02*
X206415840Y-140616920I237500J0D01*
G01*
X206915840Y-140616920D01*
G75*
G02*
X207153340Y-140854420I0J-237500D01*
G01*
G37*
G36*
G01*
X199152500Y-133665140D02*
X199627500Y-133665140D01*
G75*
G02*
X199865000Y-133902640I0J-237500D01*
G01*
X199865000Y-134402640D01*
G75*
G02*
X199627500Y-134640140I-237500J0D01*
G01*
X199152500Y-134640140D01*
G75*
G02*
X198915000Y-134402640I0J237500D01*
G01*
X198915000Y-133902640D01*
G75*
G02*
X199152500Y-133665140I237500J0D01*
G01*
G37*
G36*
G01*
X199152500Y-131840140D02*
X199627500Y-131840140D01*
G75*
G02*
X199865000Y-132077640I0J-237500D01*
G01*
X199865000Y-132577640D01*
G75*
G02*
X199627500Y-132815140I-237500J0D01*
G01*
X199152500Y-132815140D01*
G75*
G02*
X198915000Y-132577640I0J237500D01*
G01*
X198915000Y-132077640D01*
G75*
G02*
X199152500Y-131840140I237500J0D01*
G01*
G37*
G36*
G01*
X192902660Y-130303260D02*
X192902660Y-130778260D01*
G75*
G02*
X192665160Y-131015760I-237500J0D01*
G01*
X192165160Y-131015760D01*
G75*
G02*
X191927660Y-130778260I0J237500D01*
G01*
X191927660Y-130303260D01*
G75*
G02*
X192165160Y-130065760I237500J0D01*
G01*
X192665160Y-130065760D01*
G75*
G02*
X192902660Y-130303260I0J-237500D01*
G01*
G37*
G36*
G01*
X194727660Y-130303260D02*
X194727660Y-130778260D01*
G75*
G02*
X194490160Y-131015760I-237500J0D01*
G01*
X193990160Y-131015760D01*
G75*
G02*
X193752660Y-130778260I0J237500D01*
G01*
X193752660Y-130303260D01*
G75*
G02*
X193990160Y-130065760I237500J0D01*
G01*
X194490160Y-130065760D01*
G75*
G02*
X194727660Y-130303260I0J-237500D01*
G01*
G37*
G36*
G01*
X191392820Y-141791500D02*
X190917820Y-141791500D01*
G75*
G02*
X190680320Y-141554000I0J237500D01*
G01*
X190680320Y-141054000D01*
G75*
G02*
X190917820Y-140816500I237500J0D01*
G01*
X191392820Y-140816500D01*
G75*
G02*
X191630320Y-141054000I0J-237500D01*
G01*
X191630320Y-141554000D01*
G75*
G02*
X191392820Y-141791500I-237500J0D01*
G01*
G37*
G36*
G01*
X191392820Y-143616500D02*
X190917820Y-143616500D01*
G75*
G02*
X190680320Y-143379000I0J237500D01*
G01*
X190680320Y-142879000D01*
G75*
G02*
X190917820Y-142641500I237500J0D01*
G01*
X191392820Y-142641500D01*
G75*
G02*
X191630320Y-142879000I0J-237500D01*
G01*
X191630320Y-143379000D01*
G75*
G02*
X191392820Y-143616500I-237500J0D01*
G01*
G37*
G36*
G01*
X197877420Y-137769780D02*
X198352420Y-137769780D01*
G75*
G02*
X198589920Y-138007280I0J-237500D01*
G01*
X198589920Y-138507280D01*
G75*
G02*
X198352420Y-138744780I-237500J0D01*
G01*
X197877420Y-138744780D01*
G75*
G02*
X197639920Y-138507280I0J237500D01*
G01*
X197639920Y-138007280D01*
G75*
G02*
X197877420Y-137769780I237500J0D01*
G01*
G37*
G36*
G01*
X197877420Y-135944780D02*
X198352420Y-135944780D01*
G75*
G02*
X198589920Y-136182280I0J-237500D01*
G01*
X198589920Y-136682280D01*
G75*
G02*
X198352420Y-136919780I-237500J0D01*
G01*
X197877420Y-136919780D01*
G75*
G02*
X197639920Y-136682280I0J237500D01*
G01*
X197639920Y-136182280D01*
G75*
G02*
X197877420Y-135944780I237500J0D01*
G01*
G37*
G36*
G01*
X194296020Y-137734220D02*
X194771020Y-137734220D01*
G75*
G02*
X195008520Y-137971720I0J-237500D01*
G01*
X195008520Y-138471720D01*
G75*
G02*
X194771020Y-138709220I-237500J0D01*
G01*
X194296020Y-138709220D01*
G75*
G02*
X194058520Y-138471720I0J237500D01*
G01*
X194058520Y-137971720D01*
G75*
G02*
X194296020Y-137734220I237500J0D01*
G01*
G37*
G36*
G01*
X194296020Y-135909220D02*
X194771020Y-135909220D01*
G75*
G02*
X195008520Y-136146720I0J-237500D01*
G01*
X195008520Y-136646720D01*
G75*
G02*
X194771020Y-136884220I-237500J0D01*
G01*
X194296020Y-136884220D01*
G75*
G02*
X194058520Y-136646720I0J237500D01*
G01*
X194058520Y-136146720D01*
G75*
G02*
X194296020Y-135909220I237500J0D01*
G01*
G37*
D18*
X210661000Y-132184100D03*
X208661000Y-133134100D03*
X208661000Y-131234100D03*
X207048100Y-129273300D03*
X205048100Y-130223300D03*
X205048100Y-128323300D03*
G36*
G01*
X206286880Y-150438601D02*
X206286880Y-149738599D01*
G75*
G02*
X206536879Y-149488600I249999J0D01*
G01*
X207086881Y-149488600D01*
G75*
G02*
X207336880Y-149738599I0J-249999D01*
G01*
X207336880Y-150438601D01*
G75*
G02*
X207086881Y-150688600I-249999J0D01*
G01*
X206536879Y-150688600D01*
G75*
G02*
X206286880Y-150438601I0J249999D01*
G01*
G37*
G36*
G01*
X203986880Y-150438601D02*
X203986880Y-149738599D01*
G75*
G02*
X204236879Y-149488600I249999J0D01*
G01*
X204786881Y-149488600D01*
G75*
G02*
X205036880Y-149738599I0J-249999D01*
G01*
X205036880Y-150438601D01*
G75*
G02*
X204786881Y-150688600I-249999J0D01*
G01*
X204236879Y-150688600D01*
G75*
G02*
X203986880Y-150438601I0J249999D01*
G01*
G37*
D19*
X225376740Y-123898660D03*
X227916740Y-123898660D03*
X225376740Y-126438660D03*
X227916740Y-126438660D03*
X225376740Y-128978660D03*
D20*
X227916740Y-128978660D03*
D21*
X196819520Y-125674120D03*
X193314320Y-125577600D03*
D22*
X196314060Y-150972520D03*
X194394060Y-150972520D03*
D23*
X198084060Y-150702520D03*
X192624060Y-150702520D03*
D24*
X197774060Y-147702520D03*
X192934060Y-147702520D03*
D25*
X196654060Y-147822520D03*
X196004060Y-147822520D03*
X195354060Y-147822520D03*
X194704060Y-147822520D03*
X194054060Y-147822520D03*
D26*
X198254060Y-147702520D03*
X192504060Y-147722520D03*
D27*
X198354060Y-149022520D03*
X192404060Y-149022520D03*
D28*
X192624060Y-149772520D03*
X198104060Y-149772520D03*
G36*
G01*
X209862120Y-142366840D02*
X209862120Y-143616840D01*
G75*
G02*
X209612120Y-143866840I-250000J0D01*
G01*
X208687120Y-143866840D01*
G75*
G02*
X208437120Y-143616840I0J250000D01*
G01*
X208437120Y-142366840D01*
G75*
G02*
X208687120Y-142116840I250000J0D01*
G01*
X209612120Y-142116840D01*
G75*
G02*
X209862120Y-142366840I0J-250000D01*
G01*
G37*
G36*
G01*
X212837120Y-142366840D02*
X212837120Y-143616840D01*
G75*
G02*
X212587120Y-143866840I-250000J0D01*
G01*
X211662120Y-143866840D01*
G75*
G02*
X211412120Y-143616840I0J250000D01*
G01*
X211412120Y-142366840D01*
G75*
G02*
X211662120Y-142116840I250000J0D01*
G01*
X212587120Y-142116840D01*
G75*
G02*
X212837120Y-142366840I0J-250000D01*
G01*
G37*
G36*
G01*
X224591900Y-132017440D02*
X223641900Y-132017440D01*
G75*
G02*
X223391900Y-131767440I0J250000D01*
G01*
X223391900Y-131092440D01*
G75*
G02*
X223641900Y-130842440I250000J0D01*
G01*
X224591900Y-130842440D01*
G75*
G02*
X224841900Y-131092440I0J-250000D01*
G01*
X224841900Y-131767440D01*
G75*
G02*
X224591900Y-132017440I-250000J0D01*
G01*
G37*
G36*
G01*
X224591900Y-134092440D02*
X223641900Y-134092440D01*
G75*
G02*
X223391900Y-133842440I0J250000D01*
G01*
X223391900Y-133167440D01*
G75*
G02*
X223641900Y-132917440I250000J0D01*
G01*
X224591900Y-132917440D01*
G75*
G02*
X224841900Y-133167440I0J-250000D01*
G01*
X224841900Y-133842440D01*
G75*
G02*
X224591900Y-134092440I-250000J0D01*
G01*
G37*
G36*
G01*
X222631020Y-132014900D02*
X221681020Y-132014900D01*
G75*
G02*
X221431020Y-131764900I0J250000D01*
G01*
X221431020Y-131089900D01*
G75*
G02*
X221681020Y-130839900I250000J0D01*
G01*
X222631020Y-130839900D01*
G75*
G02*
X222881020Y-131089900I0J-250000D01*
G01*
X222881020Y-131764900D01*
G75*
G02*
X222631020Y-132014900I-250000J0D01*
G01*
G37*
G36*
G01*
X222631020Y-134089900D02*
X221681020Y-134089900D01*
G75*
G02*
X221431020Y-133839900I0J250000D01*
G01*
X221431020Y-133164900D01*
G75*
G02*
X221681020Y-132914900I250000J0D01*
G01*
X222631020Y-132914900D01*
G75*
G02*
X222881020Y-133164900I0J-250000D01*
G01*
X222881020Y-133839900D01*
G75*
G02*
X222631020Y-134089900I-250000J0D01*
G01*
G37*
G36*
G01*
X204852300Y-142351600D02*
X204852300Y-143601600D01*
G75*
G02*
X204602300Y-143851600I-250000J0D01*
G01*
X203677300Y-143851600D01*
G75*
G02*
X203427300Y-143601600I0J250000D01*
G01*
X203427300Y-142351600D01*
G75*
G02*
X203677300Y-142101600I250000J0D01*
G01*
X204602300Y-142101600D01*
G75*
G02*
X204852300Y-142351600I0J-250000D01*
G01*
G37*
G36*
G01*
X207827300Y-142351600D02*
X207827300Y-143601600D01*
G75*
G02*
X207577300Y-143851600I-250000J0D01*
G01*
X206652300Y-143851600D01*
G75*
G02*
X206402300Y-143601600I0J250000D01*
G01*
X206402300Y-142351600D01*
G75*
G02*
X206652300Y-142101600I250000J0D01*
G01*
X207577300Y-142101600D01*
G75*
G02*
X207827300Y-142351600I0J-250000D01*
G01*
G37*
G36*
G01*
X209991000Y-150579241D02*
X209991000Y-149679239D01*
G75*
G02*
X210240999Y-149429240I249999J0D01*
G01*
X210891001Y-149429240D01*
G75*
G02*
X211141000Y-149679239I0J-249999D01*
G01*
X211141000Y-150579241D01*
G75*
G02*
X210891001Y-150829240I-249999J0D01*
G01*
X210240999Y-150829240D01*
G75*
G02*
X209991000Y-150579241I0J249999D01*
G01*
G37*
G36*
G01*
X207941000Y-150579241D02*
X207941000Y-149679239D01*
G75*
G02*
X208190999Y-149429240I249999J0D01*
G01*
X208841001Y-149429240D01*
G75*
G02*
X209091000Y-149679239I0J-249999D01*
G01*
X209091000Y-150579241D01*
G75*
G02*
X208841001Y-150829240I-249999J0D01*
G01*
X208190999Y-150829240D01*
G75*
G02*
X207941000Y-150579241I0J249999D01*
G01*
G37*
G36*
G01*
X221560080Y-114459599D02*
X221560080Y-115359601D01*
G75*
G02*
X221310081Y-115609600I-249999J0D01*
G01*
X220660079Y-115609600D01*
G75*
G02*
X220410080Y-115359601I0J249999D01*
G01*
X220410080Y-114459599D01*
G75*
G02*
X220660079Y-114209600I249999J0D01*
G01*
X221310081Y-114209600D01*
G75*
G02*
X221560080Y-114459599I0J-249999D01*
G01*
G37*
G36*
G01*
X219510080Y-114459599D02*
X219510080Y-115359601D01*
G75*
G02*
X219260081Y-115609600I-249999J0D01*
G01*
X218610079Y-115609600D01*
G75*
G02*
X218360080Y-115359601I0J249999D01*
G01*
X218360080Y-114459599D01*
G75*
G02*
X218610079Y-114209600I249999J0D01*
G01*
X219260081Y-114209600D01*
G75*
G02*
X219510080Y-114459599I0J-249999D01*
G01*
G37*
G36*
G01*
X208455900Y-120494900D02*
X208455900Y-121744900D01*
G75*
G02*
X208205900Y-121994900I-250000J0D01*
G01*
X207280900Y-121994900D01*
G75*
G02*
X207030900Y-121744900I0J250000D01*
G01*
X207030900Y-120494900D01*
G75*
G02*
X207280900Y-120244900I250000J0D01*
G01*
X208205900Y-120244900D01*
G75*
G02*
X208455900Y-120494900I0J-250000D01*
G01*
G37*
G36*
G01*
X211430900Y-120494900D02*
X211430900Y-121744900D01*
G75*
G02*
X211180900Y-121994900I-250000J0D01*
G01*
X210255900Y-121994900D01*
G75*
G02*
X210005900Y-121744900I0J250000D01*
G01*
X210005900Y-120494900D01*
G75*
G02*
X210255900Y-120244900I250000J0D01*
G01*
X211180900Y-120244900D01*
G75*
G02*
X211430900Y-120494900I0J-250000D01*
G01*
G37*
G36*
G01*
X227252560Y-114538600D02*
X227252560Y-115788600D01*
G75*
G02*
X227002560Y-116038600I-250000J0D01*
G01*
X226077560Y-116038600D01*
G75*
G02*
X225827560Y-115788600I0J250000D01*
G01*
X225827560Y-114538600D01*
G75*
G02*
X226077560Y-114288600I250000J0D01*
G01*
X227002560Y-114288600D01*
G75*
G02*
X227252560Y-114538600I0J-250000D01*
G01*
G37*
G36*
G01*
X230227560Y-114538600D02*
X230227560Y-115788600D01*
G75*
G02*
X229977560Y-116038600I-250000J0D01*
G01*
X229052560Y-116038600D01*
G75*
G02*
X228802560Y-115788600I0J250000D01*
G01*
X228802560Y-114538600D01*
G75*
G02*
X229052560Y-114288600I250000J0D01*
G01*
X229977560Y-114288600D01*
G75*
G02*
X230227560Y-114538600I0J-250000D01*
G01*
G37*
G36*
G01*
X196771681Y-136640040D02*
X195871679Y-136640040D01*
G75*
G02*
X195621680Y-136390041I0J249999D01*
G01*
X195621680Y-135740039D01*
G75*
G02*
X195871679Y-135490040I249999J0D01*
G01*
X196771681Y-135490040D01*
G75*
G02*
X197021680Y-135740039I0J-249999D01*
G01*
X197021680Y-136390041D01*
G75*
G02*
X196771681Y-136640040I-249999J0D01*
G01*
G37*
G36*
G01*
X196771681Y-138690040D02*
X195871679Y-138690040D01*
G75*
G02*
X195621680Y-138440041I0J249999D01*
G01*
X195621680Y-137790039D01*
G75*
G02*
X195871679Y-137540040I249999J0D01*
G01*
X196771681Y-137540040D01*
G75*
G02*
X197021680Y-137790039I0J-249999D01*
G01*
X197021680Y-138440041D01*
G75*
G02*
X196771681Y-138690040I-249999J0D01*
G01*
G37*
G36*
G01*
X193205521Y-136614640D02*
X192305519Y-136614640D01*
G75*
G02*
X192055520Y-136364641I0J249999D01*
G01*
X192055520Y-135714639D01*
G75*
G02*
X192305519Y-135464640I249999J0D01*
G01*
X193205521Y-135464640D01*
G75*
G02*
X193455520Y-135714639I0J-249999D01*
G01*
X193455520Y-136364641D01*
G75*
G02*
X193205521Y-136614640I-249999J0D01*
G01*
G37*
G36*
G01*
X193205521Y-138664640D02*
X192305519Y-138664640D01*
G75*
G02*
X192055520Y-138414641I0J249999D01*
G01*
X192055520Y-137764639D01*
G75*
G02*
X192305519Y-137514640I249999J0D01*
G01*
X193205521Y-137514640D01*
G75*
G02*
X193455520Y-137764639I0J-249999D01*
G01*
X193455520Y-138414641D01*
G75*
G02*
X193205521Y-138664640I-249999J0D01*
G01*
G37*
G36*
G01*
X194936100Y-122093700D02*
X195411100Y-122093700D01*
G75*
G02*
X195648600Y-122331200I0J-237500D01*
G01*
X195648600Y-122931200D01*
G75*
G02*
X195411100Y-123168700I-237500J0D01*
G01*
X194936100Y-123168700D01*
G75*
G02*
X194698600Y-122931200I0J237500D01*
G01*
X194698600Y-122331200D01*
G75*
G02*
X194936100Y-122093700I237500J0D01*
G01*
G37*
G36*
G01*
X194936100Y-120368700D02*
X195411100Y-120368700D01*
G75*
G02*
X195648600Y-120606200I0J-237500D01*
G01*
X195648600Y-121206200D01*
G75*
G02*
X195411100Y-121443700I-237500J0D01*
G01*
X194936100Y-121443700D01*
G75*
G02*
X194698600Y-121206200I0J237500D01*
G01*
X194698600Y-120606200D01*
G75*
G02*
X194936100Y-120368700I237500J0D01*
G01*
G37*
G36*
G01*
X217691680Y-117313720D02*
X217691680Y-116838720D01*
G75*
G02*
X217929180Y-116601220I237500J0D01*
G01*
X218529180Y-116601220D01*
G75*
G02*
X218766680Y-116838720I0J-237500D01*
G01*
X218766680Y-117313720D01*
G75*
G02*
X218529180Y-117551220I-237500J0D01*
G01*
X217929180Y-117551220D01*
G75*
G02*
X217691680Y-117313720I0J237500D01*
G01*
G37*
G36*
G01*
X215966680Y-117313720D02*
X215966680Y-116838720D01*
G75*
G02*
X216204180Y-116601220I237500J0D01*
G01*
X216804180Y-116601220D01*
G75*
G02*
X217041680Y-116838720I0J-237500D01*
G01*
X217041680Y-117313720D01*
G75*
G02*
X216804180Y-117551220I-237500J0D01*
G01*
X216204180Y-117551220D01*
G75*
G02*
X215966680Y-117313720I0J237500D01*
G01*
G37*
G36*
G01*
X213292400Y-131085600D02*
X213292400Y-130610600D01*
G75*
G02*
X213529900Y-130373100I237500J0D01*
G01*
X214129900Y-130373100D01*
G75*
G02*
X214367400Y-130610600I0J-237500D01*
G01*
X214367400Y-131085600D01*
G75*
G02*
X214129900Y-131323100I-237500J0D01*
G01*
X213529900Y-131323100D01*
G75*
G02*
X213292400Y-131085600I0J237500D01*
G01*
G37*
G36*
G01*
X211567400Y-131085600D02*
X211567400Y-130610600D01*
G75*
G02*
X211804900Y-130373100I237500J0D01*
G01*
X212404900Y-130373100D01*
G75*
G02*
X212642400Y-130610600I0J-237500D01*
G01*
X212642400Y-131085600D01*
G75*
G02*
X212404900Y-131323100I-237500J0D01*
G01*
X211804900Y-131323100D01*
G75*
G02*
X211567400Y-131085600I0J237500D01*
G01*
G37*
G36*
G01*
X211063720Y-141319260D02*
X211063720Y-140844260D01*
G75*
G02*
X211301220Y-140606760I237500J0D01*
G01*
X211901220Y-140606760D01*
G75*
G02*
X212138720Y-140844260I0J-237500D01*
G01*
X212138720Y-141319260D01*
G75*
G02*
X211901220Y-141556760I-237500J0D01*
G01*
X211301220Y-141556760D01*
G75*
G02*
X211063720Y-141319260I0J237500D01*
G01*
G37*
G36*
G01*
X209338720Y-141319260D02*
X209338720Y-140844260D01*
G75*
G02*
X209576220Y-140606760I237500J0D01*
G01*
X210176220Y-140606760D01*
G75*
G02*
X210413720Y-140844260I0J-237500D01*
G01*
X210413720Y-141319260D01*
G75*
G02*
X210176220Y-141556760I-237500J0D01*
G01*
X209576220Y-141556760D01*
G75*
G02*
X209338720Y-141319260I0J237500D01*
G01*
G37*
G36*
G01*
X212215820Y-116482340D02*
X212215820Y-112732340D01*
G75*
G02*
X212465820Y-112482340I250000J0D01*
G01*
X214040820Y-112482340D01*
G75*
G02*
X214290820Y-112732340I0J-250000D01*
G01*
X214290820Y-116482340D01*
G75*
G02*
X214040820Y-116732340I-250000J0D01*
G01*
X212465820Y-116732340D01*
G75*
G02*
X212215820Y-116482340I0J250000D01*
G01*
G37*
G36*
G01*
X205990820Y-116482340D02*
X205990820Y-112732340D01*
G75*
G02*
X206240820Y-112482340I250000J0D01*
G01*
X207815820Y-112482340D01*
G75*
G02*
X208065820Y-112732340I0J-250000D01*
G01*
X208065820Y-116482340D01*
G75*
G02*
X207815820Y-116732340I-250000J0D01*
G01*
X206240820Y-116732340D01*
G75*
G02*
X205990820Y-116482340I0J250000D01*
G01*
G37*
G36*
G01*
X210230840Y-135850620D02*
X210230840Y-136325620D01*
G75*
G02*
X209993340Y-136563120I-237500J0D01*
G01*
X209393340Y-136563120D01*
G75*
G02*
X209155840Y-136325620I0J237500D01*
G01*
X209155840Y-135850620D01*
G75*
G02*
X209393340Y-135613120I237500J0D01*
G01*
X209993340Y-135613120D01*
G75*
G02*
X210230840Y-135850620I0J-237500D01*
G01*
G37*
G36*
G01*
X211955840Y-135850620D02*
X211955840Y-136325620D01*
G75*
G02*
X211718340Y-136563120I-237500J0D01*
G01*
X211118340Y-136563120D01*
G75*
G02*
X210880840Y-136325620I0J237500D01*
G01*
X210880840Y-135850620D01*
G75*
G02*
X211118340Y-135613120I237500J0D01*
G01*
X211718340Y-135613120D01*
G75*
G02*
X211955840Y-135850620I0J-237500D01*
G01*
G37*
G36*
G01*
X205713340Y-137504460D02*
X205238340Y-137504460D01*
G75*
G02*
X205000840Y-137266960I0J237500D01*
G01*
X205000840Y-136666960D01*
G75*
G02*
X205238340Y-136429460I237500J0D01*
G01*
X205713340Y-136429460D01*
G75*
G02*
X205950840Y-136666960I0J-237500D01*
G01*
X205950840Y-137266960D01*
G75*
G02*
X205713340Y-137504460I-237500J0D01*
G01*
G37*
G36*
G01*
X205713340Y-139229460D02*
X205238340Y-139229460D01*
G75*
G02*
X205000840Y-138991960I0J237500D01*
G01*
X205000840Y-138391960D01*
G75*
G02*
X205238340Y-138154460I237500J0D01*
G01*
X205713340Y-138154460D01*
G75*
G02*
X205950840Y-138391960I0J-237500D01*
G01*
X205950840Y-138991960D01*
G75*
G02*
X205713340Y-139229460I-237500J0D01*
G01*
G37*
G36*
G01*
X203983300Y-112193080D02*
X203983300Y-111718080D01*
G75*
G02*
X204220800Y-111480580I237500J0D01*
G01*
X204820800Y-111480580D01*
G75*
G02*
X205058300Y-111718080I0J-237500D01*
G01*
X205058300Y-112193080D01*
G75*
G02*
X204820800Y-112430580I-237500J0D01*
G01*
X204220800Y-112430580D01*
G75*
G02*
X203983300Y-112193080I0J237500D01*
G01*
G37*
G36*
G01*
X202258300Y-112193080D02*
X202258300Y-111718080D01*
G75*
G02*
X202495800Y-111480580I237500J0D01*
G01*
X203095800Y-111480580D01*
G75*
G02*
X203333300Y-111718080I0J-237500D01*
G01*
X203333300Y-112193080D01*
G75*
G02*
X203095800Y-112430580I-237500J0D01*
G01*
X202495800Y-112430580D01*
G75*
G02*
X202258300Y-112193080I0J237500D01*
G01*
G37*
G36*
G01*
X201636620Y-145668880D02*
X202111620Y-145668880D01*
G75*
G02*
X202349120Y-145906380I0J-237500D01*
G01*
X202349120Y-146506380D01*
G75*
G02*
X202111620Y-146743880I-237500J0D01*
G01*
X201636620Y-146743880D01*
G75*
G02*
X201399120Y-146506380I0J237500D01*
G01*
X201399120Y-145906380D01*
G75*
G02*
X201636620Y-145668880I237500J0D01*
G01*
G37*
G36*
G01*
X201636620Y-143943880D02*
X202111620Y-143943880D01*
G75*
G02*
X202349120Y-144181380I0J-237500D01*
G01*
X202349120Y-144781380D01*
G75*
G02*
X202111620Y-145018880I-237500J0D01*
G01*
X201636620Y-145018880D01*
G75*
G02*
X201399120Y-144781380I0J237500D01*
G01*
X201399120Y-144181380D01*
G75*
G02*
X201636620Y-143943880I237500J0D01*
G01*
G37*
G36*
G01*
X192037460Y-127840720D02*
X192037460Y-128790720D01*
G75*
G02*
X191787460Y-129040720I-250000J0D01*
G01*
X191112460Y-129040720D01*
G75*
G02*
X190862460Y-128790720I0J250000D01*
G01*
X190862460Y-127840720D01*
G75*
G02*
X191112460Y-127590720I250000J0D01*
G01*
X191787460Y-127590720D01*
G75*
G02*
X192037460Y-127840720I0J-250000D01*
G01*
G37*
G36*
G01*
X194112460Y-127840720D02*
X194112460Y-128790720D01*
G75*
G02*
X193862460Y-129040720I-250000J0D01*
G01*
X193187460Y-129040720D01*
G75*
G02*
X192937460Y-128790720I0J250000D01*
G01*
X192937460Y-127840720D01*
G75*
G02*
X193187460Y-127590720I250000J0D01*
G01*
X193862460Y-127590720D01*
G75*
G02*
X194112460Y-127840720I0J-250000D01*
G01*
G37*
G36*
G01*
X199637660Y-129533940D02*
X199162660Y-129533940D01*
G75*
G02*
X198925160Y-129296440I0J237500D01*
G01*
X198925160Y-128696440D01*
G75*
G02*
X199162660Y-128458940I237500J0D01*
G01*
X199637660Y-128458940D01*
G75*
G02*
X199875160Y-128696440I0J-237500D01*
G01*
X199875160Y-129296440D01*
G75*
G02*
X199637660Y-129533940I-237500J0D01*
G01*
G37*
G36*
G01*
X199637660Y-131258940D02*
X199162660Y-131258940D01*
G75*
G02*
X198925160Y-131021440I0J237500D01*
G01*
X198925160Y-130421440D01*
G75*
G02*
X199162660Y-130183940I237500J0D01*
G01*
X199637660Y-130183940D01*
G75*
G02*
X199875160Y-130421440I0J-237500D01*
G01*
X199875160Y-131021440D01*
G75*
G02*
X199637660Y-131258940I-237500J0D01*
G01*
G37*
G36*
G01*
X195763860Y-145870940D02*
X195763860Y-145395940D01*
G75*
G02*
X196001360Y-145158440I237500J0D01*
G01*
X196601360Y-145158440D01*
G75*
G02*
X196838860Y-145395940I0J-237500D01*
G01*
X196838860Y-145870940D01*
G75*
G02*
X196601360Y-146108440I-237500J0D01*
G01*
X196001360Y-146108440D01*
G75*
G02*
X195763860Y-145870940I0J237500D01*
G01*
G37*
G36*
G01*
X194038860Y-145870940D02*
X194038860Y-145395940D01*
G75*
G02*
X194276360Y-145158440I237500J0D01*
G01*
X194876360Y-145158440D01*
G75*
G02*
X195113860Y-145395940I0J-237500D01*
G01*
X195113860Y-145870940D01*
G75*
G02*
X194876360Y-146108440I-237500J0D01*
G01*
X194276360Y-146108440D01*
G75*
G02*
X194038860Y-145870940I0J237500D01*
G01*
G37*
D29*
X207021560Y-146661400D03*
X204021560Y-146661400D03*
D30*
X205521560Y-145186400D03*
X205521560Y-148136400D03*
M02*
