G04 #@! TF.GenerationSoftware,KiCad,Pcbnew,5.1.10-88a1d61d58~90~ubuntu20.04.1*
G04 #@! TF.CreationDate,2021-08-08T16:04:40+03:00*
G04 #@! TF.ProjectId,GPS_keychain,4750535f-6b65-4796-9368-61696e2e6b69,rev?*
G04 #@! TF.SameCoordinates,Original*
G04 #@! TF.FileFunction,Legend,Top*
G04 #@! TF.FilePolarity,Positive*
%FSLAX46Y46*%
G04 Gerber Fmt 4.6, Leading zero omitted, Abs format (unit mm)*
G04 Created by KiCad (PCBNEW 5.1.10-88a1d61d58~90~ubuntu20.04.1) date 2021-08-08 16:04:40*
%MOMM*%
%LPD*%
G01*
G04 APERTURE LIST*
%ADD10C,0.100000*%
%ADD11C,0.150000*%
%ADD12C,0.120000*%
%ADD13C,0.200000*%
%ADD14C,0.127000*%
%ADD15C,1.700000*%
%ADD16R,1.600000X0.550000*%
%ADD17R,0.550000X1.600000*%
%ADD18R,0.800000X1.800000*%
%ADD19R,0.650000X1.060000*%
%ADD20R,0.700000X0.510000*%
%ADD21R,2.290000X3.000000*%
%ADD22C,1.000000*%
%ADD23R,0.900000X0.800000*%
%ADD24O,1.700000X1.700000*%
%ADD25R,1.700000X1.700000*%
%ADD26C,2.000000*%
%ADD27R,1.430000X2.500000*%
%ADD28O,1.350000X1.700000*%
%ADD29O,1.100000X1.500000*%
%ADD30R,0.400000X1.650000*%
%ADD31R,2.000000X1.500000*%
%ADD32R,1.825000X0.700000*%
%ADD33R,1.350000X2.000000*%
%ADD34R,1.000000X1.000000*%
%ADD35R,2.200000X1.050000*%
G04 APERTURE END LIST*
D10*
X225185714Y-130471428D02*
X224900000Y-130471428D01*
X224871428Y-130757142D01*
X224900000Y-130728571D01*
X224957142Y-130700000D01*
X225100000Y-130700000D01*
X225157142Y-130728571D01*
X225185714Y-130757142D01*
X225214285Y-130814285D01*
X225214285Y-130957142D01*
X225185714Y-131014285D01*
X225157142Y-131042857D01*
X225100000Y-131071428D01*
X224957142Y-131071428D01*
X224900000Y-131042857D01*
X224871428Y-131014285D01*
X225385714Y-130471428D02*
X225585714Y-131071428D01*
X225785714Y-130471428D01*
D11*
X214892282Y-112989008D02*
X214892282Y-112389008D01*
X214892282Y-112960437D02*
X214835140Y-112989008D01*
X214720854Y-112989008D01*
X214663711Y-112960437D01*
X214635140Y-112931865D01*
X214606568Y-112874722D01*
X214606568Y-112703294D01*
X214635140Y-112646151D01*
X214663711Y-112617580D01*
X214720854Y-112589008D01*
X214835140Y-112589008D01*
X214892282Y-112617580D01*
X215177997Y-112989008D02*
X215177997Y-112589008D01*
X215177997Y-112646151D02*
X215206568Y-112617580D01*
X215263711Y-112589008D01*
X215349425Y-112589008D01*
X215406568Y-112617580D01*
X215435140Y-112674722D01*
X215435140Y-112989008D01*
X215435140Y-112674722D02*
X215463711Y-112617580D01*
X215520854Y-112589008D01*
X215606568Y-112589008D01*
X215663711Y-112617580D01*
X215692282Y-112674722D01*
X215692282Y-112989008D01*
X215920854Y-112589008D02*
X216063711Y-112989008D01*
X216206568Y-112589008D02*
X216063711Y-112989008D01*
X216006568Y-113131865D01*
X215977997Y-113160437D01*
X215920854Y-113189008D01*
X216349425Y-112589008D02*
X216577997Y-112589008D01*
X216435140Y-112389008D02*
X216435140Y-112903294D01*
X216463711Y-112960437D01*
X216520854Y-112989008D01*
X216577997Y-112989008D01*
X216777997Y-112989008D02*
X216777997Y-112589008D01*
X216777997Y-112703294D02*
X216806568Y-112646151D01*
X216835140Y-112617580D01*
X216892282Y-112589008D01*
X216949425Y-112589008D01*
X217235140Y-112989008D02*
X217177997Y-112960437D01*
X217149425Y-112931865D01*
X217120854Y-112874722D01*
X217120854Y-112703294D01*
X217149425Y-112646151D01*
X217177997Y-112617580D01*
X217235140Y-112589008D01*
X217320854Y-112589008D01*
X217377997Y-112617580D01*
X217406568Y-112646151D01*
X217435140Y-112703294D01*
X217435140Y-112874722D01*
X217406568Y-112931865D01*
X217377997Y-112960437D01*
X217320854Y-112989008D01*
X217235140Y-112989008D01*
X217920854Y-112960437D02*
X217863711Y-112989008D01*
X217749425Y-112989008D01*
X217692282Y-112960437D01*
X217663711Y-112903294D01*
X217663711Y-112674722D01*
X217692282Y-112617580D01*
X217749425Y-112589008D01*
X217863711Y-112589008D01*
X217920854Y-112617580D01*
X217949425Y-112674722D01*
X217949425Y-112731865D01*
X217663711Y-112789008D01*
X218206568Y-112589008D02*
X218206568Y-112989008D01*
X218206568Y-112646151D02*
X218235140Y-112617580D01*
X218292282Y-112589008D01*
X218377997Y-112589008D01*
X218435140Y-112617580D01*
X218463711Y-112674722D01*
X218463711Y-112989008D01*
X219006568Y-112589008D02*
X219006568Y-113074722D01*
X218977997Y-113131865D01*
X218949425Y-113160437D01*
X218892282Y-113189008D01*
X218806568Y-113189008D01*
X218749425Y-113160437D01*
X219006568Y-112960437D02*
X218949425Y-112989008D01*
X218835140Y-112989008D01*
X218777997Y-112960437D01*
X218749425Y-112931865D01*
X218720854Y-112874722D01*
X218720854Y-112703294D01*
X218749425Y-112646151D01*
X218777997Y-112617580D01*
X218835140Y-112589008D01*
X218949425Y-112589008D01*
X219006568Y-112617580D01*
X219292282Y-112989008D02*
X219292282Y-112589008D01*
X219292282Y-112389008D02*
X219263711Y-112417580D01*
X219292282Y-112446151D01*
X219320854Y-112417580D01*
X219292282Y-112389008D01*
X219292282Y-112446151D01*
X219577997Y-112589008D02*
X219577997Y-112989008D01*
X219577997Y-112646151D02*
X219606568Y-112617580D01*
X219663711Y-112589008D01*
X219749425Y-112589008D01*
X219806568Y-112617580D01*
X219835140Y-112674722D01*
X219835140Y-112989008D01*
X220349425Y-112960437D02*
X220292282Y-112989008D01*
X220177997Y-112989008D01*
X220120854Y-112960437D01*
X220092282Y-112903294D01*
X220092282Y-112674722D01*
X220120854Y-112617580D01*
X220177997Y-112589008D01*
X220292282Y-112589008D01*
X220349425Y-112617580D01*
X220377997Y-112674722D01*
X220377997Y-112731865D01*
X220092282Y-112789008D01*
X220863711Y-112960437D02*
X220806568Y-112989008D01*
X220692282Y-112989008D01*
X220635140Y-112960437D01*
X220606568Y-112903294D01*
X220606568Y-112674722D01*
X220635140Y-112617580D01*
X220692282Y-112589008D01*
X220806568Y-112589008D01*
X220863711Y-112617580D01*
X220892282Y-112674722D01*
X220892282Y-112731865D01*
X220606568Y-112789008D01*
X221149425Y-112989008D02*
X221149425Y-112589008D01*
X221149425Y-112703294D02*
X221177997Y-112646151D01*
X221206568Y-112617580D01*
X221263711Y-112589008D01*
X221320854Y-112589008D01*
X221520854Y-112989008D02*
X221520854Y-112589008D01*
X221520854Y-112389008D02*
X221492282Y-112417580D01*
X221520854Y-112446151D01*
X221549425Y-112417580D01*
X221520854Y-112389008D01*
X221520854Y-112446151D01*
X221806568Y-112589008D02*
X221806568Y-112989008D01*
X221806568Y-112646151D02*
X221835140Y-112617580D01*
X221892282Y-112589008D01*
X221977997Y-112589008D01*
X222035140Y-112617580D01*
X222063711Y-112674722D01*
X222063711Y-112989008D01*
X222606568Y-112589008D02*
X222606568Y-113074722D01*
X222577997Y-113131865D01*
X222549425Y-113160437D01*
X222492282Y-113189008D01*
X222406568Y-113189008D01*
X222349425Y-113160437D01*
X222606568Y-112960437D02*
X222549425Y-112989008D01*
X222435140Y-112989008D01*
X222377997Y-112960437D01*
X222349425Y-112931865D01*
X222320854Y-112874722D01*
X222320854Y-112703294D01*
X222349425Y-112646151D01*
X222377997Y-112617580D01*
X222435140Y-112589008D01*
X222549425Y-112589008D01*
X222606568Y-112617580D01*
X222892282Y-112931865D02*
X222920854Y-112960437D01*
X222892282Y-112989008D01*
X222863711Y-112960437D01*
X222892282Y-112931865D01*
X222892282Y-112989008D01*
X223435140Y-112960437D02*
X223377997Y-112989008D01*
X223263711Y-112989008D01*
X223206568Y-112960437D01*
X223177997Y-112931865D01*
X223149425Y-112874722D01*
X223149425Y-112703294D01*
X223177997Y-112646151D01*
X223206568Y-112617580D01*
X223263711Y-112589008D01*
X223377997Y-112589008D01*
X223435140Y-112617580D01*
X223777997Y-112989008D02*
X223720854Y-112960437D01*
X223692282Y-112931865D01*
X223663711Y-112874722D01*
X223663711Y-112703294D01*
X223692282Y-112646151D01*
X223720854Y-112617580D01*
X223777997Y-112589008D01*
X223863711Y-112589008D01*
X223920854Y-112617580D01*
X223949425Y-112646151D01*
X223977997Y-112703294D01*
X223977997Y-112874722D01*
X223949425Y-112931865D01*
X223920854Y-112960437D01*
X223863711Y-112989008D01*
X223777997Y-112989008D01*
X224235140Y-112989008D02*
X224235140Y-112589008D01*
X224235140Y-112646151D02*
X224263711Y-112617580D01*
X224320854Y-112589008D01*
X224406568Y-112589008D01*
X224463711Y-112617580D01*
X224492282Y-112674722D01*
X224492282Y-112989008D01*
X224492282Y-112674722D02*
X224520854Y-112617580D01*
X224577997Y-112589008D01*
X224663711Y-112589008D01*
X224720854Y-112617580D01*
X224749425Y-112674722D01*
X224749425Y-112989008D01*
X225463711Y-112360437D02*
X224949425Y-113131865D01*
X225920854Y-112589008D02*
X225920854Y-113074722D01*
X225892282Y-113131865D01*
X225863711Y-113160437D01*
X225806568Y-113189008D01*
X225720854Y-113189008D01*
X225663711Y-113160437D01*
X225920854Y-112960437D02*
X225863711Y-112989008D01*
X225749425Y-112989008D01*
X225692282Y-112960437D01*
X225663711Y-112931865D01*
X225635140Y-112874722D01*
X225635140Y-112703294D01*
X225663711Y-112646151D01*
X225692282Y-112617580D01*
X225749425Y-112589008D01*
X225863711Y-112589008D01*
X225920854Y-112617580D01*
X226206568Y-112589008D02*
X226206568Y-113189008D01*
X226206568Y-112617580D02*
X226263711Y-112589008D01*
X226377997Y-112589008D01*
X226435140Y-112617580D01*
X226463711Y-112646151D01*
X226492282Y-112703294D01*
X226492282Y-112874722D01*
X226463711Y-112931865D01*
X226435140Y-112960437D01*
X226377997Y-112989008D01*
X226263711Y-112989008D01*
X226206568Y-112960437D01*
X226720854Y-112960437D02*
X226777997Y-112989008D01*
X226892282Y-112989008D01*
X226949425Y-112960437D01*
X226977997Y-112903294D01*
X226977997Y-112874722D01*
X226949425Y-112817580D01*
X226892282Y-112789008D01*
X226806568Y-112789008D01*
X226749425Y-112760437D01*
X226720854Y-112703294D01*
X226720854Y-112674722D01*
X226749425Y-112617580D01*
X226806568Y-112589008D01*
X226892282Y-112589008D01*
X226949425Y-112617580D01*
X227235140Y-112989008D02*
X227235140Y-112389008D01*
X227292282Y-112760437D02*
X227463711Y-112989008D01*
X227463711Y-112589008D02*
X227235140Y-112817580D01*
X227949425Y-112960437D02*
X227892282Y-112989008D01*
X227777997Y-112989008D01*
X227720854Y-112960437D01*
X227692282Y-112903294D01*
X227692282Y-112674722D01*
X227720854Y-112617580D01*
X227777997Y-112589008D01*
X227892282Y-112589008D01*
X227949425Y-112617580D01*
X227977997Y-112674722D01*
X227977997Y-112731865D01*
X227692282Y-112789008D01*
X228177997Y-112589008D02*
X228320854Y-112989008D01*
X228463711Y-112589008D02*
X228320854Y-112989008D01*
X228263711Y-113131865D01*
X228235140Y-113160437D01*
X228177997Y-113189008D01*
X228949425Y-112960437D02*
X228892282Y-112989008D01*
X228777997Y-112989008D01*
X228720854Y-112960437D01*
X228692282Y-112931865D01*
X228663711Y-112874722D01*
X228663711Y-112703294D01*
X228692282Y-112646151D01*
X228720854Y-112617580D01*
X228777997Y-112589008D01*
X228892282Y-112589008D01*
X228949425Y-112617580D01*
X229206568Y-112989008D02*
X229206568Y-112389008D01*
X229463711Y-112989008D02*
X229463711Y-112674722D01*
X229435140Y-112617580D01*
X229377997Y-112589008D01*
X229292282Y-112589008D01*
X229235140Y-112617580D01*
X229206568Y-112646151D01*
X230006568Y-112989008D02*
X230006568Y-112674722D01*
X229977997Y-112617580D01*
X229920854Y-112589008D01*
X229806568Y-112589008D01*
X229749425Y-112617580D01*
X230006568Y-112960437D02*
X229949425Y-112989008D01*
X229806568Y-112989008D01*
X229749425Y-112960437D01*
X229720854Y-112903294D01*
X229720854Y-112846151D01*
X229749425Y-112789008D01*
X229806568Y-112760437D01*
X229949425Y-112760437D01*
X230006568Y-112731865D01*
X230292282Y-112989008D02*
X230292282Y-112589008D01*
X230292282Y-112389008D02*
X230263711Y-112417580D01*
X230292282Y-112446151D01*
X230320854Y-112417580D01*
X230292282Y-112389008D01*
X230292282Y-112446151D01*
X230577997Y-112589008D02*
X230577997Y-112989008D01*
X230577997Y-112646151D02*
X230606568Y-112617580D01*
X230663711Y-112589008D01*
X230749425Y-112589008D01*
X230806568Y-112617580D01*
X230835140Y-112674722D01*
X230835140Y-112989008D01*
X215318508Y-111125380D02*
X215223270Y-111077760D01*
X215080413Y-111077760D01*
X214937556Y-111125380D01*
X214842318Y-111220618D01*
X214794699Y-111315856D01*
X214747080Y-111506332D01*
X214747080Y-111649189D01*
X214794699Y-111839665D01*
X214842318Y-111934903D01*
X214937556Y-112030141D01*
X215080413Y-112077760D01*
X215175651Y-112077760D01*
X215318508Y-112030141D01*
X215366127Y-111982522D01*
X215366127Y-111649189D01*
X215175651Y-111649189D01*
X215794699Y-112077760D02*
X215794699Y-111077760D01*
X216175651Y-111077760D01*
X216270889Y-111125380D01*
X216318508Y-111172999D01*
X216366127Y-111268237D01*
X216366127Y-111411094D01*
X216318508Y-111506332D01*
X216270889Y-111553951D01*
X216175651Y-111601570D01*
X215794699Y-111601570D01*
X216747080Y-112030141D02*
X216889937Y-112077760D01*
X217128032Y-112077760D01*
X217223270Y-112030141D01*
X217270889Y-111982522D01*
X217318508Y-111887284D01*
X217318508Y-111792046D01*
X217270889Y-111696808D01*
X217223270Y-111649189D01*
X217128032Y-111601570D01*
X216937556Y-111553951D01*
X216842318Y-111506332D01*
X216794699Y-111458713D01*
X216747080Y-111363475D01*
X216747080Y-111268237D01*
X216794699Y-111172999D01*
X216842318Y-111125380D01*
X216937556Y-111077760D01*
X217175651Y-111077760D01*
X217318508Y-111125380D01*
X218508984Y-112077760D02*
X218508984Y-111077760D01*
X219080413Y-112077760D02*
X218651841Y-111506332D01*
X219080413Y-111077760D02*
X218508984Y-111649189D01*
X219889937Y-112030141D02*
X219794699Y-112077760D01*
X219604222Y-112077760D01*
X219508984Y-112030141D01*
X219461365Y-111934903D01*
X219461365Y-111553951D01*
X219508984Y-111458713D01*
X219604222Y-111411094D01*
X219794699Y-111411094D01*
X219889937Y-111458713D01*
X219937556Y-111553951D01*
X219937556Y-111649189D01*
X219461365Y-111744427D01*
X220270889Y-111411094D02*
X220508984Y-112077760D01*
X220747080Y-111411094D02*
X220508984Y-112077760D01*
X220413746Y-112315856D01*
X220366127Y-112363475D01*
X220270889Y-112411094D01*
X221556603Y-112030141D02*
X221461365Y-112077760D01*
X221270889Y-112077760D01*
X221175651Y-112030141D01*
X221128032Y-111982522D01*
X221080413Y-111887284D01*
X221080413Y-111601570D01*
X221128032Y-111506332D01*
X221175651Y-111458713D01*
X221270889Y-111411094D01*
X221461365Y-111411094D01*
X221556603Y-111458713D01*
X221985175Y-112077760D02*
X221985175Y-111077760D01*
X222413746Y-112077760D02*
X222413746Y-111553951D01*
X222366127Y-111458713D01*
X222270889Y-111411094D01*
X222128032Y-111411094D01*
X222032794Y-111458713D01*
X221985175Y-111506332D01*
X223318508Y-112077760D02*
X223318508Y-111553951D01*
X223270889Y-111458713D01*
X223175651Y-111411094D01*
X222985175Y-111411094D01*
X222889937Y-111458713D01*
X223318508Y-112030141D02*
X223223270Y-112077760D01*
X222985175Y-112077760D01*
X222889937Y-112030141D01*
X222842318Y-111934903D01*
X222842318Y-111839665D01*
X222889937Y-111744427D01*
X222985175Y-111696808D01*
X223223270Y-111696808D01*
X223318508Y-111649189D01*
X223794699Y-112077760D02*
X223794699Y-111411094D01*
X223794699Y-111077760D02*
X223747080Y-111125380D01*
X223794699Y-111172999D01*
X223842318Y-111125380D01*
X223794699Y-111077760D01*
X223794699Y-111172999D01*
X224270889Y-111411094D02*
X224270889Y-112077760D01*
X224270889Y-111506332D02*
X224318508Y-111458713D01*
X224413746Y-111411094D01*
X224556603Y-111411094D01*
X224651841Y-111458713D01*
X224699460Y-111553951D01*
X224699460Y-112077760D01*
X225794699Y-111077760D02*
X226128032Y-112077760D01*
X226461365Y-111077760D01*
X226985175Y-111077760D02*
X227080413Y-111077760D01*
X227175651Y-111125380D01*
X227223270Y-111172999D01*
X227270889Y-111268237D01*
X227318508Y-111458713D01*
X227318508Y-111696808D01*
X227270889Y-111887284D01*
X227223270Y-111982522D01*
X227175651Y-112030141D01*
X227080413Y-112077760D01*
X226985175Y-112077760D01*
X226889937Y-112030141D01*
X226842318Y-111982522D01*
X226794699Y-111887284D01*
X226747080Y-111696808D01*
X226747080Y-111458713D01*
X226794699Y-111268237D01*
X226842318Y-111172999D01*
X226889937Y-111125380D01*
X226985175Y-111077760D01*
X227747080Y-111982522D02*
X227794699Y-112030141D01*
X227747080Y-112077760D01*
X227699460Y-112030141D01*
X227747080Y-111982522D01*
X227747080Y-112077760D01*
X228747080Y-112077760D02*
X228175651Y-112077760D01*
X228461365Y-112077760D02*
X228461365Y-111077760D01*
X228366127Y-111220618D01*
X228270889Y-111315856D01*
X228175651Y-111363475D01*
D12*
X191468700Y-114601300D02*
X194128700Y-114601300D01*
X191468700Y-114541300D02*
X191468700Y-114601300D01*
X194128700Y-114541300D02*
X194128700Y-114601300D01*
X191468700Y-114541300D02*
X194128700Y-114541300D01*
X191468700Y-113271300D02*
X191468700Y-111941300D01*
X191468700Y-111941300D02*
X192798700Y-111941300D01*
D11*
X214194220Y-127455660D02*
X214419220Y-127455660D01*
X214194220Y-120205660D02*
X214519220Y-120205660D01*
X221444220Y-120205660D02*
X221119220Y-120205660D01*
X221444220Y-127455660D02*
X221119220Y-127455660D01*
X214194220Y-127455660D02*
X214194220Y-127130660D01*
X221444220Y-127455660D02*
X221444220Y-127130660D01*
X221444220Y-120205660D02*
X221444220Y-120530660D01*
X214194220Y-120205660D02*
X214194220Y-120530660D01*
X214419220Y-127455660D02*
X214419220Y-128880660D01*
D12*
X210908980Y-140212840D02*
X213108980Y-140212840D01*
X210908980Y-140212840D02*
X208708980Y-140212840D01*
X210908980Y-136992840D02*
X213108980Y-136992840D01*
X210908980Y-136992840D02*
X207308980Y-136992840D01*
D13*
X215813600Y-151607840D02*
G75*
G03*
X215813600Y-151607840I-100000J0D01*
G01*
D14*
X215393600Y-150107840D02*
X215113600Y-150107840D01*
X215113600Y-150107840D02*
X215113600Y-137907840D01*
X215113600Y-137907840D02*
X215393600Y-137907840D01*
X230833600Y-150107840D02*
X231113600Y-150107840D01*
X231113600Y-150107840D02*
X231113600Y-137907840D01*
X231113600Y-137907840D02*
X230833600Y-137907840D01*
D12*
X203778760Y-140706680D02*
X203778760Y-138906680D01*
X200558760Y-138906680D02*
X200558760Y-141356680D01*
X195234800Y-131036140D02*
X195234800Y-133236140D01*
X195234800Y-131036140D02*
X195234800Y-128836140D01*
X198454800Y-131036140D02*
X198454800Y-133236140D01*
X198454800Y-131036140D02*
X198454800Y-127436140D01*
X192527800Y-134711240D02*
X194127800Y-134711240D01*
X194127800Y-131511240D02*
X191827800Y-131511240D01*
X195458080Y-144749200D02*
X197408080Y-144749200D01*
X195458080Y-144749200D02*
X193508080Y-144749200D01*
X195458080Y-139629200D02*
X197408080Y-139629200D01*
X195458080Y-139629200D02*
X192008080Y-139629200D01*
X212121980Y-125826520D02*
G75*
G03*
X212121980Y-125826520I-700000J0D01*
G01*
X210445580Y-124747020D02*
G75*
G03*
X210445580Y-124747020I-700000J0D01*
G01*
X232309900Y-112268000D02*
G75*
G03*
X232309900Y-112268000I-700000J0D01*
G01*
X213107500Y-119621300D02*
G75*
G03*
X213107500Y-119621300I-700000J0D01*
G01*
X230125500Y-118465600D02*
G75*
G03*
X230125500Y-118465600I-700000J0D01*
G01*
X228309400Y-116928900D02*
G75*
G03*
X228309400Y-116928900I-700000J0D01*
G01*
X220115360Y-133672580D02*
G75*
G03*
X220115360Y-133672580I-700000J0D01*
G01*
X221215180Y-135613140D02*
G75*
G03*
X221215180Y-135613140I-700000J0D01*
G01*
X206706700Y-122339100D02*
G75*
G03*
X206706700Y-122339100I-700000J0D01*
G01*
X197207100Y-119430800D02*
G75*
G03*
X197207100Y-119430800I-700000J0D01*
G01*
X202007700Y-137020300D02*
G75*
G03*
X202007700Y-137020300I-700000J0D01*
G01*
X192304900Y-116852700D02*
G75*
G03*
X192304900Y-116852700I-700000J0D01*
G01*
X227072284Y-134116340D02*
X226562836Y-134116340D01*
X227072284Y-133071340D02*
X226562836Y-133071340D01*
X223003656Y-134983960D02*
X223513104Y-134983960D01*
X223003656Y-136028960D02*
X223513104Y-136028960D01*
X207394280Y-125446884D02*
X207394280Y-124937436D01*
X208439280Y-125446884D02*
X208439280Y-124937436D01*
X192093756Y-120198620D02*
X192603204Y-120198620D01*
X192093756Y-121243620D02*
X192603204Y-121243620D01*
X192656544Y-123392460D02*
X192147096Y-123392460D01*
X192656544Y-122347460D02*
X192147096Y-122347460D01*
X228517356Y-120627880D02*
X229026804Y-120627880D01*
X228517356Y-121672880D02*
X229026804Y-121672880D01*
X232223840Y-128753776D02*
X232223840Y-129263224D01*
X231178840Y-128753776D02*
X231178840Y-129263224D01*
X205817376Y-132446500D02*
X206326824Y-132446500D01*
X205817376Y-133491500D02*
X206326824Y-133491500D01*
X203887600Y-133871876D02*
X203887600Y-134381324D01*
X202842600Y-133871876D02*
X202842600Y-134381324D01*
X202274076Y-127811000D02*
X202783524Y-127811000D01*
X202274076Y-128856000D02*
X202783524Y-128856000D01*
X202274076Y-129360400D02*
X202783524Y-129360400D01*
X202274076Y-130405400D02*
X202783524Y-130405400D01*
X209904424Y-130176800D02*
X209394976Y-130176800D01*
X209904424Y-129131800D02*
X209394976Y-129131800D01*
X205675136Y-151145980D02*
X206184584Y-151145980D01*
X205675136Y-152190980D02*
X206184584Y-152190980D01*
X212785236Y-149606740D02*
X213294684Y-149606740D01*
X212785236Y-150651740D02*
X213294684Y-150651740D01*
X216018016Y-114369320D02*
X216527464Y-114369320D01*
X216018016Y-115414320D02*
X216527464Y-115414320D01*
X204903600Y-117704776D02*
X204903600Y-118214224D01*
X203858600Y-117704776D02*
X203858600Y-118214224D01*
X223472916Y-114648720D02*
X223982364Y-114648720D01*
X223472916Y-115693720D02*
X223982364Y-115693720D01*
X223307816Y-116142240D02*
X223817264Y-116142240D01*
X223307816Y-117187240D02*
X223817264Y-117187240D01*
X231751400Y-117780976D02*
X231751400Y-118290424D01*
X230706400Y-117780976D02*
X230706400Y-118290424D01*
X206008064Y-141614420D02*
X205498616Y-141614420D01*
X206008064Y-140569420D02*
X205498616Y-140569420D01*
X199912500Y-132985416D02*
X199912500Y-133494864D01*
X198867500Y-132985416D02*
X198867500Y-133494864D01*
X193582384Y-131063260D02*
X193072936Y-131063260D01*
X193582384Y-130018260D02*
X193072936Y-130018260D01*
X190632820Y-142471224D02*
X190632820Y-141961776D01*
X191677820Y-142471224D02*
X191677820Y-141961776D01*
X198637420Y-137090056D02*
X198637420Y-137599504D01*
X197592420Y-137090056D02*
X197592420Y-137599504D01*
X195056020Y-137054496D02*
X195056020Y-137563944D01*
X194011020Y-137054496D02*
X194011020Y-137563944D01*
X210421000Y-133764100D02*
X210421000Y-132834100D01*
X210421000Y-130604100D02*
X210421000Y-131534100D01*
X210421000Y-130604100D02*
X208261000Y-130604100D01*
X210421000Y-133764100D02*
X208961000Y-133764100D01*
X206808100Y-130853300D02*
X206808100Y-129923300D01*
X206808100Y-127693300D02*
X206808100Y-128623300D01*
X206808100Y-127693300D02*
X204648100Y-127693300D01*
X206808100Y-130853300D02*
X205348100Y-130853300D01*
X205251638Y-149528600D02*
X206072122Y-149528600D01*
X205251638Y-150648600D02*
X206072122Y-150648600D01*
X229246740Y-122568660D02*
X224046740Y-122568660D01*
X229246740Y-127708660D02*
X229246740Y-122568660D01*
X224046740Y-130308660D02*
X224046740Y-122568660D01*
X229246740Y-127708660D02*
X226646740Y-127708660D01*
X226646740Y-127708660D02*
X226646740Y-130308660D01*
X226646740Y-130308660D02*
X224046740Y-130308660D01*
X229246740Y-128978660D02*
X229246740Y-130308660D01*
X229246740Y-130308660D02*
X227916740Y-130308660D01*
X198019520Y-125674120D02*
G75*
G03*
X198019520Y-125674120I-1200000J0D01*
G01*
X194514320Y-125577600D02*
G75*
G03*
X194514320Y-125577600I-1200000J0D01*
G01*
X191204060Y-149522520D02*
X191204060Y-147972520D01*
X191204060Y-149522520D02*
X191504060Y-149522520D01*
X191504060Y-152322520D02*
X191504060Y-149522520D01*
X199504060Y-149522520D02*
X199504060Y-147972520D01*
X199204060Y-149522520D02*
X199504060Y-149522520D01*
X199204060Y-152322520D02*
X199204060Y-149522520D01*
X194454060Y-146272520D02*
X194054060Y-146722520D01*
X193654060Y-146272520D02*
X194454060Y-146272520D01*
X194054060Y-146722520D02*
X193654060Y-146272520D01*
X209037120Y-144126840D02*
X213097120Y-144126840D01*
X213097120Y-144126840D02*
X213097120Y-141856840D01*
X213097120Y-141856840D02*
X209037120Y-141856840D01*
X223381900Y-132728692D02*
X223381900Y-132206188D01*
X224851900Y-132728692D02*
X224851900Y-132206188D01*
X221421020Y-132726152D02*
X221421020Y-132203648D01*
X222891020Y-132726152D02*
X222891020Y-132203648D01*
X204027300Y-144111600D02*
X208087300Y-144111600D01*
X208087300Y-144111600D02*
X208087300Y-141841600D01*
X208087300Y-141841600D02*
X204027300Y-141841600D01*
X210541000Y-149169240D02*
X207681000Y-149169240D01*
X207681000Y-149169240D02*
X207681000Y-151089240D01*
X207681000Y-151089240D02*
X210541000Y-151089240D01*
X221820080Y-113949600D02*
X218960080Y-113949600D01*
X221820080Y-115869600D02*
X221820080Y-113949600D01*
X218960080Y-115869600D02*
X221820080Y-115869600D01*
X207630900Y-122254900D02*
X211690900Y-122254900D01*
X211690900Y-122254900D02*
X211690900Y-119984900D01*
X211690900Y-119984900D02*
X207630900Y-119984900D01*
X226427560Y-116298600D02*
X230487560Y-116298600D01*
X230487560Y-116298600D02*
X230487560Y-114028600D01*
X230487560Y-114028600D02*
X226427560Y-114028600D01*
X195361680Y-136090040D02*
X195361680Y-138950040D01*
X195361680Y-138950040D02*
X197281680Y-138950040D01*
X197281680Y-138950040D02*
X197281680Y-136090040D01*
X191795520Y-136064640D02*
X191795520Y-138924640D01*
X191795520Y-138924640D02*
X193715520Y-138924640D01*
X193715520Y-138924640D02*
X193715520Y-136064640D01*
X195683600Y-121622433D02*
X195683600Y-121914967D01*
X194663600Y-121622433D02*
X194663600Y-121914967D01*
X217220413Y-116566220D02*
X217512947Y-116566220D01*
X217220413Y-117586220D02*
X217512947Y-117586220D01*
X212821133Y-130338100D02*
X213113667Y-130338100D01*
X212821133Y-131358100D02*
X213113667Y-131358100D01*
X210592453Y-140571760D02*
X210884987Y-140571760D01*
X210592453Y-141591760D02*
X210884987Y-141591760D01*
X213790820Y-111497340D02*
X205730820Y-111497340D01*
X205730820Y-111497340D02*
X205730820Y-117717340D01*
X205730820Y-117717340D02*
X213790820Y-117717340D01*
X210702107Y-136598120D02*
X210409573Y-136598120D01*
X210702107Y-135578120D02*
X210409573Y-135578120D01*
X204965840Y-137975727D02*
X204965840Y-137683193D01*
X205985840Y-137975727D02*
X205985840Y-137683193D01*
X203512033Y-111445580D02*
X203804567Y-111445580D01*
X203512033Y-112465580D02*
X203804567Y-112465580D01*
X202384120Y-145197613D02*
X202384120Y-145490147D01*
X201364120Y-145197613D02*
X201364120Y-145490147D01*
X192748712Y-129050720D02*
X192226208Y-129050720D01*
X192748712Y-127580720D02*
X192226208Y-127580720D01*
X198890160Y-130005207D02*
X198890160Y-129712673D01*
X199910160Y-130005207D02*
X199910160Y-129712673D01*
X195292593Y-145123440D02*
X195585127Y-145123440D01*
X195292593Y-146143440D02*
X195585127Y-146143440D01*
X207021560Y-145961400D02*
X207521560Y-145961400D01*
X207021560Y-147361400D02*
X207521560Y-147361400D01*
X207021560Y-147361400D02*
X207021560Y-147961400D01*
X207021560Y-147961400D02*
X206821560Y-148161400D01*
X206821560Y-145161400D02*
X207021560Y-145161400D01*
X207021560Y-145161400D02*
X207021560Y-145961400D01*
X204021560Y-145961400D02*
X204021560Y-145161400D01*
X204021560Y-145161400D02*
X204221560Y-145161400D01*
X204221560Y-148161400D02*
X204021560Y-148161400D01*
X204021560Y-148161400D02*
X204021560Y-147361400D01*
D10*
X192227271Y-111024633D02*
X192465366Y-111024633D01*
X192179652Y-111167490D02*
X192346319Y-110667490D01*
X192512985Y-111167490D01*
X192679652Y-111167490D02*
X192679652Y-110667490D01*
X192965366Y-111167490D01*
X192965366Y-110667490D01*
X193132033Y-110667490D02*
X193417747Y-110667490D01*
X193274890Y-111167490D02*
X193274890Y-110667490D01*
X213372747Y-127983490D02*
X213372747Y-128388252D01*
X213396557Y-128435871D01*
X213420366Y-128459680D01*
X213467985Y-128483490D01*
X213563223Y-128483490D01*
X213610842Y-128459680D01*
X213634652Y-128435871D01*
X213658461Y-128388252D01*
X213658461Y-127983490D01*
X213967985Y-128197776D02*
X213920366Y-128173966D01*
X213896557Y-128150157D01*
X213872747Y-128102538D01*
X213872747Y-128078728D01*
X213896557Y-128031109D01*
X213920366Y-128007300D01*
X213967985Y-127983490D01*
X214063223Y-127983490D01*
X214110842Y-128007300D01*
X214134652Y-128031109D01*
X214158461Y-128078728D01*
X214158461Y-128102538D01*
X214134652Y-128150157D01*
X214110842Y-128173966D01*
X214063223Y-128197776D01*
X213967985Y-128197776D01*
X213920366Y-128221585D01*
X213896557Y-128245395D01*
X213872747Y-128293014D01*
X213872747Y-128388252D01*
X213896557Y-128435871D01*
X213920366Y-128459680D01*
X213967985Y-128483490D01*
X214063223Y-128483490D01*
X214110842Y-128459680D01*
X214134652Y-128435871D01*
X214158461Y-128388252D01*
X214158461Y-128293014D01*
X214134652Y-128245395D01*
X214110842Y-128221585D01*
X214063223Y-128197776D01*
X207467247Y-136238490D02*
X207467247Y-136643252D01*
X207491057Y-136690871D01*
X207514866Y-136714680D01*
X207562485Y-136738490D01*
X207657723Y-136738490D01*
X207705342Y-136714680D01*
X207729152Y-136690871D01*
X207752961Y-136643252D01*
X207752961Y-136238490D01*
X207943438Y-136238490D02*
X208276771Y-136238490D01*
X208062485Y-136738490D01*
X216420747Y-151402290D02*
X216420747Y-151807052D01*
X216444557Y-151854671D01*
X216468366Y-151878480D01*
X216515985Y-151902290D01*
X216611223Y-151902290D01*
X216658842Y-151878480D01*
X216682652Y-151854671D01*
X216706461Y-151807052D01*
X216706461Y-151402290D01*
X217158842Y-151402290D02*
X217063604Y-151402290D01*
X217015985Y-151426100D01*
X216992176Y-151449909D01*
X216944557Y-151521338D01*
X216920747Y-151616576D01*
X216920747Y-151807052D01*
X216944557Y-151854671D01*
X216968366Y-151878480D01*
X217015985Y-151902290D01*
X217111223Y-151902290D01*
X217158842Y-151878480D01*
X217182652Y-151854671D01*
X217206461Y-151807052D01*
X217206461Y-151688004D01*
X217182652Y-151640385D01*
X217158842Y-151616576D01*
X217111223Y-151592766D01*
X217015985Y-151592766D01*
X216968366Y-151616576D01*
X216944557Y-151640385D01*
X216920747Y-151688004D01*
X201790347Y-141864590D02*
X201790347Y-142269352D01*
X201814157Y-142316971D01*
X201837966Y-142340780D01*
X201885585Y-142364590D01*
X201980823Y-142364590D01*
X202028442Y-142340780D01*
X202052252Y-142316971D01*
X202076061Y-142269352D01*
X202076061Y-141864590D01*
X202528442Y-142031257D02*
X202528442Y-142364590D01*
X202409395Y-141840780D02*
X202290347Y-142197923D01*
X202599871Y-142197923D01*
X197815247Y-126624590D02*
X197815247Y-127029352D01*
X197839057Y-127076971D01*
X197862866Y-127100780D01*
X197910485Y-127124590D01*
X198005723Y-127124590D01*
X198053342Y-127100780D01*
X198077152Y-127076971D01*
X198100961Y-127029352D01*
X198100961Y-126624590D01*
X198291438Y-126624590D02*
X198600961Y-126624590D01*
X198434295Y-126815066D01*
X198505723Y-126815066D01*
X198553342Y-126838876D01*
X198577152Y-126862685D01*
X198600961Y-126910304D01*
X198600961Y-127029352D01*
X198577152Y-127076971D01*
X198553342Y-127100780D01*
X198505723Y-127124590D01*
X198362866Y-127124590D01*
X198315247Y-127100780D01*
X198291438Y-127076971D01*
X194043347Y-134981190D02*
X194043347Y-135385952D01*
X194067157Y-135433571D01*
X194090966Y-135457380D01*
X194138585Y-135481190D01*
X194233823Y-135481190D01*
X194281442Y-135457380D01*
X194305252Y-135433571D01*
X194329061Y-135385952D01*
X194329061Y-134981190D01*
X194543347Y-135028809D02*
X194567157Y-135005000D01*
X194614776Y-134981190D01*
X194733823Y-134981190D01*
X194781442Y-135005000D01*
X194805252Y-135028809D01*
X194829061Y-135076428D01*
X194829061Y-135124047D01*
X194805252Y-135195476D01*
X194519538Y-135481190D01*
X194829061Y-135481190D01*
X192214547Y-145014190D02*
X192214547Y-145418952D01*
X192238357Y-145466571D01*
X192262166Y-145490380D01*
X192309785Y-145514190D01*
X192405023Y-145514190D01*
X192452642Y-145490380D01*
X192476452Y-145466571D01*
X192500261Y-145418952D01*
X192500261Y-145014190D01*
X193000261Y-145514190D02*
X192714547Y-145514190D01*
X192857404Y-145514190D02*
X192857404Y-145014190D01*
X192809785Y-145085619D01*
X192762166Y-145133238D01*
X192714547Y-145157047D01*
X210654995Y-126854757D02*
X210654995Y-127188090D01*
X210440709Y-126854757D02*
X210440709Y-127116661D01*
X210464519Y-127164280D01*
X210512138Y-127188090D01*
X210583566Y-127188090D01*
X210631185Y-127164280D01*
X210654995Y-127140471D01*
X211178804Y-127140471D02*
X211154995Y-127164280D01*
X211083566Y-127188090D01*
X211035947Y-127188090D01*
X210964519Y-127164280D01*
X210916900Y-127116661D01*
X210893090Y-127069042D01*
X210869280Y-126973804D01*
X210869280Y-126902376D01*
X210893090Y-126807138D01*
X210916900Y-126759519D01*
X210964519Y-126711900D01*
X211035947Y-126688090D01*
X211083566Y-126688090D01*
X211154995Y-126711900D01*
X211178804Y-126735709D01*
X211274042Y-127235709D02*
X211654995Y-127235709D01*
X211702614Y-126688090D02*
X211988328Y-126688090D01*
X211845471Y-127188090D02*
X211845471Y-126688090D01*
X212107376Y-126688090D02*
X212440709Y-127188090D01*
X212440709Y-126688090D02*
X212107376Y-127188090D01*
X208919071Y-123476557D02*
X208919071Y-123809890D01*
X208704785Y-123476557D02*
X208704785Y-123738461D01*
X208728595Y-123786080D01*
X208776214Y-123809890D01*
X208847642Y-123809890D01*
X208895261Y-123786080D01*
X208919071Y-123762271D01*
X209442880Y-123762271D02*
X209419071Y-123786080D01*
X209347642Y-123809890D01*
X209300023Y-123809890D01*
X209228595Y-123786080D01*
X209180976Y-123738461D01*
X209157166Y-123690842D01*
X209133357Y-123595604D01*
X209133357Y-123524176D01*
X209157166Y-123428938D01*
X209180976Y-123381319D01*
X209228595Y-123333700D01*
X209300023Y-123309890D01*
X209347642Y-123309890D01*
X209419071Y-123333700D01*
X209442880Y-123357509D01*
X209538119Y-123857509D02*
X209919071Y-123857509D01*
X210323833Y-123809890D02*
X210157166Y-123571795D01*
X210038119Y-123809890D02*
X210038119Y-123309890D01*
X210228595Y-123309890D01*
X210276214Y-123333700D01*
X210300023Y-123357509D01*
X210323833Y-123405128D01*
X210323833Y-123476557D01*
X210300023Y-123524176D01*
X210276214Y-123547985D01*
X210228595Y-123571795D01*
X210038119Y-123571795D01*
X210490500Y-123309890D02*
X210823833Y-123809890D01*
X210823833Y-123309890D02*
X210490500Y-123809890D01*
X231133709Y-111389290D02*
X230967042Y-111151195D01*
X230847995Y-111389290D02*
X230847995Y-110889290D01*
X231038471Y-110889290D01*
X231086090Y-110913100D01*
X231109900Y-110936909D01*
X231133709Y-110984528D01*
X231133709Y-111055957D01*
X231109900Y-111103576D01*
X231086090Y-111127385D01*
X231038471Y-111151195D01*
X230847995Y-111151195D01*
X231347995Y-111389290D02*
X231347995Y-110889290D01*
X231586090Y-111389290D02*
X231586090Y-110889290D01*
X231871804Y-111389290D01*
X231871804Y-110889290D01*
X232371804Y-110913100D02*
X232324185Y-110889290D01*
X232252757Y-110889290D01*
X232181328Y-110913100D01*
X232133709Y-110960719D01*
X232109900Y-111008338D01*
X232086090Y-111103576D01*
X232086090Y-111175004D01*
X232109900Y-111270242D01*
X232133709Y-111317861D01*
X232181328Y-111365480D01*
X232252757Y-111389290D01*
X232300376Y-111389290D01*
X232371804Y-111365480D01*
X232395614Y-111341671D01*
X232395614Y-111175004D01*
X232300376Y-111175004D01*
X211347180Y-118452080D02*
X211418609Y-118475890D01*
X211537657Y-118475890D01*
X211585276Y-118452080D01*
X211609085Y-118428271D01*
X211632895Y-118380652D01*
X211632895Y-118333033D01*
X211609085Y-118285414D01*
X211585276Y-118261604D01*
X211537657Y-118237795D01*
X211442419Y-118213985D01*
X211394800Y-118190176D01*
X211370990Y-118166366D01*
X211347180Y-118118747D01*
X211347180Y-118071128D01*
X211370990Y-118023509D01*
X211394800Y-117999700D01*
X211442419Y-117975890D01*
X211561466Y-117975890D01*
X211632895Y-117999700D01*
X212085276Y-118475890D02*
X211847180Y-118475890D01*
X211847180Y-117975890D01*
X212251942Y-118213985D02*
X212418609Y-118213985D01*
X212490038Y-118475890D02*
X212251942Y-118475890D01*
X212251942Y-117975890D01*
X212490038Y-117975890D01*
X212704323Y-118213985D02*
X212870990Y-118213985D01*
X212942419Y-118475890D02*
X212704323Y-118475890D01*
X212704323Y-117975890D01*
X212942419Y-117975890D01*
X213156704Y-118475890D02*
X213156704Y-117975890D01*
X213347180Y-117975890D01*
X213394800Y-117999700D01*
X213418609Y-118023509D01*
X213442419Y-118071128D01*
X213442419Y-118142557D01*
X213418609Y-118190176D01*
X213394800Y-118213985D01*
X213347180Y-118237795D01*
X213156704Y-118237795D01*
X225952180Y-119301390D02*
X225785514Y-119063295D01*
X225666466Y-119301390D02*
X225666466Y-118801390D01*
X225856942Y-118801390D01*
X225904561Y-118825200D01*
X225928371Y-118849009D01*
X225952180Y-118896628D01*
X225952180Y-118968057D01*
X225928371Y-119015676D01*
X225904561Y-119039485D01*
X225856942Y-119063295D01*
X225666466Y-119063295D01*
X226118847Y-118801390D02*
X226452180Y-119301390D01*
X226452180Y-118801390D02*
X226118847Y-119301390D01*
X226523609Y-119349009D02*
X226904561Y-119349009D01*
X227285514Y-118825200D02*
X227237895Y-118801390D01*
X227166466Y-118801390D01*
X227095038Y-118825200D01*
X227047419Y-118872819D01*
X227023609Y-118920438D01*
X226999800Y-119015676D01*
X226999800Y-119087104D01*
X227023609Y-119182342D01*
X227047419Y-119229961D01*
X227095038Y-119277580D01*
X227166466Y-119301390D01*
X227214085Y-119301390D01*
X227285514Y-119277580D01*
X227309323Y-119253771D01*
X227309323Y-119087104D01*
X227214085Y-119087104D01*
X227499800Y-119277580D02*
X227571228Y-119301390D01*
X227690276Y-119301390D01*
X227737895Y-119277580D01*
X227761704Y-119253771D01*
X227785514Y-119206152D01*
X227785514Y-119158533D01*
X227761704Y-119110914D01*
X227737895Y-119087104D01*
X227690276Y-119063295D01*
X227595038Y-119039485D01*
X227547419Y-119015676D01*
X227523609Y-118991866D01*
X227499800Y-118944247D01*
X227499800Y-118896628D01*
X227523609Y-118849009D01*
X227547419Y-118825200D01*
X227595038Y-118801390D01*
X227714085Y-118801390D01*
X227785514Y-118825200D01*
X227999800Y-119301390D02*
X227999800Y-118801390D01*
X228166466Y-119158533D01*
X228333133Y-118801390D01*
X228333133Y-119301390D01*
X224244861Y-117747290D02*
X224530576Y-117747290D01*
X224387719Y-118247290D02*
X224387719Y-117747290D01*
X224649623Y-117747290D02*
X224982957Y-118247290D01*
X224982957Y-117747290D02*
X224649623Y-118247290D01*
X225054385Y-118294909D02*
X225435338Y-118294909D01*
X225816290Y-117771100D02*
X225768671Y-117747290D01*
X225697242Y-117747290D01*
X225625814Y-117771100D01*
X225578195Y-117818719D01*
X225554385Y-117866338D01*
X225530576Y-117961576D01*
X225530576Y-118033004D01*
X225554385Y-118128242D01*
X225578195Y-118175861D01*
X225625814Y-118223480D01*
X225697242Y-118247290D01*
X225744861Y-118247290D01*
X225816290Y-118223480D01*
X225840100Y-118199671D01*
X225840100Y-118033004D01*
X225744861Y-118033004D01*
X226030576Y-118223480D02*
X226102004Y-118247290D01*
X226221052Y-118247290D01*
X226268671Y-118223480D01*
X226292480Y-118199671D01*
X226316290Y-118152052D01*
X226316290Y-118104433D01*
X226292480Y-118056814D01*
X226268671Y-118033004D01*
X226221052Y-118009195D01*
X226125814Y-117985385D01*
X226078195Y-117961576D01*
X226054385Y-117937766D01*
X226030576Y-117890147D01*
X226030576Y-117842528D01*
X226054385Y-117794909D01*
X226078195Y-117771100D01*
X226125814Y-117747290D01*
X226244861Y-117747290D01*
X226316290Y-117771100D01*
X226530576Y-118247290D02*
X226530576Y-117747290D01*
X226697242Y-118104433D01*
X226863909Y-117747290D01*
X226863909Y-118247290D01*
X216164285Y-133450000D02*
X216116666Y-133426190D01*
X216045238Y-133426190D01*
X215973809Y-133450000D01*
X215926190Y-133497619D01*
X215902380Y-133545238D01*
X215878571Y-133640476D01*
X215878571Y-133711904D01*
X215902380Y-133807142D01*
X215926190Y-133854761D01*
X215973809Y-133902380D01*
X216045238Y-133926190D01*
X216092857Y-133926190D01*
X216164285Y-133902380D01*
X216188095Y-133878571D01*
X216188095Y-133711904D01*
X216092857Y-133711904D01*
X216402380Y-133926190D02*
X216402380Y-133426190D01*
X216592857Y-133426190D01*
X216640476Y-133450000D01*
X216664285Y-133473809D01*
X216688095Y-133521428D01*
X216688095Y-133592857D01*
X216664285Y-133640476D01*
X216640476Y-133664285D01*
X216592857Y-133688095D01*
X216402380Y-133688095D01*
X216878571Y-133902380D02*
X216950000Y-133926190D01*
X217069047Y-133926190D01*
X217116666Y-133902380D01*
X217140476Y-133878571D01*
X217164285Y-133830952D01*
X217164285Y-133783333D01*
X217140476Y-133735714D01*
X217116666Y-133711904D01*
X217069047Y-133688095D01*
X216973809Y-133664285D01*
X216926190Y-133640476D01*
X216902380Y-133616666D01*
X216878571Y-133569047D01*
X216878571Y-133521428D01*
X216902380Y-133473809D01*
X216926190Y-133450000D01*
X216973809Y-133426190D01*
X217092857Y-133426190D01*
X217164285Y-133450000D01*
X217259523Y-133973809D02*
X217640476Y-133973809D01*
X218045238Y-133926190D02*
X217878571Y-133688095D01*
X217759523Y-133926190D02*
X217759523Y-133426190D01*
X217950000Y-133426190D01*
X217997619Y-133450000D01*
X218021428Y-133473809D01*
X218045238Y-133521428D01*
X218045238Y-133592857D01*
X218021428Y-133640476D01*
X217997619Y-133664285D01*
X217950000Y-133688095D01*
X217759523Y-133688095D01*
X218211904Y-133426190D02*
X218545238Y-133926190D01*
X218545238Y-133426190D02*
X218211904Y-133926190D01*
X217133609Y-135373300D02*
X217085990Y-135349490D01*
X217014561Y-135349490D01*
X216943133Y-135373300D01*
X216895514Y-135420919D01*
X216871704Y-135468538D01*
X216847895Y-135563776D01*
X216847895Y-135635204D01*
X216871704Y-135730442D01*
X216895514Y-135778061D01*
X216943133Y-135825680D01*
X217014561Y-135849490D01*
X217062180Y-135849490D01*
X217133609Y-135825680D01*
X217157419Y-135801871D01*
X217157419Y-135635204D01*
X217062180Y-135635204D01*
X217371704Y-135849490D02*
X217371704Y-135349490D01*
X217562180Y-135349490D01*
X217609800Y-135373300D01*
X217633609Y-135397109D01*
X217657419Y-135444728D01*
X217657419Y-135516157D01*
X217633609Y-135563776D01*
X217609800Y-135587585D01*
X217562180Y-135611395D01*
X217371704Y-135611395D01*
X217847895Y-135825680D02*
X217919323Y-135849490D01*
X218038371Y-135849490D01*
X218085990Y-135825680D01*
X218109800Y-135801871D01*
X218133609Y-135754252D01*
X218133609Y-135706633D01*
X218109800Y-135659014D01*
X218085990Y-135635204D01*
X218038371Y-135611395D01*
X217943133Y-135587585D01*
X217895514Y-135563776D01*
X217871704Y-135539966D01*
X217847895Y-135492347D01*
X217847895Y-135444728D01*
X217871704Y-135397109D01*
X217895514Y-135373300D01*
X217943133Y-135349490D01*
X218062180Y-135349490D01*
X218133609Y-135373300D01*
X218228847Y-135897109D02*
X218609800Y-135897109D01*
X218657419Y-135349490D02*
X218943133Y-135349490D01*
X218800276Y-135849490D02*
X218800276Y-135349490D01*
X219062180Y-135349490D02*
X219395514Y-135849490D01*
X219395514Y-135349490D02*
X219062180Y-135849490D01*
X204935271Y-123257500D02*
X204887652Y-123233690D01*
X204816223Y-123233690D01*
X204744795Y-123257500D01*
X204697176Y-123305119D01*
X204673366Y-123352738D01*
X204649557Y-123447976D01*
X204649557Y-123519404D01*
X204673366Y-123614642D01*
X204697176Y-123662261D01*
X204744795Y-123709880D01*
X204816223Y-123733690D01*
X204863842Y-123733690D01*
X204935271Y-123709880D01*
X204959080Y-123686071D01*
X204959080Y-123519404D01*
X204863842Y-123519404D01*
X205173366Y-123733690D02*
X205173366Y-123233690D01*
X205363842Y-123233690D01*
X205411461Y-123257500D01*
X205435271Y-123281309D01*
X205459080Y-123328928D01*
X205459080Y-123400357D01*
X205435271Y-123447976D01*
X205411461Y-123471785D01*
X205363842Y-123495595D01*
X205173366Y-123495595D01*
X205649557Y-123709880D02*
X205720985Y-123733690D01*
X205840033Y-123733690D01*
X205887652Y-123709880D01*
X205911461Y-123686071D01*
X205935271Y-123638452D01*
X205935271Y-123590833D01*
X205911461Y-123543214D01*
X205887652Y-123519404D01*
X205840033Y-123495595D01*
X205744795Y-123471785D01*
X205697176Y-123447976D01*
X205673366Y-123424166D01*
X205649557Y-123376547D01*
X205649557Y-123328928D01*
X205673366Y-123281309D01*
X205697176Y-123257500D01*
X205744795Y-123233690D01*
X205863842Y-123233690D01*
X205935271Y-123257500D01*
X206030509Y-123781309D02*
X206411461Y-123781309D01*
X206625747Y-123233690D02*
X206720985Y-123233690D01*
X206768604Y-123257500D01*
X206816223Y-123305119D01*
X206840033Y-123400357D01*
X206840033Y-123567023D01*
X206816223Y-123662261D01*
X206768604Y-123709880D01*
X206720985Y-123733690D01*
X206625747Y-123733690D01*
X206578128Y-123709880D01*
X206530509Y-123662261D01*
X206506700Y-123567023D01*
X206506700Y-123400357D01*
X206530509Y-123305119D01*
X206578128Y-123257500D01*
X206625747Y-123233690D01*
X207054319Y-123733690D02*
X207054319Y-123233690D01*
X207340033Y-123733690D01*
X207340033Y-123233690D01*
X196233290Y-118264785D02*
X196304719Y-118288595D01*
X196328528Y-118312404D01*
X196352338Y-118360023D01*
X196352338Y-118431452D01*
X196328528Y-118479071D01*
X196304719Y-118502880D01*
X196257100Y-118526690D01*
X196066623Y-118526690D01*
X196066623Y-118026690D01*
X196233290Y-118026690D01*
X196280909Y-118050500D01*
X196304719Y-118074309D01*
X196328528Y-118121928D01*
X196328528Y-118169547D01*
X196304719Y-118217166D01*
X196280909Y-118240976D01*
X196233290Y-118264785D01*
X196066623Y-118264785D01*
X196566623Y-118336214D02*
X196947576Y-118336214D01*
X196757100Y-118526690D02*
X196757100Y-118145738D01*
X202390452Y-136746490D02*
X202699976Y-136746490D01*
X202533309Y-136936966D01*
X202604738Y-136936966D01*
X202652357Y-136960776D01*
X202676166Y-136984585D01*
X202699976Y-137032204D01*
X202699976Y-137151252D01*
X202676166Y-137198871D01*
X202652357Y-137222680D01*
X202604738Y-137246490D01*
X202461880Y-137246490D01*
X202414261Y-137222680D01*
X202390452Y-137198871D01*
X202842833Y-136746490D02*
X203009500Y-137246490D01*
X203176166Y-136746490D01*
X203295214Y-136746490D02*
X203604738Y-136746490D01*
X203438071Y-136936966D01*
X203509500Y-136936966D01*
X203557119Y-136960776D01*
X203580928Y-136984585D01*
X203604738Y-137032204D01*
X203604738Y-137151252D01*
X203580928Y-137198871D01*
X203557119Y-137222680D01*
X203509500Y-137246490D01*
X203366642Y-137246490D01*
X203319023Y-137222680D01*
X203295214Y-137198871D01*
X191211247Y-115459700D02*
X191163628Y-115435890D01*
X191092200Y-115435890D01*
X191020771Y-115459700D01*
X190973152Y-115507319D01*
X190949342Y-115554938D01*
X190925533Y-115650176D01*
X190925533Y-115721604D01*
X190949342Y-115816842D01*
X190973152Y-115864461D01*
X191020771Y-115912080D01*
X191092200Y-115935890D01*
X191139819Y-115935890D01*
X191211247Y-115912080D01*
X191235057Y-115888271D01*
X191235057Y-115721604D01*
X191139819Y-115721604D01*
X191449342Y-115935890D02*
X191449342Y-115435890D01*
X191735057Y-115935890D01*
X191735057Y-115435890D01*
X191973152Y-115935890D02*
X191973152Y-115435890D01*
X192092200Y-115435890D01*
X192163628Y-115459700D01*
X192211247Y-115507319D01*
X192235057Y-115554938D01*
X192258866Y-115650176D01*
X192258866Y-115721604D01*
X192235057Y-115816842D01*
X192211247Y-115864461D01*
X192163628Y-115912080D01*
X192092200Y-115935890D01*
X191973152Y-115935890D01*
X226487871Y-134973190D02*
X226321204Y-134735095D01*
X226202157Y-134973190D02*
X226202157Y-134473190D01*
X226392633Y-134473190D01*
X226440252Y-134497000D01*
X226464061Y-134520809D01*
X226487871Y-134568428D01*
X226487871Y-134639857D01*
X226464061Y-134687476D01*
X226440252Y-134711285D01*
X226392633Y-134735095D01*
X226202157Y-134735095D01*
X226678347Y-134520809D02*
X226702157Y-134497000D01*
X226749776Y-134473190D01*
X226868823Y-134473190D01*
X226916442Y-134497000D01*
X226940252Y-134520809D01*
X226964061Y-134568428D01*
X226964061Y-134616047D01*
X226940252Y-134687476D01*
X226654538Y-134973190D01*
X226964061Y-134973190D01*
X227130728Y-134473190D02*
X227464061Y-134473190D01*
X227249776Y-134973190D01*
X225306771Y-135747890D02*
X225140104Y-135509795D01*
X225021057Y-135747890D02*
X225021057Y-135247890D01*
X225211533Y-135247890D01*
X225259152Y-135271700D01*
X225282961Y-135295509D01*
X225306771Y-135343128D01*
X225306771Y-135414557D01*
X225282961Y-135462176D01*
X225259152Y-135485985D01*
X225211533Y-135509795D01*
X225021057Y-135509795D01*
X225497247Y-135295509D02*
X225521057Y-135271700D01*
X225568676Y-135247890D01*
X225687723Y-135247890D01*
X225735342Y-135271700D01*
X225759152Y-135295509D01*
X225782961Y-135343128D01*
X225782961Y-135390747D01*
X225759152Y-135462176D01*
X225473438Y-135747890D01*
X225782961Y-135747890D01*
X226211533Y-135247890D02*
X226116295Y-135247890D01*
X226068676Y-135271700D01*
X226044866Y-135295509D01*
X225997247Y-135366938D01*
X225973438Y-135462176D01*
X225973438Y-135652652D01*
X225997247Y-135700271D01*
X226021057Y-135724080D01*
X226068676Y-135747890D01*
X226163914Y-135747890D01*
X226211533Y-135724080D01*
X226235342Y-135700271D01*
X226259152Y-135652652D01*
X226259152Y-135533604D01*
X226235342Y-135485985D01*
X226211533Y-135462176D01*
X226163914Y-135438366D01*
X226068676Y-135438366D01*
X226021057Y-135462176D01*
X225997247Y-135485985D01*
X225973438Y-135533604D01*
X207602971Y-127556390D02*
X207436304Y-127318295D01*
X207317257Y-127556390D02*
X207317257Y-127056390D01*
X207507733Y-127056390D01*
X207555352Y-127080200D01*
X207579161Y-127104009D01*
X207602971Y-127151628D01*
X207602971Y-127223057D01*
X207579161Y-127270676D01*
X207555352Y-127294485D01*
X207507733Y-127318295D01*
X207317257Y-127318295D01*
X207793447Y-127104009D02*
X207817257Y-127080200D01*
X207864876Y-127056390D01*
X207983923Y-127056390D01*
X208031542Y-127080200D01*
X208055352Y-127104009D01*
X208079161Y-127151628D01*
X208079161Y-127199247D01*
X208055352Y-127270676D01*
X207769638Y-127556390D01*
X208079161Y-127556390D01*
X208531542Y-127056390D02*
X208293447Y-127056390D01*
X208269638Y-127294485D01*
X208293447Y-127270676D01*
X208341066Y-127246866D01*
X208460114Y-127246866D01*
X208507733Y-127270676D01*
X208531542Y-127294485D01*
X208555352Y-127342104D01*
X208555352Y-127461152D01*
X208531542Y-127508771D01*
X208507733Y-127532580D01*
X208460114Y-127556390D01*
X208341066Y-127556390D01*
X208293447Y-127532580D01*
X208269638Y-127508771D01*
X192020071Y-119898290D02*
X191853404Y-119660195D01*
X191734357Y-119898290D02*
X191734357Y-119398290D01*
X191924833Y-119398290D01*
X191972452Y-119422100D01*
X191996261Y-119445909D01*
X192020071Y-119493528D01*
X192020071Y-119564957D01*
X191996261Y-119612576D01*
X191972452Y-119636385D01*
X191924833Y-119660195D01*
X191734357Y-119660195D01*
X192210547Y-119445909D02*
X192234357Y-119422100D01*
X192281976Y-119398290D01*
X192401023Y-119398290D01*
X192448642Y-119422100D01*
X192472452Y-119445909D01*
X192496261Y-119493528D01*
X192496261Y-119541147D01*
X192472452Y-119612576D01*
X192186738Y-119898290D01*
X192496261Y-119898290D01*
X192924833Y-119564957D02*
X192924833Y-119898290D01*
X192805785Y-119374480D02*
X192686738Y-119731623D01*
X192996261Y-119731623D01*
X192070871Y-124203590D02*
X191904204Y-123965495D01*
X191785157Y-124203590D02*
X191785157Y-123703590D01*
X191975633Y-123703590D01*
X192023252Y-123727400D01*
X192047061Y-123751209D01*
X192070871Y-123798828D01*
X192070871Y-123870257D01*
X192047061Y-123917876D01*
X192023252Y-123941685D01*
X191975633Y-123965495D01*
X191785157Y-123965495D01*
X192261347Y-123751209D02*
X192285157Y-123727400D01*
X192332776Y-123703590D01*
X192451823Y-123703590D01*
X192499442Y-123727400D01*
X192523252Y-123751209D01*
X192547061Y-123798828D01*
X192547061Y-123846447D01*
X192523252Y-123917876D01*
X192237538Y-124203590D01*
X192547061Y-124203590D01*
X192713728Y-123703590D02*
X193023252Y-123703590D01*
X192856585Y-123894066D01*
X192928014Y-123894066D01*
X192975633Y-123917876D01*
X192999442Y-123941685D01*
X193023252Y-123989304D01*
X193023252Y-124108352D01*
X192999442Y-124155971D01*
X192975633Y-124179780D01*
X192928014Y-124203590D01*
X192785157Y-124203590D01*
X192737538Y-124179780D01*
X192713728Y-124155971D01*
X228443671Y-120317390D02*
X228277004Y-120079295D01*
X228157957Y-120317390D02*
X228157957Y-119817390D01*
X228348433Y-119817390D01*
X228396052Y-119841200D01*
X228419861Y-119865009D01*
X228443671Y-119912628D01*
X228443671Y-119984057D01*
X228419861Y-120031676D01*
X228396052Y-120055485D01*
X228348433Y-120079295D01*
X228157957Y-120079295D01*
X228634147Y-119865009D02*
X228657957Y-119841200D01*
X228705576Y-119817390D01*
X228824623Y-119817390D01*
X228872242Y-119841200D01*
X228896052Y-119865009D01*
X228919861Y-119912628D01*
X228919861Y-119960247D01*
X228896052Y-120031676D01*
X228610338Y-120317390D01*
X228919861Y-120317390D01*
X229110338Y-119865009D02*
X229134147Y-119841200D01*
X229181766Y-119817390D01*
X229300814Y-119817390D01*
X229348433Y-119841200D01*
X229372242Y-119865009D01*
X229396052Y-119912628D01*
X229396052Y-119960247D01*
X229372242Y-120031676D01*
X229086528Y-120317390D01*
X229396052Y-120317390D01*
X231390071Y-127200790D02*
X231223404Y-126962695D01*
X231104357Y-127200790D02*
X231104357Y-126700790D01*
X231294833Y-126700790D01*
X231342452Y-126724600D01*
X231366261Y-126748409D01*
X231390071Y-126796028D01*
X231390071Y-126867457D01*
X231366261Y-126915076D01*
X231342452Y-126938885D01*
X231294833Y-126962695D01*
X231104357Y-126962695D01*
X231580547Y-126748409D02*
X231604357Y-126724600D01*
X231651976Y-126700790D01*
X231771023Y-126700790D01*
X231818642Y-126724600D01*
X231842452Y-126748409D01*
X231866261Y-126796028D01*
X231866261Y-126843647D01*
X231842452Y-126915076D01*
X231556738Y-127200790D01*
X231866261Y-127200790D01*
X232342452Y-127200790D02*
X232056738Y-127200790D01*
X232199595Y-127200790D02*
X232199595Y-126700790D01*
X232151976Y-126772219D01*
X232104357Y-126819838D01*
X232056738Y-126843647D01*
X205748771Y-132128390D02*
X205582104Y-131890295D01*
X205463057Y-132128390D02*
X205463057Y-131628390D01*
X205653533Y-131628390D01*
X205701152Y-131652200D01*
X205724961Y-131676009D01*
X205748771Y-131723628D01*
X205748771Y-131795057D01*
X205724961Y-131842676D01*
X205701152Y-131866485D01*
X205653533Y-131890295D01*
X205463057Y-131890295D01*
X205939247Y-131676009D02*
X205963057Y-131652200D01*
X206010676Y-131628390D01*
X206129723Y-131628390D01*
X206177342Y-131652200D01*
X206201152Y-131676009D01*
X206224961Y-131723628D01*
X206224961Y-131771247D01*
X206201152Y-131842676D01*
X205915438Y-132128390D01*
X206224961Y-132128390D01*
X206534485Y-131628390D02*
X206582104Y-131628390D01*
X206629723Y-131652200D01*
X206653533Y-131676009D01*
X206677342Y-131723628D01*
X206701152Y-131818866D01*
X206701152Y-131937914D01*
X206677342Y-132033152D01*
X206653533Y-132080771D01*
X206629723Y-132104580D01*
X206582104Y-132128390D01*
X206534485Y-132128390D01*
X206486866Y-132104580D01*
X206463057Y-132080771D01*
X206439247Y-132033152D01*
X206415438Y-131937914D01*
X206415438Y-131818866D01*
X206439247Y-131723628D01*
X206463057Y-131676009D01*
X206486866Y-131652200D01*
X206534485Y-131628390D01*
X203043671Y-132331590D02*
X202877004Y-132093495D01*
X202757957Y-132331590D02*
X202757957Y-131831590D01*
X202948433Y-131831590D01*
X202996052Y-131855400D01*
X203019861Y-131879209D01*
X203043671Y-131926828D01*
X203043671Y-131998257D01*
X203019861Y-132045876D01*
X202996052Y-132069685D01*
X202948433Y-132093495D01*
X202757957Y-132093495D01*
X203519861Y-132331590D02*
X203234147Y-132331590D01*
X203377004Y-132331590D02*
X203377004Y-131831590D01*
X203329385Y-131903019D01*
X203281766Y-131950638D01*
X203234147Y-131974447D01*
X203757957Y-132331590D02*
X203853195Y-132331590D01*
X203900814Y-132307780D01*
X203924623Y-132283971D01*
X203972242Y-132212542D01*
X203996052Y-132117304D01*
X203996052Y-131926828D01*
X203972242Y-131879209D01*
X203948433Y-131855400D01*
X203900814Y-131831590D01*
X203805576Y-131831590D01*
X203757957Y-131855400D01*
X203734147Y-131879209D01*
X203710338Y-131926828D01*
X203710338Y-132045876D01*
X203734147Y-132093495D01*
X203757957Y-132117304D01*
X203805576Y-132141114D01*
X203900814Y-132141114D01*
X203948433Y-132117304D01*
X203972242Y-132093495D01*
X203996052Y-132045876D01*
X202207371Y-127505590D02*
X202040704Y-127267495D01*
X201921657Y-127505590D02*
X201921657Y-127005590D01*
X202112133Y-127005590D01*
X202159752Y-127029400D01*
X202183561Y-127053209D01*
X202207371Y-127100828D01*
X202207371Y-127172257D01*
X202183561Y-127219876D01*
X202159752Y-127243685D01*
X202112133Y-127267495D01*
X201921657Y-127267495D01*
X202683561Y-127505590D02*
X202397847Y-127505590D01*
X202540704Y-127505590D02*
X202540704Y-127005590D01*
X202493085Y-127077019D01*
X202445466Y-127124638D01*
X202397847Y-127148447D01*
X202850228Y-127005590D02*
X203183561Y-127005590D01*
X202969276Y-127505590D01*
X202205471Y-131239390D02*
X202038804Y-131001295D01*
X201919757Y-131239390D02*
X201919757Y-130739390D01*
X202110233Y-130739390D01*
X202157852Y-130763200D01*
X202181661Y-130787009D01*
X202205471Y-130834628D01*
X202205471Y-130906057D01*
X202181661Y-130953676D01*
X202157852Y-130977485D01*
X202110233Y-131001295D01*
X201919757Y-131001295D01*
X202681661Y-131239390D02*
X202395947Y-131239390D01*
X202538804Y-131239390D02*
X202538804Y-130739390D01*
X202491185Y-130810819D01*
X202443566Y-130858438D01*
X202395947Y-130882247D01*
X203110233Y-130739390D02*
X203014995Y-130739390D01*
X202967376Y-130763200D01*
X202943566Y-130787009D01*
X202895947Y-130858438D01*
X202872138Y-130953676D01*
X202872138Y-131144152D01*
X202895947Y-131191771D01*
X202919757Y-131215580D01*
X202967376Y-131239390D01*
X203062614Y-131239390D01*
X203110233Y-131215580D01*
X203134042Y-131191771D01*
X203157852Y-131144152D01*
X203157852Y-131025104D01*
X203134042Y-130977485D01*
X203110233Y-130953676D01*
X203062614Y-130929866D01*
X202967376Y-130929866D01*
X202919757Y-130953676D01*
X202895947Y-130977485D01*
X202872138Y-131025104D01*
X209558771Y-128788290D02*
X209392104Y-128550195D01*
X209273057Y-128788290D02*
X209273057Y-128288290D01*
X209463533Y-128288290D01*
X209511152Y-128312100D01*
X209534961Y-128335909D01*
X209558771Y-128383528D01*
X209558771Y-128454957D01*
X209534961Y-128502576D01*
X209511152Y-128526385D01*
X209463533Y-128550195D01*
X209273057Y-128550195D01*
X210034961Y-128788290D02*
X209749247Y-128788290D01*
X209892104Y-128788290D02*
X209892104Y-128288290D01*
X209844485Y-128359719D01*
X209796866Y-128407338D01*
X209749247Y-128431147D01*
X210487342Y-128288290D02*
X210249247Y-128288290D01*
X210225438Y-128526385D01*
X210249247Y-128502576D01*
X210296866Y-128478766D01*
X210415914Y-128478766D01*
X210463533Y-128502576D01*
X210487342Y-128526385D01*
X210511152Y-128574004D01*
X210511152Y-128693052D01*
X210487342Y-128740671D01*
X210463533Y-128764480D01*
X210415914Y-128788290D01*
X210296866Y-128788290D01*
X210249247Y-128764480D01*
X210225438Y-128740671D01*
X203183371Y-151876890D02*
X203016704Y-151638795D01*
X202897657Y-151876890D02*
X202897657Y-151376890D01*
X203088133Y-151376890D01*
X203135752Y-151400700D01*
X203159561Y-151424509D01*
X203183371Y-151472128D01*
X203183371Y-151543557D01*
X203159561Y-151591176D01*
X203135752Y-151614985D01*
X203088133Y-151638795D01*
X202897657Y-151638795D01*
X203659561Y-151876890D02*
X203373847Y-151876890D01*
X203516704Y-151876890D02*
X203516704Y-151376890D01*
X203469085Y-151448319D01*
X203421466Y-151495938D01*
X203373847Y-151519747D01*
X203826228Y-151376890D02*
X204135752Y-151376890D01*
X203969085Y-151567366D01*
X204040514Y-151567366D01*
X204088133Y-151591176D01*
X204111942Y-151614985D01*
X204135752Y-151662604D01*
X204135752Y-151781652D01*
X204111942Y-151829271D01*
X204088133Y-151853080D01*
X204040514Y-151876890D01*
X203897657Y-151876890D01*
X203850038Y-151853080D01*
X203826228Y-151829271D01*
X212708371Y-149349590D02*
X212541704Y-149111495D01*
X212422657Y-149349590D02*
X212422657Y-148849590D01*
X212613133Y-148849590D01*
X212660752Y-148873400D01*
X212684561Y-148897209D01*
X212708371Y-148944828D01*
X212708371Y-149016257D01*
X212684561Y-149063876D01*
X212660752Y-149087685D01*
X212613133Y-149111495D01*
X212422657Y-149111495D01*
X213184561Y-149349590D02*
X212898847Y-149349590D01*
X213041704Y-149349590D02*
X213041704Y-148849590D01*
X212994085Y-148921019D01*
X212946466Y-148968638D01*
X212898847Y-148992447D01*
X213375038Y-148897209D02*
X213398847Y-148873400D01*
X213446466Y-148849590D01*
X213565514Y-148849590D01*
X213613133Y-148873400D01*
X213636942Y-148897209D01*
X213660752Y-148944828D01*
X213660752Y-148992447D01*
X213636942Y-149063876D01*
X213351228Y-149349590D01*
X213660752Y-149349590D01*
X215959571Y-114018190D02*
X215792904Y-113780095D01*
X215673857Y-114018190D02*
X215673857Y-113518190D01*
X215864333Y-113518190D01*
X215911952Y-113542000D01*
X215935761Y-113565809D01*
X215959571Y-113613428D01*
X215959571Y-113684857D01*
X215935761Y-113732476D01*
X215911952Y-113756285D01*
X215864333Y-113780095D01*
X215673857Y-113780095D01*
X216435761Y-114018190D02*
X216150047Y-114018190D01*
X216292904Y-114018190D02*
X216292904Y-113518190D01*
X216245285Y-113589619D01*
X216197666Y-113637238D01*
X216150047Y-113661047D01*
X216911952Y-114018190D02*
X216626238Y-114018190D01*
X216769095Y-114018190D02*
X216769095Y-113518190D01*
X216721476Y-113589619D01*
X216673857Y-113637238D01*
X216626238Y-113661047D01*
X204059671Y-116164490D02*
X203893004Y-115926395D01*
X203773957Y-116164490D02*
X203773957Y-115664490D01*
X203964433Y-115664490D01*
X204012052Y-115688300D01*
X204035861Y-115712109D01*
X204059671Y-115759728D01*
X204059671Y-115831157D01*
X204035861Y-115878776D01*
X204012052Y-115902585D01*
X203964433Y-115926395D01*
X203773957Y-115926395D01*
X204535861Y-116164490D02*
X204250147Y-116164490D01*
X204393004Y-116164490D02*
X204393004Y-115664490D01*
X204345385Y-115735919D01*
X204297766Y-115783538D01*
X204250147Y-115807347D01*
X204845385Y-115664490D02*
X204893004Y-115664490D01*
X204940623Y-115688300D01*
X204964433Y-115712109D01*
X204988242Y-115759728D01*
X205012052Y-115854966D01*
X205012052Y-115974014D01*
X204988242Y-116069252D01*
X204964433Y-116116871D01*
X204940623Y-116140680D01*
X204893004Y-116164490D01*
X204845385Y-116164490D01*
X204797766Y-116140680D01*
X204773957Y-116116871D01*
X204750147Y-116069252D01*
X204726338Y-115974014D01*
X204726338Y-115854966D01*
X204750147Y-115759728D01*
X204773957Y-115712109D01*
X204797766Y-115688300D01*
X204845385Y-115664490D01*
X223817666Y-114322990D02*
X223651000Y-114084895D01*
X223531952Y-114322990D02*
X223531952Y-113822990D01*
X223722428Y-113822990D01*
X223770047Y-113846800D01*
X223793857Y-113870609D01*
X223817666Y-113918228D01*
X223817666Y-113989657D01*
X223793857Y-114037276D01*
X223770047Y-114061085D01*
X223722428Y-114084895D01*
X223531952Y-114084895D01*
X224055761Y-114322990D02*
X224151000Y-114322990D01*
X224198619Y-114299180D01*
X224222428Y-114275371D01*
X224270047Y-114203942D01*
X224293857Y-114108704D01*
X224293857Y-113918228D01*
X224270047Y-113870609D01*
X224246238Y-113846800D01*
X224198619Y-113822990D01*
X224103380Y-113822990D01*
X224055761Y-113846800D01*
X224031952Y-113870609D01*
X224008142Y-113918228D01*
X224008142Y-114037276D01*
X224031952Y-114084895D01*
X224055761Y-114108704D01*
X224103380Y-114132514D01*
X224198619Y-114132514D01*
X224246238Y-114108704D01*
X224270047Y-114084895D01*
X224293857Y-114037276D01*
X225608366Y-116888390D02*
X225441700Y-116650295D01*
X225322652Y-116888390D02*
X225322652Y-116388390D01*
X225513128Y-116388390D01*
X225560747Y-116412200D01*
X225584557Y-116436009D01*
X225608366Y-116483628D01*
X225608366Y-116555057D01*
X225584557Y-116602676D01*
X225560747Y-116626485D01*
X225513128Y-116650295D01*
X225322652Y-116650295D01*
X225894080Y-116602676D02*
X225846461Y-116578866D01*
X225822652Y-116555057D01*
X225798842Y-116507438D01*
X225798842Y-116483628D01*
X225822652Y-116436009D01*
X225846461Y-116412200D01*
X225894080Y-116388390D01*
X225989319Y-116388390D01*
X226036938Y-116412200D01*
X226060747Y-116436009D01*
X226084557Y-116483628D01*
X226084557Y-116507438D01*
X226060747Y-116555057D01*
X226036938Y-116578866D01*
X225989319Y-116602676D01*
X225894080Y-116602676D01*
X225846461Y-116626485D01*
X225822652Y-116650295D01*
X225798842Y-116697914D01*
X225798842Y-116793152D01*
X225822652Y-116840771D01*
X225846461Y-116864580D01*
X225894080Y-116888390D01*
X225989319Y-116888390D01*
X226036938Y-116864580D01*
X226060747Y-116840771D01*
X226084557Y-116793152D01*
X226084557Y-116697914D01*
X226060747Y-116650295D01*
X226036938Y-116626485D01*
X225989319Y-116602676D01*
X231145566Y-116177190D02*
X230978900Y-115939095D01*
X230859852Y-116177190D02*
X230859852Y-115677190D01*
X231050328Y-115677190D01*
X231097947Y-115701000D01*
X231121757Y-115724809D01*
X231145566Y-115772428D01*
X231145566Y-115843857D01*
X231121757Y-115891476D01*
X231097947Y-115915285D01*
X231050328Y-115939095D01*
X230859852Y-115939095D01*
X231312233Y-115677190D02*
X231645566Y-115677190D01*
X231431280Y-116177190D01*
X205656666Y-140243690D02*
X205490000Y-140005595D01*
X205370952Y-140243690D02*
X205370952Y-139743690D01*
X205561428Y-139743690D01*
X205609047Y-139767500D01*
X205632857Y-139791309D01*
X205656666Y-139838928D01*
X205656666Y-139910357D01*
X205632857Y-139957976D01*
X205609047Y-139981785D01*
X205561428Y-140005595D01*
X205370952Y-140005595D01*
X206085238Y-139743690D02*
X205990000Y-139743690D01*
X205942380Y-139767500D01*
X205918571Y-139791309D01*
X205870952Y-139862738D01*
X205847142Y-139957976D01*
X205847142Y-140148452D01*
X205870952Y-140196071D01*
X205894761Y-140219880D01*
X205942380Y-140243690D01*
X206037619Y-140243690D01*
X206085238Y-140219880D01*
X206109047Y-140196071D01*
X206132857Y-140148452D01*
X206132857Y-140029404D01*
X206109047Y-139981785D01*
X206085238Y-139957976D01*
X206037619Y-139934166D01*
X205942380Y-139934166D01*
X205894761Y-139957976D01*
X205870952Y-139981785D01*
X205847142Y-140029404D01*
X200513166Y-132928490D02*
X200346500Y-132690395D01*
X200227452Y-132928490D02*
X200227452Y-132428490D01*
X200417928Y-132428490D01*
X200465547Y-132452300D01*
X200489357Y-132476109D01*
X200513166Y-132523728D01*
X200513166Y-132595157D01*
X200489357Y-132642776D01*
X200465547Y-132666585D01*
X200417928Y-132690395D01*
X200227452Y-132690395D01*
X200965547Y-132428490D02*
X200727452Y-132428490D01*
X200703642Y-132666585D01*
X200727452Y-132642776D01*
X200775071Y-132618966D01*
X200894119Y-132618966D01*
X200941738Y-132642776D01*
X200965547Y-132666585D01*
X200989357Y-132714204D01*
X200989357Y-132833252D01*
X200965547Y-132880871D01*
X200941738Y-132904680D01*
X200894119Y-132928490D01*
X200775071Y-132928490D01*
X200727452Y-132904680D01*
X200703642Y-132880871D01*
X191064366Y-130858390D02*
X190897700Y-130620295D01*
X190778652Y-130858390D02*
X190778652Y-130358390D01*
X190969128Y-130358390D01*
X191016747Y-130382200D01*
X191040557Y-130406009D01*
X191064366Y-130453628D01*
X191064366Y-130525057D01*
X191040557Y-130572676D01*
X191016747Y-130596485D01*
X190969128Y-130620295D01*
X190778652Y-130620295D01*
X191492938Y-130525057D02*
X191492938Y-130858390D01*
X191373890Y-130334580D02*
X191254842Y-130691723D01*
X191564366Y-130691723D01*
X191373890Y-140189733D02*
X191135795Y-140356400D01*
X191373890Y-140475447D02*
X190873890Y-140475447D01*
X190873890Y-140284971D01*
X190897700Y-140237352D01*
X190921509Y-140213542D01*
X190969128Y-140189733D01*
X191040557Y-140189733D01*
X191088176Y-140213542D01*
X191111985Y-140237352D01*
X191135795Y-140284971D01*
X191135795Y-140475447D01*
X190873890Y-140023066D02*
X190873890Y-139713542D01*
X191064366Y-139880209D01*
X191064366Y-139808780D01*
X191088176Y-139761161D01*
X191111985Y-139737352D01*
X191159604Y-139713542D01*
X191278652Y-139713542D01*
X191326271Y-139737352D01*
X191350080Y-139761161D01*
X191373890Y-139808780D01*
X191373890Y-139951638D01*
X191350080Y-139999257D01*
X191326271Y-140023066D01*
X198023966Y-139494390D02*
X197857300Y-139256295D01*
X197738252Y-139494390D02*
X197738252Y-138994390D01*
X197928728Y-138994390D01*
X197976347Y-139018200D01*
X198000157Y-139042009D01*
X198023966Y-139089628D01*
X198023966Y-139161057D01*
X198000157Y-139208676D01*
X197976347Y-139232485D01*
X197928728Y-139256295D01*
X197738252Y-139256295D01*
X198214442Y-139042009D02*
X198238252Y-139018200D01*
X198285871Y-138994390D01*
X198404919Y-138994390D01*
X198452538Y-139018200D01*
X198476347Y-139042009D01*
X198500157Y-139089628D01*
X198500157Y-139137247D01*
X198476347Y-139208676D01*
X198190633Y-139494390D01*
X198500157Y-139494390D01*
X194163166Y-139507090D02*
X193996500Y-139268995D01*
X193877452Y-139507090D02*
X193877452Y-139007090D01*
X194067928Y-139007090D01*
X194115547Y-139030900D01*
X194139357Y-139054709D01*
X194163166Y-139102328D01*
X194163166Y-139173757D01*
X194139357Y-139221376D01*
X194115547Y-139245185D01*
X194067928Y-139268995D01*
X193877452Y-139268995D01*
X194639357Y-139507090D02*
X194353642Y-139507090D01*
X194496500Y-139507090D02*
X194496500Y-139007090D01*
X194448880Y-139078519D01*
X194401261Y-139126138D01*
X194353642Y-139149947D01*
X209616680Y-134652509D02*
X209569061Y-134628700D01*
X209521442Y-134581080D01*
X209450014Y-134509652D01*
X209402395Y-134485842D01*
X209354776Y-134485842D01*
X209378585Y-134604890D02*
X209330966Y-134581080D01*
X209283347Y-134533461D01*
X209259538Y-134438223D01*
X209259538Y-134271557D01*
X209283347Y-134176319D01*
X209330966Y-134128700D01*
X209378585Y-134104890D01*
X209473823Y-134104890D01*
X209521442Y-134128700D01*
X209569061Y-134176319D01*
X209592871Y-134271557D01*
X209592871Y-134438223D01*
X209569061Y-134533461D01*
X209521442Y-134581080D01*
X209473823Y-134604890D01*
X209378585Y-134604890D01*
X209783347Y-134152509D02*
X209807157Y-134128700D01*
X209854776Y-134104890D01*
X209973823Y-134104890D01*
X210021442Y-134128700D01*
X210045252Y-134152509D01*
X210069061Y-134200128D01*
X210069061Y-134247747D01*
X210045252Y-134319176D01*
X209759538Y-134604890D01*
X210069061Y-134604890D01*
X206000480Y-127477009D02*
X205952861Y-127453200D01*
X205905242Y-127405580D01*
X205833814Y-127334152D01*
X205786195Y-127310342D01*
X205738576Y-127310342D01*
X205762385Y-127429390D02*
X205714766Y-127405580D01*
X205667147Y-127357961D01*
X205643338Y-127262723D01*
X205643338Y-127096057D01*
X205667147Y-127000819D01*
X205714766Y-126953200D01*
X205762385Y-126929390D01*
X205857623Y-126929390D01*
X205905242Y-126953200D01*
X205952861Y-127000819D01*
X205976671Y-127096057D01*
X205976671Y-127262723D01*
X205952861Y-127357961D01*
X205905242Y-127405580D01*
X205857623Y-127429390D01*
X205762385Y-127429390D01*
X206452861Y-127429390D02*
X206167147Y-127429390D01*
X206310004Y-127429390D02*
X206310004Y-126929390D01*
X206262385Y-127000819D01*
X206214766Y-127048438D01*
X206167147Y-127072247D01*
X203218266Y-150314790D02*
X202980171Y-150314790D01*
X202980171Y-149814790D01*
X203646838Y-150314790D02*
X203361123Y-150314790D01*
X203503980Y-150314790D02*
X203503980Y-149814790D01*
X203456361Y-149886219D01*
X203408742Y-149933838D01*
X203361123Y-149957647D01*
X227007142Y-131026190D02*
X227007142Y-130526190D01*
X227197619Y-130526190D01*
X227245238Y-130550000D01*
X227269047Y-130573809D01*
X227292857Y-130621428D01*
X227292857Y-130692857D01*
X227269047Y-130740476D01*
X227245238Y-130764285D01*
X227197619Y-130788095D01*
X227007142Y-130788095D01*
X227792857Y-131026190D02*
X227626190Y-130788095D01*
X227507142Y-131026190D02*
X227507142Y-130526190D01*
X227697619Y-130526190D01*
X227745238Y-130550000D01*
X227769047Y-130573809D01*
X227792857Y-130621428D01*
X227792857Y-130692857D01*
X227769047Y-130740476D01*
X227745238Y-130764285D01*
X227697619Y-130788095D01*
X227507142Y-130788095D01*
X228102380Y-130526190D02*
X228197619Y-130526190D01*
X228245238Y-130550000D01*
X228292857Y-130597619D01*
X228316666Y-130692857D01*
X228316666Y-130859523D01*
X228292857Y-130954761D01*
X228245238Y-131002380D01*
X228197619Y-131026190D01*
X228102380Y-131026190D01*
X228054761Y-131002380D01*
X228007142Y-130954761D01*
X227983333Y-130859523D01*
X227983333Y-130692857D01*
X228007142Y-130597619D01*
X228054761Y-130550000D01*
X228102380Y-130526190D01*
X228792857Y-130550000D02*
X228745238Y-130526190D01*
X228673809Y-130526190D01*
X228602380Y-130550000D01*
X228554761Y-130597619D01*
X228530952Y-130645238D01*
X228507142Y-130740476D01*
X228507142Y-130811904D01*
X228530952Y-130907142D01*
X228554761Y-130954761D01*
X228602380Y-131002380D01*
X228673809Y-131026190D01*
X228721428Y-131026190D01*
X228792857Y-131002380D01*
X228816666Y-130978571D01*
X228816666Y-130811904D01*
X228721428Y-130811904D01*
X198379590Y-125630785D02*
X198451019Y-125654595D01*
X198474828Y-125678404D01*
X198498638Y-125726023D01*
X198498638Y-125797452D01*
X198474828Y-125845071D01*
X198451019Y-125868880D01*
X198403400Y-125892690D01*
X198212923Y-125892690D01*
X198212923Y-125392690D01*
X198379590Y-125392690D01*
X198427209Y-125416500D01*
X198451019Y-125440309D01*
X198474828Y-125487928D01*
X198474828Y-125535547D01*
X198451019Y-125583166D01*
X198427209Y-125606976D01*
X198379590Y-125630785D01*
X198212923Y-125630785D01*
X198712923Y-125702214D02*
X199093876Y-125702214D01*
X191229490Y-125541885D02*
X191300919Y-125565695D01*
X191324728Y-125589504D01*
X191348538Y-125637123D01*
X191348538Y-125708552D01*
X191324728Y-125756171D01*
X191300919Y-125779980D01*
X191253300Y-125803790D01*
X191062823Y-125803790D01*
X191062823Y-125303790D01*
X191229490Y-125303790D01*
X191277109Y-125327600D01*
X191300919Y-125351409D01*
X191324728Y-125399028D01*
X191324728Y-125446647D01*
X191300919Y-125494266D01*
X191277109Y-125518076D01*
X191229490Y-125541885D01*
X191062823Y-125541885D01*
X191562823Y-125613314D02*
X191943776Y-125613314D01*
X191753300Y-125803790D02*
X191753300Y-125422838D01*
X198575633Y-146017490D02*
X198575633Y-146374633D01*
X198551823Y-146446061D01*
X198504204Y-146493680D01*
X198432776Y-146517490D01*
X198385157Y-146517490D01*
X199075633Y-146517490D02*
X198789919Y-146517490D01*
X198932776Y-146517490D02*
X198932776Y-146017490D01*
X198885157Y-146088919D01*
X198837538Y-146136538D01*
X198789919Y-146160347D01*
X210029977Y-144853790D02*
X210029977Y-144353790D01*
X210149024Y-144353790D01*
X210220453Y-144377600D01*
X210268072Y-144425219D01*
X210291881Y-144472838D01*
X210315691Y-144568076D01*
X210315691Y-144639504D01*
X210291881Y-144734742D01*
X210268072Y-144782361D01*
X210220453Y-144829980D01*
X210149024Y-144853790D01*
X210029977Y-144853790D01*
X210791881Y-144853790D02*
X210506167Y-144853790D01*
X210649024Y-144853790D02*
X210649024Y-144353790D01*
X210601405Y-144425219D01*
X210553786Y-144472838D01*
X210506167Y-144496647D01*
X211101405Y-144353790D02*
X211149024Y-144353790D01*
X211196643Y-144377600D01*
X211220453Y-144401409D01*
X211244262Y-144449028D01*
X211268072Y-144544266D01*
X211268072Y-144663314D01*
X211244262Y-144758552D01*
X211220453Y-144806171D01*
X211196643Y-144829980D01*
X211149024Y-144853790D01*
X211101405Y-144853790D01*
X211053786Y-144829980D01*
X211029977Y-144806171D01*
X211006167Y-144758552D01*
X210982358Y-144663314D01*
X210982358Y-144544266D01*
X211006167Y-144449028D01*
X211029977Y-144401409D01*
X211053786Y-144377600D01*
X211101405Y-144353790D01*
X223084912Y-130599310D02*
X223084912Y-130099310D01*
X223203960Y-130099310D01*
X223275388Y-130123120D01*
X223323007Y-130170739D01*
X223346817Y-130218358D01*
X223370626Y-130313596D01*
X223370626Y-130385024D01*
X223346817Y-130480262D01*
X223323007Y-130527881D01*
X223275388Y-130575500D01*
X223203960Y-130599310D01*
X223084912Y-130599310D01*
X223608721Y-130599310D02*
X223703960Y-130599310D01*
X223751579Y-130575500D01*
X223775388Y-130551691D01*
X223823007Y-130480262D01*
X223846817Y-130385024D01*
X223846817Y-130194548D01*
X223823007Y-130146929D01*
X223799198Y-130123120D01*
X223751579Y-130099310D01*
X223656340Y-130099310D01*
X223608721Y-130123120D01*
X223584912Y-130146929D01*
X223561102Y-130194548D01*
X223561102Y-130313596D01*
X223584912Y-130361215D01*
X223608721Y-130385024D01*
X223656340Y-130408834D01*
X223751579Y-130408834D01*
X223799198Y-130385024D01*
X223823007Y-130361215D01*
X223846817Y-130313596D01*
X221804752Y-130490090D02*
X221804752Y-129990090D01*
X221923800Y-129990090D01*
X221995228Y-130013900D01*
X222042847Y-130061519D01*
X222066657Y-130109138D01*
X222090466Y-130204376D01*
X222090466Y-130275804D01*
X222066657Y-130371042D01*
X222042847Y-130418661D01*
X221995228Y-130466280D01*
X221923800Y-130490090D01*
X221804752Y-130490090D01*
X222376180Y-130204376D02*
X222328561Y-130180566D01*
X222304752Y-130156757D01*
X222280942Y-130109138D01*
X222280942Y-130085328D01*
X222304752Y-130037709D01*
X222328561Y-130013900D01*
X222376180Y-129990090D01*
X222471419Y-129990090D01*
X222519038Y-130013900D01*
X222542847Y-130037709D01*
X222566657Y-130085328D01*
X222566657Y-130109138D01*
X222542847Y-130156757D01*
X222519038Y-130180566D01*
X222471419Y-130204376D01*
X222376180Y-130204376D01*
X222328561Y-130228185D01*
X222304752Y-130251995D01*
X222280942Y-130299614D01*
X222280942Y-130394852D01*
X222304752Y-130442471D01*
X222328561Y-130466280D01*
X222376180Y-130490090D01*
X222471419Y-130490090D01*
X222519038Y-130466280D01*
X222542847Y-130442471D01*
X222566657Y-130394852D01*
X222566657Y-130299614D01*
X222542847Y-130251995D01*
X222519038Y-130228185D01*
X222471419Y-130204376D01*
X207517252Y-141691490D02*
X207517252Y-141191490D01*
X207636300Y-141191490D01*
X207707728Y-141215300D01*
X207755347Y-141262919D01*
X207779157Y-141310538D01*
X207802966Y-141405776D01*
X207802966Y-141477204D01*
X207779157Y-141572442D01*
X207755347Y-141620061D01*
X207707728Y-141667680D01*
X207636300Y-141691490D01*
X207517252Y-141691490D01*
X207969633Y-141191490D02*
X208302966Y-141191490D01*
X208088680Y-141691490D01*
X209155552Y-148993990D02*
X209155552Y-148493990D01*
X209274600Y-148493990D01*
X209346028Y-148517800D01*
X209393647Y-148565419D01*
X209417457Y-148613038D01*
X209441266Y-148708276D01*
X209441266Y-148779704D01*
X209417457Y-148874942D01*
X209393647Y-148922561D01*
X209346028Y-148970180D01*
X209274600Y-148993990D01*
X209155552Y-148993990D01*
X209869838Y-148493990D02*
X209774600Y-148493990D01*
X209726980Y-148517800D01*
X209703171Y-148541609D01*
X209655552Y-148613038D01*
X209631742Y-148708276D01*
X209631742Y-148898752D01*
X209655552Y-148946371D01*
X209679361Y-148970180D01*
X209726980Y-148993990D01*
X209822219Y-148993990D01*
X209869838Y-148970180D01*
X209893647Y-148946371D01*
X209917457Y-148898752D01*
X209917457Y-148779704D01*
X209893647Y-148732085D01*
X209869838Y-148708276D01*
X209822219Y-148684466D01*
X209726980Y-148684466D01*
X209679361Y-148708276D01*
X209655552Y-148732085D01*
X209631742Y-148779704D01*
X219594952Y-113802290D02*
X219594952Y-113302290D01*
X219714000Y-113302290D01*
X219785428Y-113326100D01*
X219833047Y-113373719D01*
X219856857Y-113421338D01*
X219880666Y-113516576D01*
X219880666Y-113588004D01*
X219856857Y-113683242D01*
X219833047Y-113730861D01*
X219785428Y-113778480D01*
X219714000Y-113802290D01*
X219594952Y-113802290D01*
X220333047Y-113302290D02*
X220094952Y-113302290D01*
X220071142Y-113540385D01*
X220094952Y-113516576D01*
X220142571Y-113492766D01*
X220261619Y-113492766D01*
X220309238Y-113516576D01*
X220333047Y-113540385D01*
X220356857Y-113588004D01*
X220356857Y-113707052D01*
X220333047Y-113754671D01*
X220309238Y-113778480D01*
X220261619Y-113802290D01*
X220142571Y-113802290D01*
X220094952Y-113778480D01*
X220071142Y-113754671D01*
X208863452Y-119682390D02*
X208863452Y-119182390D01*
X208982500Y-119182390D01*
X209053928Y-119206200D01*
X209101547Y-119253819D01*
X209125357Y-119301438D01*
X209149166Y-119396676D01*
X209149166Y-119468104D01*
X209125357Y-119563342D01*
X209101547Y-119610961D01*
X209053928Y-119658580D01*
X208982500Y-119682390D01*
X208863452Y-119682390D01*
X209577738Y-119349057D02*
X209577738Y-119682390D01*
X209458690Y-119158580D02*
X209339642Y-119515723D01*
X209649166Y-119515723D01*
X227659452Y-113891190D02*
X227659452Y-113391190D01*
X227778500Y-113391190D01*
X227849928Y-113415000D01*
X227897547Y-113462619D01*
X227921357Y-113510238D01*
X227945166Y-113605476D01*
X227945166Y-113676904D01*
X227921357Y-113772142D01*
X227897547Y-113819761D01*
X227849928Y-113867380D01*
X227778500Y-113891190D01*
X227659452Y-113891190D01*
X228111833Y-113391190D02*
X228421357Y-113391190D01*
X228254690Y-113581666D01*
X228326119Y-113581666D01*
X228373738Y-113605476D01*
X228397547Y-113629285D01*
X228421357Y-113676904D01*
X228421357Y-113795952D01*
X228397547Y-113843571D01*
X228373738Y-113867380D01*
X228326119Y-113891190D01*
X228183261Y-113891190D01*
X228135642Y-113867380D01*
X228111833Y-113843571D01*
X196138052Y-139507090D02*
X196138052Y-139007090D01*
X196257100Y-139007090D01*
X196328528Y-139030900D01*
X196376147Y-139078519D01*
X196399957Y-139126138D01*
X196423766Y-139221376D01*
X196423766Y-139292804D01*
X196399957Y-139388042D01*
X196376147Y-139435661D01*
X196328528Y-139483280D01*
X196257100Y-139507090D01*
X196138052Y-139507090D01*
X196614242Y-139054709D02*
X196638052Y-139030900D01*
X196685671Y-139007090D01*
X196804719Y-139007090D01*
X196852338Y-139030900D01*
X196876147Y-139054709D01*
X196899957Y-139102328D01*
X196899957Y-139149947D01*
X196876147Y-139221376D01*
X196590433Y-139507090D01*
X196899957Y-139507090D01*
X192289952Y-139507090D02*
X192289952Y-139007090D01*
X192409000Y-139007090D01*
X192480428Y-139030900D01*
X192528047Y-139078519D01*
X192551857Y-139126138D01*
X192575666Y-139221376D01*
X192575666Y-139292804D01*
X192551857Y-139388042D01*
X192528047Y-139435661D01*
X192480428Y-139483280D01*
X192409000Y-139507090D01*
X192289952Y-139507090D01*
X193051857Y-139507090D02*
X192766142Y-139507090D01*
X192909000Y-139507090D02*
X192909000Y-139007090D01*
X192861380Y-139078519D01*
X192813761Y-139126138D01*
X192766142Y-139149947D01*
X194852171Y-124067071D02*
X194828361Y-124090880D01*
X194756933Y-124114690D01*
X194709314Y-124114690D01*
X194637885Y-124090880D01*
X194590266Y-124043261D01*
X194566457Y-123995642D01*
X194542647Y-123900404D01*
X194542647Y-123828976D01*
X194566457Y-123733738D01*
X194590266Y-123686119D01*
X194637885Y-123638500D01*
X194709314Y-123614690D01*
X194756933Y-123614690D01*
X194828361Y-123638500D01*
X194852171Y-123662309D01*
X195328361Y-124114690D02*
X195042647Y-124114690D01*
X195185504Y-124114690D02*
X195185504Y-123614690D01*
X195137885Y-123686119D01*
X195090266Y-123733738D01*
X195042647Y-123757547D01*
X195518838Y-123662309D02*
X195542647Y-123638500D01*
X195590266Y-123614690D01*
X195709314Y-123614690D01*
X195756933Y-123638500D01*
X195780742Y-123662309D01*
X195804552Y-123709928D01*
X195804552Y-123757547D01*
X195780742Y-123828976D01*
X195495028Y-124114690D01*
X195804552Y-124114690D01*
X217039071Y-116218471D02*
X217015261Y-116242280D01*
X216943833Y-116266090D01*
X216896214Y-116266090D01*
X216824785Y-116242280D01*
X216777166Y-116194661D01*
X216753357Y-116147042D01*
X216729547Y-116051804D01*
X216729547Y-115980376D01*
X216753357Y-115885138D01*
X216777166Y-115837519D01*
X216824785Y-115789900D01*
X216896214Y-115766090D01*
X216943833Y-115766090D01*
X217015261Y-115789900D01*
X217039071Y-115813709D01*
X217515261Y-116266090D02*
X217229547Y-116266090D01*
X217372404Y-116266090D02*
X217372404Y-115766090D01*
X217324785Y-115837519D01*
X217277166Y-115885138D01*
X217229547Y-115908947D01*
X217991452Y-116266090D02*
X217705738Y-116266090D01*
X217848595Y-116266090D02*
X217848595Y-115766090D01*
X217800976Y-115837519D01*
X217753357Y-115885138D01*
X217705738Y-115908947D01*
X213063971Y-129870971D02*
X213040161Y-129894780D01*
X212968733Y-129918590D01*
X212921114Y-129918590D01*
X212849685Y-129894780D01*
X212802066Y-129847161D01*
X212778257Y-129799542D01*
X212754447Y-129704304D01*
X212754447Y-129632876D01*
X212778257Y-129537638D01*
X212802066Y-129490019D01*
X212849685Y-129442400D01*
X212921114Y-129418590D01*
X212968733Y-129418590D01*
X213040161Y-129442400D01*
X213063971Y-129466209D01*
X213540161Y-129918590D02*
X213254447Y-129918590D01*
X213397304Y-129918590D02*
X213397304Y-129418590D01*
X213349685Y-129490019D01*
X213302066Y-129537638D01*
X213254447Y-129561447D01*
X213849685Y-129418590D02*
X213897304Y-129418590D01*
X213944923Y-129442400D01*
X213968733Y-129466209D01*
X213992542Y-129513828D01*
X214016352Y-129609066D01*
X214016352Y-129728114D01*
X213992542Y-129823352D01*
X213968733Y-129870971D01*
X213944923Y-129894780D01*
X213897304Y-129918590D01*
X213849685Y-129918590D01*
X213802066Y-129894780D01*
X213778257Y-129870971D01*
X213754447Y-129823352D01*
X213730638Y-129728114D01*
X213730638Y-129609066D01*
X213754447Y-129513828D01*
X213778257Y-129466209D01*
X213802066Y-129442400D01*
X213849685Y-129418590D01*
X213048066Y-141275571D02*
X213024257Y-141299380D01*
X212952828Y-141323190D01*
X212905209Y-141323190D01*
X212833780Y-141299380D01*
X212786161Y-141251761D01*
X212762352Y-141204142D01*
X212738542Y-141108904D01*
X212738542Y-141037476D01*
X212762352Y-140942238D01*
X212786161Y-140894619D01*
X212833780Y-140847000D01*
X212905209Y-140823190D01*
X212952828Y-140823190D01*
X213024257Y-140847000D01*
X213048066Y-140870809D01*
X213286161Y-141323190D02*
X213381400Y-141323190D01*
X213429019Y-141299380D01*
X213452828Y-141275571D01*
X213500447Y-141204142D01*
X213524257Y-141108904D01*
X213524257Y-140918428D01*
X213500447Y-140870809D01*
X213476638Y-140847000D01*
X213429019Y-140823190D01*
X213333780Y-140823190D01*
X213286161Y-140847000D01*
X213262352Y-140870809D01*
X213238542Y-140918428D01*
X213238542Y-141037476D01*
X213262352Y-141085095D01*
X213286161Y-141108904D01*
X213333780Y-141132714D01*
X213429019Y-141132714D01*
X213476638Y-141108904D01*
X213500447Y-141085095D01*
X213524257Y-141037476D01*
X210057486Y-111303571D02*
X210033677Y-111327380D01*
X209962248Y-111351190D01*
X209914629Y-111351190D01*
X209843200Y-111327380D01*
X209795581Y-111279761D01*
X209771772Y-111232142D01*
X209747962Y-111136904D01*
X209747962Y-111065476D01*
X209771772Y-110970238D01*
X209795581Y-110922619D01*
X209843200Y-110875000D01*
X209914629Y-110851190D01*
X209962248Y-110851190D01*
X210033677Y-110875000D01*
X210057486Y-110898809D01*
X210343200Y-111065476D02*
X210295581Y-111041666D01*
X210271772Y-111017857D01*
X210247962Y-110970238D01*
X210247962Y-110946428D01*
X210271772Y-110898809D01*
X210295581Y-110875000D01*
X210343200Y-110851190D01*
X210438439Y-110851190D01*
X210486058Y-110875000D01*
X210509867Y-110898809D01*
X210533677Y-110946428D01*
X210533677Y-110970238D01*
X210509867Y-111017857D01*
X210486058Y-111041666D01*
X210438439Y-111065476D01*
X210343200Y-111065476D01*
X210295581Y-111089285D01*
X210271772Y-111113095D01*
X210247962Y-111160714D01*
X210247962Y-111255952D01*
X210271772Y-111303571D01*
X210295581Y-111327380D01*
X210343200Y-111351190D01*
X210438439Y-111351190D01*
X210486058Y-111327380D01*
X210509867Y-111303571D01*
X210533677Y-111255952D01*
X210533677Y-111160714D01*
X210509867Y-111113095D01*
X210486058Y-111089285D01*
X210438439Y-111065476D01*
X212628966Y-136284471D02*
X212605157Y-136308280D01*
X212533728Y-136332090D01*
X212486109Y-136332090D01*
X212414680Y-136308280D01*
X212367061Y-136260661D01*
X212343252Y-136213042D01*
X212319442Y-136117804D01*
X212319442Y-136046376D01*
X212343252Y-135951138D01*
X212367061Y-135903519D01*
X212414680Y-135855900D01*
X212486109Y-135832090D01*
X212533728Y-135832090D01*
X212605157Y-135855900D01*
X212628966Y-135879709D01*
X212795633Y-135832090D02*
X213128966Y-135832090D01*
X212914680Y-136332090D01*
X205389966Y-136017771D02*
X205366157Y-136041580D01*
X205294728Y-136065390D01*
X205247109Y-136065390D01*
X205175680Y-136041580D01*
X205128061Y-135993961D01*
X205104252Y-135946342D01*
X205080442Y-135851104D01*
X205080442Y-135779676D01*
X205104252Y-135684438D01*
X205128061Y-135636819D01*
X205175680Y-135589200D01*
X205247109Y-135565390D01*
X205294728Y-135565390D01*
X205366157Y-135589200D01*
X205389966Y-135613009D01*
X205818538Y-135565390D02*
X205723300Y-135565390D01*
X205675680Y-135589200D01*
X205651871Y-135613009D01*
X205604252Y-135684438D01*
X205580442Y-135779676D01*
X205580442Y-135970152D01*
X205604252Y-136017771D01*
X205628061Y-136041580D01*
X205675680Y-136065390D01*
X205770919Y-136065390D01*
X205818538Y-136041580D01*
X205842347Y-136017771D01*
X205866157Y-135970152D01*
X205866157Y-135851104D01*
X205842347Y-135803485D01*
X205818538Y-135779676D01*
X205770919Y-135755866D01*
X205675680Y-135755866D01*
X205628061Y-135779676D01*
X205604252Y-135803485D01*
X205580442Y-135851104D01*
X203561166Y-111087671D02*
X203537357Y-111111480D01*
X203465928Y-111135290D01*
X203418309Y-111135290D01*
X203346880Y-111111480D01*
X203299261Y-111063861D01*
X203275452Y-111016242D01*
X203251642Y-110921004D01*
X203251642Y-110849576D01*
X203275452Y-110754338D01*
X203299261Y-110706719D01*
X203346880Y-110659100D01*
X203418309Y-110635290D01*
X203465928Y-110635290D01*
X203537357Y-110659100D01*
X203561166Y-110682909D01*
X204013547Y-110635290D02*
X203775452Y-110635290D01*
X203751642Y-110873385D01*
X203775452Y-110849576D01*
X203823071Y-110825766D01*
X203942119Y-110825766D01*
X203989738Y-110849576D01*
X204013547Y-110873385D01*
X204037357Y-110921004D01*
X204037357Y-111040052D01*
X204013547Y-111087671D01*
X203989738Y-111111480D01*
X203942119Y-111135290D01*
X203823071Y-111135290D01*
X203775452Y-111111480D01*
X203751642Y-111087671D01*
X201770466Y-143421871D02*
X201746657Y-143445680D01*
X201675228Y-143469490D01*
X201627609Y-143469490D01*
X201556180Y-143445680D01*
X201508561Y-143398061D01*
X201484752Y-143350442D01*
X201460942Y-143255204D01*
X201460942Y-143183776D01*
X201484752Y-143088538D01*
X201508561Y-143040919D01*
X201556180Y-142993300D01*
X201627609Y-142969490D01*
X201675228Y-142969490D01*
X201746657Y-142993300D01*
X201770466Y-143017109D01*
X202199038Y-143136157D02*
X202199038Y-143469490D01*
X202079990Y-142945680D02*
X201960942Y-143302823D01*
X202270466Y-143302823D01*
X191496166Y-127165871D02*
X191472357Y-127189680D01*
X191400928Y-127213490D01*
X191353309Y-127213490D01*
X191281880Y-127189680D01*
X191234261Y-127142061D01*
X191210452Y-127094442D01*
X191186642Y-126999204D01*
X191186642Y-126927776D01*
X191210452Y-126832538D01*
X191234261Y-126784919D01*
X191281880Y-126737300D01*
X191353309Y-126713490D01*
X191400928Y-126713490D01*
X191472357Y-126737300D01*
X191496166Y-126761109D01*
X191662833Y-126713490D02*
X191972357Y-126713490D01*
X191805690Y-126903966D01*
X191877119Y-126903966D01*
X191924738Y-126927776D01*
X191948547Y-126951585D01*
X191972357Y-126999204D01*
X191972357Y-127118252D01*
X191948547Y-127165871D01*
X191924738Y-127189680D01*
X191877119Y-127213490D01*
X191734261Y-127213490D01*
X191686642Y-127189680D01*
X191662833Y-127165871D01*
X199319366Y-127889771D02*
X199295557Y-127913580D01*
X199224128Y-127937390D01*
X199176509Y-127937390D01*
X199105080Y-127913580D01*
X199057461Y-127865961D01*
X199033652Y-127818342D01*
X199009842Y-127723104D01*
X199009842Y-127651676D01*
X199033652Y-127556438D01*
X199057461Y-127508819D01*
X199105080Y-127461200D01*
X199176509Y-127437390D01*
X199224128Y-127437390D01*
X199295557Y-127461200D01*
X199319366Y-127485009D01*
X199509842Y-127485009D02*
X199533652Y-127461200D01*
X199581271Y-127437390D01*
X199700319Y-127437390D01*
X199747938Y-127461200D01*
X199771747Y-127485009D01*
X199795557Y-127532628D01*
X199795557Y-127580247D01*
X199771747Y-127651676D01*
X199486033Y-127937390D01*
X199795557Y-127937390D01*
X197388966Y-145568171D02*
X197365157Y-145591980D01*
X197293728Y-145615790D01*
X197246109Y-145615790D01*
X197174680Y-145591980D01*
X197127061Y-145544361D01*
X197103252Y-145496742D01*
X197079442Y-145401504D01*
X197079442Y-145330076D01*
X197103252Y-145234838D01*
X197127061Y-145187219D01*
X197174680Y-145139600D01*
X197246109Y-145115790D01*
X197293728Y-145115790D01*
X197365157Y-145139600D01*
X197388966Y-145163409D01*
X197865157Y-145615790D02*
X197579442Y-145615790D01*
X197722300Y-145615790D02*
X197722300Y-145115790D01*
X197674680Y-145187219D01*
X197627061Y-145234838D01*
X197579442Y-145258647D01*
X208141166Y-146742933D02*
X208379261Y-146742933D01*
X208093547Y-146885790D02*
X208260214Y-146385790D01*
X208426880Y-146885790D01*
X208593547Y-146623885D02*
X208760214Y-146623885D01*
X208831642Y-146885790D02*
X208593547Y-146885790D01*
X208593547Y-146385790D01*
X208831642Y-146385790D01*
X209022119Y-146433409D02*
X209045928Y-146409600D01*
X209093547Y-146385790D01*
X209212595Y-146385790D01*
X209260214Y-146409600D01*
X209284023Y-146433409D01*
X209307833Y-146481028D01*
X209307833Y-146528647D01*
X209284023Y-146600076D01*
X208998309Y-146885790D01*
X209307833Y-146885790D01*
%LPC*%
D15*
X192798700Y-113271300D03*
D16*
X213569220Y-126630660D03*
X213569220Y-125830660D03*
X213569220Y-125030660D03*
X213569220Y-124230660D03*
X213569220Y-123430660D03*
X213569220Y-122630660D03*
X213569220Y-121830660D03*
X213569220Y-121030660D03*
D17*
X215019220Y-119580660D03*
X215819220Y-119580660D03*
X216619220Y-119580660D03*
X217419220Y-119580660D03*
X218219220Y-119580660D03*
X219019220Y-119580660D03*
X219819220Y-119580660D03*
X220619220Y-119580660D03*
D16*
X222069220Y-121030660D03*
X222069220Y-121830660D03*
X222069220Y-122630660D03*
X222069220Y-123430660D03*
X222069220Y-124230660D03*
X222069220Y-125030660D03*
X222069220Y-125830660D03*
X222069220Y-126630660D03*
D17*
X220619220Y-128080660D03*
X219819220Y-128080660D03*
X219019220Y-128080660D03*
X218219220Y-128080660D03*
X217419220Y-128080660D03*
X216619220Y-128080660D03*
X215819220Y-128080660D03*
X215019220Y-128080660D03*
G36*
G01*
X213033980Y-137727840D02*
X213033980Y-137527840D01*
G75*
G02*
X213133980Y-137427840I100000J0D01*
G01*
X214408980Y-137427840D01*
G75*
G02*
X214508980Y-137527840I0J-100000D01*
G01*
X214508980Y-137727840D01*
G75*
G02*
X214408980Y-137827840I-100000J0D01*
G01*
X213133980Y-137827840D01*
G75*
G02*
X213033980Y-137727840I0J100000D01*
G01*
G37*
G36*
G01*
X213033980Y-138377840D02*
X213033980Y-138177840D01*
G75*
G02*
X213133980Y-138077840I100000J0D01*
G01*
X214408980Y-138077840D01*
G75*
G02*
X214508980Y-138177840I0J-100000D01*
G01*
X214508980Y-138377840D01*
G75*
G02*
X214408980Y-138477840I-100000J0D01*
G01*
X213133980Y-138477840D01*
G75*
G02*
X213033980Y-138377840I0J100000D01*
G01*
G37*
G36*
G01*
X213033980Y-139027840D02*
X213033980Y-138827840D01*
G75*
G02*
X213133980Y-138727840I100000J0D01*
G01*
X214408980Y-138727840D01*
G75*
G02*
X214508980Y-138827840I0J-100000D01*
G01*
X214508980Y-139027840D01*
G75*
G02*
X214408980Y-139127840I-100000J0D01*
G01*
X213133980Y-139127840D01*
G75*
G02*
X213033980Y-139027840I0J100000D01*
G01*
G37*
G36*
G01*
X213033980Y-139677840D02*
X213033980Y-139477840D01*
G75*
G02*
X213133980Y-139377840I100000J0D01*
G01*
X214408980Y-139377840D01*
G75*
G02*
X214508980Y-139477840I0J-100000D01*
G01*
X214508980Y-139677840D01*
G75*
G02*
X214408980Y-139777840I-100000J0D01*
G01*
X213133980Y-139777840D01*
G75*
G02*
X213033980Y-139677840I0J100000D01*
G01*
G37*
G36*
G01*
X207308980Y-139677840D02*
X207308980Y-139477840D01*
G75*
G02*
X207408980Y-139377840I100000J0D01*
G01*
X208683980Y-139377840D01*
G75*
G02*
X208783980Y-139477840I0J-100000D01*
G01*
X208783980Y-139677840D01*
G75*
G02*
X208683980Y-139777840I-100000J0D01*
G01*
X207408980Y-139777840D01*
G75*
G02*
X207308980Y-139677840I0J100000D01*
G01*
G37*
G36*
G01*
X207308980Y-139027840D02*
X207308980Y-138827840D01*
G75*
G02*
X207408980Y-138727840I100000J0D01*
G01*
X208683980Y-138727840D01*
G75*
G02*
X208783980Y-138827840I0J-100000D01*
G01*
X208783980Y-139027840D01*
G75*
G02*
X208683980Y-139127840I-100000J0D01*
G01*
X207408980Y-139127840D01*
G75*
G02*
X207308980Y-139027840I0J100000D01*
G01*
G37*
G36*
G01*
X207308980Y-138377840D02*
X207308980Y-138177840D01*
G75*
G02*
X207408980Y-138077840I100000J0D01*
G01*
X208683980Y-138077840D01*
G75*
G02*
X208783980Y-138177840I0J-100000D01*
G01*
X208783980Y-138377840D01*
G75*
G02*
X208683980Y-138477840I-100000J0D01*
G01*
X207408980Y-138477840D01*
G75*
G02*
X207308980Y-138377840I0J100000D01*
G01*
G37*
G36*
G01*
X207308980Y-137727840D02*
X207308980Y-137527840D01*
G75*
G02*
X207408980Y-137427840I100000J0D01*
G01*
X208683980Y-137427840D01*
G75*
G02*
X208783980Y-137527840I0J-100000D01*
G01*
X208783980Y-137727840D01*
G75*
G02*
X208683980Y-137827840I-100000J0D01*
G01*
X207408980Y-137827840D01*
G75*
G02*
X207308980Y-137727840I0J100000D01*
G01*
G37*
D18*
X216113600Y-138007840D03*
X217213600Y-138007840D03*
X218313600Y-138007840D03*
X219413600Y-138007840D03*
X220513600Y-138007840D03*
X221613600Y-138007840D03*
X222713600Y-138007840D03*
X225713600Y-138007840D03*
X226813600Y-138007840D03*
X227913600Y-138007840D03*
X229013600Y-138007840D03*
X230113600Y-138007840D03*
X230113600Y-150007840D03*
X229013600Y-150007840D03*
X227913600Y-150007840D03*
X226813600Y-150007840D03*
X225713600Y-150007840D03*
X222713600Y-150007840D03*
X221613600Y-150007840D03*
X220513600Y-150007840D03*
X219413600Y-150007840D03*
X218313600Y-150007840D03*
X217213600Y-150007840D03*
X216113600Y-150007840D03*
D19*
X201218760Y-138706680D03*
X203118760Y-138706680D03*
X203118760Y-140906680D03*
X202168760Y-140906680D03*
X201218760Y-140906680D03*
G36*
G01*
X197719800Y-133161140D02*
X197919800Y-133161140D01*
G75*
G02*
X198019800Y-133261140I0J-100000D01*
G01*
X198019800Y-134536140D01*
G75*
G02*
X197919800Y-134636140I-100000J0D01*
G01*
X197719800Y-134636140D01*
G75*
G02*
X197619800Y-134536140I0J100000D01*
G01*
X197619800Y-133261140D01*
G75*
G02*
X197719800Y-133161140I100000J0D01*
G01*
G37*
G36*
G01*
X197069800Y-133161140D02*
X197269800Y-133161140D01*
G75*
G02*
X197369800Y-133261140I0J-100000D01*
G01*
X197369800Y-134536140D01*
G75*
G02*
X197269800Y-134636140I-100000J0D01*
G01*
X197069800Y-134636140D01*
G75*
G02*
X196969800Y-134536140I0J100000D01*
G01*
X196969800Y-133261140D01*
G75*
G02*
X197069800Y-133161140I100000J0D01*
G01*
G37*
G36*
G01*
X196419800Y-133161140D02*
X196619800Y-133161140D01*
G75*
G02*
X196719800Y-133261140I0J-100000D01*
G01*
X196719800Y-134536140D01*
G75*
G02*
X196619800Y-134636140I-100000J0D01*
G01*
X196419800Y-134636140D01*
G75*
G02*
X196319800Y-134536140I0J100000D01*
G01*
X196319800Y-133261140D01*
G75*
G02*
X196419800Y-133161140I100000J0D01*
G01*
G37*
G36*
G01*
X195769800Y-133161140D02*
X195969800Y-133161140D01*
G75*
G02*
X196069800Y-133261140I0J-100000D01*
G01*
X196069800Y-134536140D01*
G75*
G02*
X195969800Y-134636140I-100000J0D01*
G01*
X195769800Y-134636140D01*
G75*
G02*
X195669800Y-134536140I0J100000D01*
G01*
X195669800Y-133261140D01*
G75*
G02*
X195769800Y-133161140I100000J0D01*
G01*
G37*
G36*
G01*
X195769800Y-127436140D02*
X195969800Y-127436140D01*
G75*
G02*
X196069800Y-127536140I0J-100000D01*
G01*
X196069800Y-128811140D01*
G75*
G02*
X195969800Y-128911140I-100000J0D01*
G01*
X195769800Y-128911140D01*
G75*
G02*
X195669800Y-128811140I0J100000D01*
G01*
X195669800Y-127536140D01*
G75*
G02*
X195769800Y-127436140I100000J0D01*
G01*
G37*
G36*
G01*
X196419800Y-127436140D02*
X196619800Y-127436140D01*
G75*
G02*
X196719800Y-127536140I0J-100000D01*
G01*
X196719800Y-128811140D01*
G75*
G02*
X196619800Y-128911140I-100000J0D01*
G01*
X196419800Y-128911140D01*
G75*
G02*
X196319800Y-128811140I0J100000D01*
G01*
X196319800Y-127536140D01*
G75*
G02*
X196419800Y-127436140I100000J0D01*
G01*
G37*
G36*
G01*
X197069800Y-127436140D02*
X197269800Y-127436140D01*
G75*
G02*
X197369800Y-127536140I0J-100000D01*
G01*
X197369800Y-128811140D01*
G75*
G02*
X197269800Y-128911140I-100000J0D01*
G01*
X197069800Y-128911140D01*
G75*
G02*
X196969800Y-128811140I0J100000D01*
G01*
X196969800Y-127536140D01*
G75*
G02*
X197069800Y-127436140I100000J0D01*
G01*
G37*
G36*
G01*
X197719800Y-127436140D02*
X197919800Y-127436140D01*
G75*
G02*
X198019800Y-127536140I0J-100000D01*
G01*
X198019800Y-128811140D01*
G75*
G02*
X197919800Y-128911140I-100000J0D01*
G01*
X197719800Y-128911140D01*
G75*
G02*
X197619800Y-128811140I0J100000D01*
G01*
X197619800Y-127536140D01*
G75*
G02*
X197719800Y-127436140I100000J0D01*
G01*
G37*
D20*
X194487800Y-132161240D03*
X194487800Y-133111240D03*
X194487800Y-134061240D03*
X192167800Y-134061240D03*
X192167800Y-133111240D03*
X192167800Y-132161240D03*
D21*
X195458080Y-142189200D03*
G36*
G01*
X196958080Y-140434200D02*
X196958080Y-140134200D01*
G75*
G02*
X197108080Y-139984200I150000J0D01*
G01*
X198758080Y-139984200D01*
G75*
G02*
X198908080Y-140134200I0J-150000D01*
G01*
X198908080Y-140434200D01*
G75*
G02*
X198758080Y-140584200I-150000J0D01*
G01*
X197108080Y-140584200D01*
G75*
G02*
X196958080Y-140434200I0J150000D01*
G01*
G37*
G36*
G01*
X196958080Y-141704200D02*
X196958080Y-141404200D01*
G75*
G02*
X197108080Y-141254200I150000J0D01*
G01*
X198758080Y-141254200D01*
G75*
G02*
X198908080Y-141404200I0J-150000D01*
G01*
X198908080Y-141704200D01*
G75*
G02*
X198758080Y-141854200I-150000J0D01*
G01*
X197108080Y-141854200D01*
G75*
G02*
X196958080Y-141704200I0J150000D01*
G01*
G37*
G36*
G01*
X196958080Y-142974200D02*
X196958080Y-142674200D01*
G75*
G02*
X197108080Y-142524200I150000J0D01*
G01*
X198758080Y-142524200D01*
G75*
G02*
X198908080Y-142674200I0J-150000D01*
G01*
X198908080Y-142974200D01*
G75*
G02*
X198758080Y-143124200I-150000J0D01*
G01*
X197108080Y-143124200D01*
G75*
G02*
X196958080Y-142974200I0J150000D01*
G01*
G37*
G36*
G01*
X196958080Y-144244200D02*
X196958080Y-143944200D01*
G75*
G02*
X197108080Y-143794200I150000J0D01*
G01*
X198758080Y-143794200D01*
G75*
G02*
X198908080Y-143944200I0J-150000D01*
G01*
X198908080Y-144244200D01*
G75*
G02*
X198758080Y-144394200I-150000J0D01*
G01*
X197108080Y-144394200D01*
G75*
G02*
X196958080Y-144244200I0J150000D01*
G01*
G37*
G36*
G01*
X192008080Y-144244200D02*
X192008080Y-143944200D01*
G75*
G02*
X192158080Y-143794200I150000J0D01*
G01*
X193808080Y-143794200D01*
G75*
G02*
X193958080Y-143944200I0J-150000D01*
G01*
X193958080Y-144244200D01*
G75*
G02*
X193808080Y-144394200I-150000J0D01*
G01*
X192158080Y-144394200D01*
G75*
G02*
X192008080Y-144244200I0J150000D01*
G01*
G37*
G36*
G01*
X192008080Y-142974200D02*
X192008080Y-142674200D01*
G75*
G02*
X192158080Y-142524200I150000J0D01*
G01*
X193808080Y-142524200D01*
G75*
G02*
X193958080Y-142674200I0J-150000D01*
G01*
X193958080Y-142974200D01*
G75*
G02*
X193808080Y-143124200I-150000J0D01*
G01*
X192158080Y-143124200D01*
G75*
G02*
X192008080Y-142974200I0J150000D01*
G01*
G37*
G36*
G01*
X192008080Y-141704200D02*
X192008080Y-141404200D01*
G75*
G02*
X192158080Y-141254200I150000J0D01*
G01*
X193808080Y-141254200D01*
G75*
G02*
X193958080Y-141404200I0J-150000D01*
G01*
X193958080Y-141704200D01*
G75*
G02*
X193808080Y-141854200I-150000J0D01*
G01*
X192158080Y-141854200D01*
G75*
G02*
X192008080Y-141704200I0J150000D01*
G01*
G37*
G36*
G01*
X192008080Y-140434200D02*
X192008080Y-140134200D01*
G75*
G02*
X192158080Y-139984200I150000J0D01*
G01*
X193808080Y-139984200D01*
G75*
G02*
X193958080Y-140134200I0J-150000D01*
G01*
X193958080Y-140434200D01*
G75*
G02*
X193808080Y-140584200I-150000J0D01*
G01*
X192158080Y-140584200D01*
G75*
G02*
X192008080Y-140434200I0J150000D01*
G01*
G37*
D22*
X211421980Y-125826520D03*
X209745580Y-124747020D03*
X231609900Y-112268000D03*
X212407500Y-119621300D03*
X229425500Y-118465600D03*
X227609400Y-116928900D03*
X219415360Y-133672580D03*
X220515180Y-135613140D03*
X206006700Y-122339100D03*
X196507100Y-119430800D03*
X201307700Y-137020300D03*
X191604900Y-116852700D03*
G36*
G01*
X226392560Y-133356340D02*
X226392560Y-133831340D01*
G75*
G02*
X226155060Y-134068840I-237500J0D01*
G01*
X225655060Y-134068840D01*
G75*
G02*
X225417560Y-133831340I0J237500D01*
G01*
X225417560Y-133356340D01*
G75*
G02*
X225655060Y-133118840I237500J0D01*
G01*
X226155060Y-133118840D01*
G75*
G02*
X226392560Y-133356340I0J-237500D01*
G01*
G37*
G36*
G01*
X228217560Y-133356340D02*
X228217560Y-133831340D01*
G75*
G02*
X227980060Y-134068840I-237500J0D01*
G01*
X227480060Y-134068840D01*
G75*
G02*
X227242560Y-133831340I0J237500D01*
G01*
X227242560Y-133356340D01*
G75*
G02*
X227480060Y-133118840I237500J0D01*
G01*
X227980060Y-133118840D01*
G75*
G02*
X228217560Y-133356340I0J-237500D01*
G01*
G37*
G36*
G01*
X223683380Y-135743960D02*
X223683380Y-135268960D01*
G75*
G02*
X223920880Y-135031460I237500J0D01*
G01*
X224420880Y-135031460D01*
G75*
G02*
X224658380Y-135268960I0J-237500D01*
G01*
X224658380Y-135743960D01*
G75*
G02*
X224420880Y-135981460I-237500J0D01*
G01*
X223920880Y-135981460D01*
G75*
G02*
X223683380Y-135743960I0J237500D01*
G01*
G37*
G36*
G01*
X221858380Y-135743960D02*
X221858380Y-135268960D01*
G75*
G02*
X222095880Y-135031460I237500J0D01*
G01*
X222595880Y-135031460D01*
G75*
G02*
X222833380Y-135268960I0J-237500D01*
G01*
X222833380Y-135743960D01*
G75*
G02*
X222595880Y-135981460I-237500J0D01*
G01*
X222095880Y-135981460D01*
G75*
G02*
X221858380Y-135743960I0J237500D01*
G01*
G37*
G36*
G01*
X208154280Y-124767160D02*
X207679280Y-124767160D01*
G75*
G02*
X207441780Y-124529660I0J237500D01*
G01*
X207441780Y-124029660D01*
G75*
G02*
X207679280Y-123792160I237500J0D01*
G01*
X208154280Y-123792160D01*
G75*
G02*
X208391780Y-124029660I0J-237500D01*
G01*
X208391780Y-124529660D01*
G75*
G02*
X208154280Y-124767160I-237500J0D01*
G01*
G37*
G36*
G01*
X208154280Y-126592160D02*
X207679280Y-126592160D01*
G75*
G02*
X207441780Y-126354660I0J237500D01*
G01*
X207441780Y-125854660D01*
G75*
G02*
X207679280Y-125617160I237500J0D01*
G01*
X208154280Y-125617160D01*
G75*
G02*
X208391780Y-125854660I0J-237500D01*
G01*
X208391780Y-126354660D01*
G75*
G02*
X208154280Y-126592160I-237500J0D01*
G01*
G37*
G36*
G01*
X192773480Y-120958620D02*
X192773480Y-120483620D01*
G75*
G02*
X193010980Y-120246120I237500J0D01*
G01*
X193510980Y-120246120D01*
G75*
G02*
X193748480Y-120483620I0J-237500D01*
G01*
X193748480Y-120958620D01*
G75*
G02*
X193510980Y-121196120I-237500J0D01*
G01*
X193010980Y-121196120D01*
G75*
G02*
X192773480Y-120958620I0J237500D01*
G01*
G37*
G36*
G01*
X190948480Y-120958620D02*
X190948480Y-120483620D01*
G75*
G02*
X191185980Y-120246120I237500J0D01*
G01*
X191685980Y-120246120D01*
G75*
G02*
X191923480Y-120483620I0J-237500D01*
G01*
X191923480Y-120958620D01*
G75*
G02*
X191685980Y-121196120I-237500J0D01*
G01*
X191185980Y-121196120D01*
G75*
G02*
X190948480Y-120958620I0J237500D01*
G01*
G37*
G36*
G01*
X191976820Y-122632460D02*
X191976820Y-123107460D01*
G75*
G02*
X191739320Y-123344960I-237500J0D01*
G01*
X191239320Y-123344960D01*
G75*
G02*
X191001820Y-123107460I0J237500D01*
G01*
X191001820Y-122632460D01*
G75*
G02*
X191239320Y-122394960I237500J0D01*
G01*
X191739320Y-122394960D01*
G75*
G02*
X191976820Y-122632460I0J-237500D01*
G01*
G37*
G36*
G01*
X193801820Y-122632460D02*
X193801820Y-123107460D01*
G75*
G02*
X193564320Y-123344960I-237500J0D01*
G01*
X193064320Y-123344960D01*
G75*
G02*
X192826820Y-123107460I0J237500D01*
G01*
X192826820Y-122632460D01*
G75*
G02*
X193064320Y-122394960I237500J0D01*
G01*
X193564320Y-122394960D01*
G75*
G02*
X193801820Y-122632460I0J-237500D01*
G01*
G37*
G36*
G01*
X229197080Y-121387880D02*
X229197080Y-120912880D01*
G75*
G02*
X229434580Y-120675380I237500J0D01*
G01*
X229934580Y-120675380D01*
G75*
G02*
X230172080Y-120912880I0J-237500D01*
G01*
X230172080Y-121387880D01*
G75*
G02*
X229934580Y-121625380I-237500J0D01*
G01*
X229434580Y-121625380D01*
G75*
G02*
X229197080Y-121387880I0J237500D01*
G01*
G37*
G36*
G01*
X227372080Y-121387880D02*
X227372080Y-120912880D01*
G75*
G02*
X227609580Y-120675380I237500J0D01*
G01*
X228109580Y-120675380D01*
G75*
G02*
X228347080Y-120912880I0J-237500D01*
G01*
X228347080Y-121387880D01*
G75*
G02*
X228109580Y-121625380I-237500J0D01*
G01*
X227609580Y-121625380D01*
G75*
G02*
X227372080Y-121387880I0J237500D01*
G01*
G37*
G36*
G01*
X231463840Y-129433500D02*
X231938840Y-129433500D01*
G75*
G02*
X232176340Y-129671000I0J-237500D01*
G01*
X232176340Y-130171000D01*
G75*
G02*
X231938840Y-130408500I-237500J0D01*
G01*
X231463840Y-130408500D01*
G75*
G02*
X231226340Y-130171000I0J237500D01*
G01*
X231226340Y-129671000D01*
G75*
G02*
X231463840Y-129433500I237500J0D01*
G01*
G37*
G36*
G01*
X231463840Y-127608500D02*
X231938840Y-127608500D01*
G75*
G02*
X232176340Y-127846000I0J-237500D01*
G01*
X232176340Y-128346000D01*
G75*
G02*
X231938840Y-128583500I-237500J0D01*
G01*
X231463840Y-128583500D01*
G75*
G02*
X231226340Y-128346000I0J237500D01*
G01*
X231226340Y-127846000D01*
G75*
G02*
X231463840Y-127608500I237500J0D01*
G01*
G37*
G36*
G01*
X206497100Y-133206500D02*
X206497100Y-132731500D01*
G75*
G02*
X206734600Y-132494000I237500J0D01*
G01*
X207234600Y-132494000D01*
G75*
G02*
X207472100Y-132731500I0J-237500D01*
G01*
X207472100Y-133206500D01*
G75*
G02*
X207234600Y-133444000I-237500J0D01*
G01*
X206734600Y-133444000D01*
G75*
G02*
X206497100Y-133206500I0J237500D01*
G01*
G37*
G36*
G01*
X204672100Y-133206500D02*
X204672100Y-132731500D01*
G75*
G02*
X204909600Y-132494000I237500J0D01*
G01*
X205409600Y-132494000D01*
G75*
G02*
X205647100Y-132731500I0J-237500D01*
G01*
X205647100Y-133206500D01*
G75*
G02*
X205409600Y-133444000I-237500J0D01*
G01*
X204909600Y-133444000D01*
G75*
G02*
X204672100Y-133206500I0J237500D01*
G01*
G37*
G36*
G01*
X203127600Y-134551600D02*
X203602600Y-134551600D01*
G75*
G02*
X203840100Y-134789100I0J-237500D01*
G01*
X203840100Y-135289100D01*
G75*
G02*
X203602600Y-135526600I-237500J0D01*
G01*
X203127600Y-135526600D01*
G75*
G02*
X202890100Y-135289100I0J237500D01*
G01*
X202890100Y-134789100D01*
G75*
G02*
X203127600Y-134551600I237500J0D01*
G01*
G37*
G36*
G01*
X203127600Y-132726600D02*
X203602600Y-132726600D01*
G75*
G02*
X203840100Y-132964100I0J-237500D01*
G01*
X203840100Y-133464100D01*
G75*
G02*
X203602600Y-133701600I-237500J0D01*
G01*
X203127600Y-133701600D01*
G75*
G02*
X202890100Y-133464100I0J237500D01*
G01*
X202890100Y-132964100D01*
G75*
G02*
X203127600Y-132726600I237500J0D01*
G01*
G37*
G36*
G01*
X202953800Y-128571000D02*
X202953800Y-128096000D01*
G75*
G02*
X203191300Y-127858500I237500J0D01*
G01*
X203691300Y-127858500D01*
G75*
G02*
X203928800Y-128096000I0J-237500D01*
G01*
X203928800Y-128571000D01*
G75*
G02*
X203691300Y-128808500I-237500J0D01*
G01*
X203191300Y-128808500D01*
G75*
G02*
X202953800Y-128571000I0J237500D01*
G01*
G37*
G36*
G01*
X201128800Y-128571000D02*
X201128800Y-128096000D01*
G75*
G02*
X201366300Y-127858500I237500J0D01*
G01*
X201866300Y-127858500D01*
G75*
G02*
X202103800Y-128096000I0J-237500D01*
G01*
X202103800Y-128571000D01*
G75*
G02*
X201866300Y-128808500I-237500J0D01*
G01*
X201366300Y-128808500D01*
G75*
G02*
X201128800Y-128571000I0J237500D01*
G01*
G37*
G36*
G01*
X202953800Y-130120400D02*
X202953800Y-129645400D01*
G75*
G02*
X203191300Y-129407900I237500J0D01*
G01*
X203691300Y-129407900D01*
G75*
G02*
X203928800Y-129645400I0J-237500D01*
G01*
X203928800Y-130120400D01*
G75*
G02*
X203691300Y-130357900I-237500J0D01*
G01*
X203191300Y-130357900D01*
G75*
G02*
X202953800Y-130120400I0J237500D01*
G01*
G37*
G36*
G01*
X201128800Y-130120400D02*
X201128800Y-129645400D01*
G75*
G02*
X201366300Y-129407900I237500J0D01*
G01*
X201866300Y-129407900D01*
G75*
G02*
X202103800Y-129645400I0J-237500D01*
G01*
X202103800Y-130120400D01*
G75*
G02*
X201866300Y-130357900I-237500J0D01*
G01*
X201366300Y-130357900D01*
G75*
G02*
X201128800Y-130120400I0J237500D01*
G01*
G37*
G36*
G01*
X209224700Y-129416800D02*
X209224700Y-129891800D01*
G75*
G02*
X208987200Y-130129300I-237500J0D01*
G01*
X208487200Y-130129300D01*
G75*
G02*
X208249700Y-129891800I0J237500D01*
G01*
X208249700Y-129416800D01*
G75*
G02*
X208487200Y-129179300I237500J0D01*
G01*
X208987200Y-129179300D01*
G75*
G02*
X209224700Y-129416800I0J-237500D01*
G01*
G37*
G36*
G01*
X211049700Y-129416800D02*
X211049700Y-129891800D01*
G75*
G02*
X210812200Y-130129300I-237500J0D01*
G01*
X210312200Y-130129300D01*
G75*
G02*
X210074700Y-129891800I0J237500D01*
G01*
X210074700Y-129416800D01*
G75*
G02*
X210312200Y-129179300I237500J0D01*
G01*
X210812200Y-129179300D01*
G75*
G02*
X211049700Y-129416800I0J-237500D01*
G01*
G37*
G36*
G01*
X206354860Y-151905980D02*
X206354860Y-151430980D01*
G75*
G02*
X206592360Y-151193480I237500J0D01*
G01*
X207092360Y-151193480D01*
G75*
G02*
X207329860Y-151430980I0J-237500D01*
G01*
X207329860Y-151905980D01*
G75*
G02*
X207092360Y-152143480I-237500J0D01*
G01*
X206592360Y-152143480D01*
G75*
G02*
X206354860Y-151905980I0J237500D01*
G01*
G37*
G36*
G01*
X204529860Y-151905980D02*
X204529860Y-151430980D01*
G75*
G02*
X204767360Y-151193480I237500J0D01*
G01*
X205267360Y-151193480D01*
G75*
G02*
X205504860Y-151430980I0J-237500D01*
G01*
X205504860Y-151905980D01*
G75*
G02*
X205267360Y-152143480I-237500J0D01*
G01*
X204767360Y-152143480D01*
G75*
G02*
X204529860Y-151905980I0J237500D01*
G01*
G37*
G36*
G01*
X213464960Y-150366740D02*
X213464960Y-149891740D01*
G75*
G02*
X213702460Y-149654240I237500J0D01*
G01*
X214202460Y-149654240D01*
G75*
G02*
X214439960Y-149891740I0J-237500D01*
G01*
X214439960Y-150366740D01*
G75*
G02*
X214202460Y-150604240I-237500J0D01*
G01*
X213702460Y-150604240D01*
G75*
G02*
X213464960Y-150366740I0J237500D01*
G01*
G37*
G36*
G01*
X211639960Y-150366740D02*
X211639960Y-149891740D01*
G75*
G02*
X211877460Y-149654240I237500J0D01*
G01*
X212377460Y-149654240D01*
G75*
G02*
X212614960Y-149891740I0J-237500D01*
G01*
X212614960Y-150366740D01*
G75*
G02*
X212377460Y-150604240I-237500J0D01*
G01*
X211877460Y-150604240D01*
G75*
G02*
X211639960Y-150366740I0J237500D01*
G01*
G37*
G36*
G01*
X216697740Y-115129320D02*
X216697740Y-114654320D01*
G75*
G02*
X216935240Y-114416820I237500J0D01*
G01*
X217435240Y-114416820D01*
G75*
G02*
X217672740Y-114654320I0J-237500D01*
G01*
X217672740Y-115129320D01*
G75*
G02*
X217435240Y-115366820I-237500J0D01*
G01*
X216935240Y-115366820D01*
G75*
G02*
X216697740Y-115129320I0J237500D01*
G01*
G37*
G36*
G01*
X214872740Y-115129320D02*
X214872740Y-114654320D01*
G75*
G02*
X215110240Y-114416820I237500J0D01*
G01*
X215610240Y-114416820D01*
G75*
G02*
X215847740Y-114654320I0J-237500D01*
G01*
X215847740Y-115129320D01*
G75*
G02*
X215610240Y-115366820I-237500J0D01*
G01*
X215110240Y-115366820D01*
G75*
G02*
X214872740Y-115129320I0J237500D01*
G01*
G37*
G36*
G01*
X204143600Y-118384500D02*
X204618600Y-118384500D01*
G75*
G02*
X204856100Y-118622000I0J-237500D01*
G01*
X204856100Y-119122000D01*
G75*
G02*
X204618600Y-119359500I-237500J0D01*
G01*
X204143600Y-119359500D01*
G75*
G02*
X203906100Y-119122000I0J237500D01*
G01*
X203906100Y-118622000D01*
G75*
G02*
X204143600Y-118384500I237500J0D01*
G01*
G37*
G36*
G01*
X204143600Y-116559500D02*
X204618600Y-116559500D01*
G75*
G02*
X204856100Y-116797000I0J-237500D01*
G01*
X204856100Y-117297000D01*
G75*
G02*
X204618600Y-117534500I-237500J0D01*
G01*
X204143600Y-117534500D01*
G75*
G02*
X203906100Y-117297000I0J237500D01*
G01*
X203906100Y-116797000D01*
G75*
G02*
X204143600Y-116559500I237500J0D01*
G01*
G37*
G36*
G01*
X224152640Y-115408720D02*
X224152640Y-114933720D01*
G75*
G02*
X224390140Y-114696220I237500J0D01*
G01*
X224890140Y-114696220D01*
G75*
G02*
X225127640Y-114933720I0J-237500D01*
G01*
X225127640Y-115408720D01*
G75*
G02*
X224890140Y-115646220I-237500J0D01*
G01*
X224390140Y-115646220D01*
G75*
G02*
X224152640Y-115408720I0J237500D01*
G01*
G37*
G36*
G01*
X222327640Y-115408720D02*
X222327640Y-114933720D01*
G75*
G02*
X222565140Y-114696220I237500J0D01*
G01*
X223065140Y-114696220D01*
G75*
G02*
X223302640Y-114933720I0J-237500D01*
G01*
X223302640Y-115408720D01*
G75*
G02*
X223065140Y-115646220I-237500J0D01*
G01*
X222565140Y-115646220D01*
G75*
G02*
X222327640Y-115408720I0J237500D01*
G01*
G37*
G36*
G01*
X223987540Y-116902240D02*
X223987540Y-116427240D01*
G75*
G02*
X224225040Y-116189740I237500J0D01*
G01*
X224725040Y-116189740D01*
G75*
G02*
X224962540Y-116427240I0J-237500D01*
G01*
X224962540Y-116902240D01*
G75*
G02*
X224725040Y-117139740I-237500J0D01*
G01*
X224225040Y-117139740D01*
G75*
G02*
X223987540Y-116902240I0J237500D01*
G01*
G37*
G36*
G01*
X222162540Y-116902240D02*
X222162540Y-116427240D01*
G75*
G02*
X222400040Y-116189740I237500J0D01*
G01*
X222900040Y-116189740D01*
G75*
G02*
X223137540Y-116427240I0J-237500D01*
G01*
X223137540Y-116902240D01*
G75*
G02*
X222900040Y-117139740I-237500J0D01*
G01*
X222400040Y-117139740D01*
G75*
G02*
X222162540Y-116902240I0J237500D01*
G01*
G37*
G36*
G01*
X230991400Y-118460700D02*
X231466400Y-118460700D01*
G75*
G02*
X231703900Y-118698200I0J-237500D01*
G01*
X231703900Y-119198200D01*
G75*
G02*
X231466400Y-119435700I-237500J0D01*
G01*
X230991400Y-119435700D01*
G75*
G02*
X230753900Y-119198200I0J237500D01*
G01*
X230753900Y-118698200D01*
G75*
G02*
X230991400Y-118460700I237500J0D01*
G01*
G37*
G36*
G01*
X230991400Y-116635700D02*
X231466400Y-116635700D01*
G75*
G02*
X231703900Y-116873200I0J-237500D01*
G01*
X231703900Y-117373200D01*
G75*
G02*
X231466400Y-117610700I-237500J0D01*
G01*
X230991400Y-117610700D01*
G75*
G02*
X230753900Y-117373200I0J237500D01*
G01*
X230753900Y-116873200D01*
G75*
G02*
X230991400Y-116635700I237500J0D01*
G01*
G37*
G36*
G01*
X205328340Y-140854420D02*
X205328340Y-141329420D01*
G75*
G02*
X205090840Y-141566920I-237500J0D01*
G01*
X204590840Y-141566920D01*
G75*
G02*
X204353340Y-141329420I0J237500D01*
G01*
X204353340Y-140854420D01*
G75*
G02*
X204590840Y-140616920I237500J0D01*
G01*
X205090840Y-140616920D01*
G75*
G02*
X205328340Y-140854420I0J-237500D01*
G01*
G37*
G36*
G01*
X207153340Y-140854420D02*
X207153340Y-141329420D01*
G75*
G02*
X206915840Y-141566920I-237500J0D01*
G01*
X206415840Y-141566920D01*
G75*
G02*
X206178340Y-141329420I0J237500D01*
G01*
X206178340Y-140854420D01*
G75*
G02*
X206415840Y-140616920I237500J0D01*
G01*
X206915840Y-140616920D01*
G75*
G02*
X207153340Y-140854420I0J-237500D01*
G01*
G37*
G36*
G01*
X199152500Y-133665140D02*
X199627500Y-133665140D01*
G75*
G02*
X199865000Y-133902640I0J-237500D01*
G01*
X199865000Y-134402640D01*
G75*
G02*
X199627500Y-134640140I-237500J0D01*
G01*
X199152500Y-134640140D01*
G75*
G02*
X198915000Y-134402640I0J237500D01*
G01*
X198915000Y-133902640D01*
G75*
G02*
X199152500Y-133665140I237500J0D01*
G01*
G37*
G36*
G01*
X199152500Y-131840140D02*
X199627500Y-131840140D01*
G75*
G02*
X199865000Y-132077640I0J-237500D01*
G01*
X199865000Y-132577640D01*
G75*
G02*
X199627500Y-132815140I-237500J0D01*
G01*
X199152500Y-132815140D01*
G75*
G02*
X198915000Y-132577640I0J237500D01*
G01*
X198915000Y-132077640D01*
G75*
G02*
X199152500Y-131840140I237500J0D01*
G01*
G37*
G36*
G01*
X192902660Y-130303260D02*
X192902660Y-130778260D01*
G75*
G02*
X192665160Y-131015760I-237500J0D01*
G01*
X192165160Y-131015760D01*
G75*
G02*
X191927660Y-130778260I0J237500D01*
G01*
X191927660Y-130303260D01*
G75*
G02*
X192165160Y-130065760I237500J0D01*
G01*
X192665160Y-130065760D01*
G75*
G02*
X192902660Y-130303260I0J-237500D01*
G01*
G37*
G36*
G01*
X194727660Y-130303260D02*
X194727660Y-130778260D01*
G75*
G02*
X194490160Y-131015760I-237500J0D01*
G01*
X193990160Y-131015760D01*
G75*
G02*
X193752660Y-130778260I0J237500D01*
G01*
X193752660Y-130303260D01*
G75*
G02*
X193990160Y-130065760I237500J0D01*
G01*
X194490160Y-130065760D01*
G75*
G02*
X194727660Y-130303260I0J-237500D01*
G01*
G37*
G36*
G01*
X191392820Y-141791500D02*
X190917820Y-141791500D01*
G75*
G02*
X190680320Y-141554000I0J237500D01*
G01*
X190680320Y-141054000D01*
G75*
G02*
X190917820Y-140816500I237500J0D01*
G01*
X191392820Y-140816500D01*
G75*
G02*
X191630320Y-141054000I0J-237500D01*
G01*
X191630320Y-141554000D01*
G75*
G02*
X191392820Y-141791500I-237500J0D01*
G01*
G37*
G36*
G01*
X191392820Y-143616500D02*
X190917820Y-143616500D01*
G75*
G02*
X190680320Y-143379000I0J237500D01*
G01*
X190680320Y-142879000D01*
G75*
G02*
X190917820Y-142641500I237500J0D01*
G01*
X191392820Y-142641500D01*
G75*
G02*
X191630320Y-142879000I0J-237500D01*
G01*
X191630320Y-143379000D01*
G75*
G02*
X191392820Y-143616500I-237500J0D01*
G01*
G37*
G36*
G01*
X197877420Y-137769780D02*
X198352420Y-137769780D01*
G75*
G02*
X198589920Y-138007280I0J-237500D01*
G01*
X198589920Y-138507280D01*
G75*
G02*
X198352420Y-138744780I-237500J0D01*
G01*
X197877420Y-138744780D01*
G75*
G02*
X197639920Y-138507280I0J237500D01*
G01*
X197639920Y-138007280D01*
G75*
G02*
X197877420Y-137769780I237500J0D01*
G01*
G37*
G36*
G01*
X197877420Y-135944780D02*
X198352420Y-135944780D01*
G75*
G02*
X198589920Y-136182280I0J-237500D01*
G01*
X198589920Y-136682280D01*
G75*
G02*
X198352420Y-136919780I-237500J0D01*
G01*
X197877420Y-136919780D01*
G75*
G02*
X197639920Y-136682280I0J237500D01*
G01*
X197639920Y-136182280D01*
G75*
G02*
X197877420Y-135944780I237500J0D01*
G01*
G37*
G36*
G01*
X194296020Y-137734220D02*
X194771020Y-137734220D01*
G75*
G02*
X195008520Y-137971720I0J-237500D01*
G01*
X195008520Y-138471720D01*
G75*
G02*
X194771020Y-138709220I-237500J0D01*
G01*
X194296020Y-138709220D01*
G75*
G02*
X194058520Y-138471720I0J237500D01*
G01*
X194058520Y-137971720D01*
G75*
G02*
X194296020Y-137734220I237500J0D01*
G01*
G37*
G36*
G01*
X194296020Y-135909220D02*
X194771020Y-135909220D01*
G75*
G02*
X195008520Y-136146720I0J-237500D01*
G01*
X195008520Y-136646720D01*
G75*
G02*
X194771020Y-136884220I-237500J0D01*
G01*
X194296020Y-136884220D01*
G75*
G02*
X194058520Y-136646720I0J237500D01*
G01*
X194058520Y-136146720D01*
G75*
G02*
X194296020Y-135909220I237500J0D01*
G01*
G37*
D23*
X210661000Y-132184100D03*
X208661000Y-133134100D03*
X208661000Y-131234100D03*
X207048100Y-129273300D03*
X205048100Y-130223300D03*
X205048100Y-128323300D03*
G36*
G01*
X206286880Y-150438601D02*
X206286880Y-149738599D01*
G75*
G02*
X206536879Y-149488600I249999J0D01*
G01*
X207086881Y-149488600D01*
G75*
G02*
X207336880Y-149738599I0J-249999D01*
G01*
X207336880Y-150438601D01*
G75*
G02*
X207086881Y-150688600I-249999J0D01*
G01*
X206536879Y-150688600D01*
G75*
G02*
X206286880Y-150438601I0J249999D01*
G01*
G37*
G36*
G01*
X203986880Y-150438601D02*
X203986880Y-149738599D01*
G75*
G02*
X204236879Y-149488600I249999J0D01*
G01*
X204786881Y-149488600D01*
G75*
G02*
X205036880Y-149738599I0J-249999D01*
G01*
X205036880Y-150438601D01*
G75*
G02*
X204786881Y-150688600I-249999J0D01*
G01*
X204236879Y-150688600D01*
G75*
G02*
X203986880Y-150438601I0J249999D01*
G01*
G37*
D24*
X225376740Y-123898660D03*
X227916740Y-123898660D03*
X225376740Y-126438660D03*
X227916740Y-126438660D03*
X225376740Y-128978660D03*
D25*
X227916740Y-128978660D03*
D26*
X196819520Y-125674120D03*
X193314320Y-125577600D03*
D27*
X196314060Y-150972520D03*
X194394060Y-150972520D03*
D28*
X198084060Y-150702520D03*
X192624060Y-150702520D03*
D29*
X197774060Y-147702520D03*
X192934060Y-147702520D03*
D30*
X196654060Y-147822520D03*
X196004060Y-147822520D03*
X195354060Y-147822520D03*
X194704060Y-147822520D03*
X194054060Y-147822520D03*
D31*
X198254060Y-147702520D03*
X192504060Y-147722520D03*
D32*
X198354060Y-149022520D03*
X192404060Y-149022520D03*
D33*
X192624060Y-149772520D03*
X198104060Y-149772520D03*
G36*
G01*
X209862120Y-142366840D02*
X209862120Y-143616840D01*
G75*
G02*
X209612120Y-143866840I-250000J0D01*
G01*
X208687120Y-143866840D01*
G75*
G02*
X208437120Y-143616840I0J250000D01*
G01*
X208437120Y-142366840D01*
G75*
G02*
X208687120Y-142116840I250000J0D01*
G01*
X209612120Y-142116840D01*
G75*
G02*
X209862120Y-142366840I0J-250000D01*
G01*
G37*
G36*
G01*
X212837120Y-142366840D02*
X212837120Y-143616840D01*
G75*
G02*
X212587120Y-143866840I-250000J0D01*
G01*
X211662120Y-143866840D01*
G75*
G02*
X211412120Y-143616840I0J250000D01*
G01*
X211412120Y-142366840D01*
G75*
G02*
X211662120Y-142116840I250000J0D01*
G01*
X212587120Y-142116840D01*
G75*
G02*
X212837120Y-142366840I0J-250000D01*
G01*
G37*
G36*
G01*
X224591900Y-132017440D02*
X223641900Y-132017440D01*
G75*
G02*
X223391900Y-131767440I0J250000D01*
G01*
X223391900Y-131092440D01*
G75*
G02*
X223641900Y-130842440I250000J0D01*
G01*
X224591900Y-130842440D01*
G75*
G02*
X224841900Y-131092440I0J-250000D01*
G01*
X224841900Y-131767440D01*
G75*
G02*
X224591900Y-132017440I-250000J0D01*
G01*
G37*
G36*
G01*
X224591900Y-134092440D02*
X223641900Y-134092440D01*
G75*
G02*
X223391900Y-133842440I0J250000D01*
G01*
X223391900Y-133167440D01*
G75*
G02*
X223641900Y-132917440I250000J0D01*
G01*
X224591900Y-132917440D01*
G75*
G02*
X224841900Y-133167440I0J-250000D01*
G01*
X224841900Y-133842440D01*
G75*
G02*
X224591900Y-134092440I-250000J0D01*
G01*
G37*
G36*
G01*
X222631020Y-132014900D02*
X221681020Y-132014900D01*
G75*
G02*
X221431020Y-131764900I0J250000D01*
G01*
X221431020Y-131089900D01*
G75*
G02*
X221681020Y-130839900I250000J0D01*
G01*
X222631020Y-130839900D01*
G75*
G02*
X222881020Y-131089900I0J-250000D01*
G01*
X222881020Y-131764900D01*
G75*
G02*
X222631020Y-132014900I-250000J0D01*
G01*
G37*
G36*
G01*
X222631020Y-134089900D02*
X221681020Y-134089900D01*
G75*
G02*
X221431020Y-133839900I0J250000D01*
G01*
X221431020Y-133164900D01*
G75*
G02*
X221681020Y-132914900I250000J0D01*
G01*
X222631020Y-132914900D01*
G75*
G02*
X222881020Y-133164900I0J-250000D01*
G01*
X222881020Y-133839900D01*
G75*
G02*
X222631020Y-134089900I-250000J0D01*
G01*
G37*
G36*
G01*
X204852300Y-142351600D02*
X204852300Y-143601600D01*
G75*
G02*
X204602300Y-143851600I-250000J0D01*
G01*
X203677300Y-143851600D01*
G75*
G02*
X203427300Y-143601600I0J250000D01*
G01*
X203427300Y-142351600D01*
G75*
G02*
X203677300Y-142101600I250000J0D01*
G01*
X204602300Y-142101600D01*
G75*
G02*
X204852300Y-142351600I0J-250000D01*
G01*
G37*
G36*
G01*
X207827300Y-142351600D02*
X207827300Y-143601600D01*
G75*
G02*
X207577300Y-143851600I-250000J0D01*
G01*
X206652300Y-143851600D01*
G75*
G02*
X206402300Y-143601600I0J250000D01*
G01*
X206402300Y-142351600D01*
G75*
G02*
X206652300Y-142101600I250000J0D01*
G01*
X207577300Y-142101600D01*
G75*
G02*
X207827300Y-142351600I0J-250000D01*
G01*
G37*
G36*
G01*
X209991000Y-150579241D02*
X209991000Y-149679239D01*
G75*
G02*
X210240999Y-149429240I249999J0D01*
G01*
X210891001Y-149429240D01*
G75*
G02*
X211141000Y-149679239I0J-249999D01*
G01*
X211141000Y-150579241D01*
G75*
G02*
X210891001Y-150829240I-249999J0D01*
G01*
X210240999Y-150829240D01*
G75*
G02*
X209991000Y-150579241I0J249999D01*
G01*
G37*
G36*
G01*
X207941000Y-150579241D02*
X207941000Y-149679239D01*
G75*
G02*
X208190999Y-149429240I249999J0D01*
G01*
X208841001Y-149429240D01*
G75*
G02*
X209091000Y-149679239I0J-249999D01*
G01*
X209091000Y-150579241D01*
G75*
G02*
X208841001Y-150829240I-249999J0D01*
G01*
X208190999Y-150829240D01*
G75*
G02*
X207941000Y-150579241I0J249999D01*
G01*
G37*
G36*
G01*
X221560080Y-114459599D02*
X221560080Y-115359601D01*
G75*
G02*
X221310081Y-115609600I-249999J0D01*
G01*
X220660079Y-115609600D01*
G75*
G02*
X220410080Y-115359601I0J249999D01*
G01*
X220410080Y-114459599D01*
G75*
G02*
X220660079Y-114209600I249999J0D01*
G01*
X221310081Y-114209600D01*
G75*
G02*
X221560080Y-114459599I0J-249999D01*
G01*
G37*
G36*
G01*
X219510080Y-114459599D02*
X219510080Y-115359601D01*
G75*
G02*
X219260081Y-115609600I-249999J0D01*
G01*
X218610079Y-115609600D01*
G75*
G02*
X218360080Y-115359601I0J249999D01*
G01*
X218360080Y-114459599D01*
G75*
G02*
X218610079Y-114209600I249999J0D01*
G01*
X219260081Y-114209600D01*
G75*
G02*
X219510080Y-114459599I0J-249999D01*
G01*
G37*
G36*
G01*
X208455900Y-120494900D02*
X208455900Y-121744900D01*
G75*
G02*
X208205900Y-121994900I-250000J0D01*
G01*
X207280900Y-121994900D01*
G75*
G02*
X207030900Y-121744900I0J250000D01*
G01*
X207030900Y-120494900D01*
G75*
G02*
X207280900Y-120244900I250000J0D01*
G01*
X208205900Y-120244900D01*
G75*
G02*
X208455900Y-120494900I0J-250000D01*
G01*
G37*
G36*
G01*
X211430900Y-120494900D02*
X211430900Y-121744900D01*
G75*
G02*
X211180900Y-121994900I-250000J0D01*
G01*
X210255900Y-121994900D01*
G75*
G02*
X210005900Y-121744900I0J250000D01*
G01*
X210005900Y-120494900D01*
G75*
G02*
X210255900Y-120244900I250000J0D01*
G01*
X211180900Y-120244900D01*
G75*
G02*
X211430900Y-120494900I0J-250000D01*
G01*
G37*
G36*
G01*
X227252560Y-114538600D02*
X227252560Y-115788600D01*
G75*
G02*
X227002560Y-116038600I-250000J0D01*
G01*
X226077560Y-116038600D01*
G75*
G02*
X225827560Y-115788600I0J250000D01*
G01*
X225827560Y-114538600D01*
G75*
G02*
X226077560Y-114288600I250000J0D01*
G01*
X227002560Y-114288600D01*
G75*
G02*
X227252560Y-114538600I0J-250000D01*
G01*
G37*
G36*
G01*
X230227560Y-114538600D02*
X230227560Y-115788600D01*
G75*
G02*
X229977560Y-116038600I-250000J0D01*
G01*
X229052560Y-116038600D01*
G75*
G02*
X228802560Y-115788600I0J250000D01*
G01*
X228802560Y-114538600D01*
G75*
G02*
X229052560Y-114288600I250000J0D01*
G01*
X229977560Y-114288600D01*
G75*
G02*
X230227560Y-114538600I0J-250000D01*
G01*
G37*
G36*
G01*
X196771681Y-136640040D02*
X195871679Y-136640040D01*
G75*
G02*
X195621680Y-136390041I0J249999D01*
G01*
X195621680Y-135740039D01*
G75*
G02*
X195871679Y-135490040I249999J0D01*
G01*
X196771681Y-135490040D01*
G75*
G02*
X197021680Y-135740039I0J-249999D01*
G01*
X197021680Y-136390041D01*
G75*
G02*
X196771681Y-136640040I-249999J0D01*
G01*
G37*
G36*
G01*
X196771681Y-138690040D02*
X195871679Y-138690040D01*
G75*
G02*
X195621680Y-138440041I0J249999D01*
G01*
X195621680Y-137790039D01*
G75*
G02*
X195871679Y-137540040I249999J0D01*
G01*
X196771681Y-137540040D01*
G75*
G02*
X197021680Y-137790039I0J-249999D01*
G01*
X197021680Y-138440041D01*
G75*
G02*
X196771681Y-138690040I-249999J0D01*
G01*
G37*
G36*
G01*
X193205521Y-136614640D02*
X192305519Y-136614640D01*
G75*
G02*
X192055520Y-136364641I0J249999D01*
G01*
X192055520Y-135714639D01*
G75*
G02*
X192305519Y-135464640I249999J0D01*
G01*
X193205521Y-135464640D01*
G75*
G02*
X193455520Y-135714639I0J-249999D01*
G01*
X193455520Y-136364641D01*
G75*
G02*
X193205521Y-136614640I-249999J0D01*
G01*
G37*
G36*
G01*
X193205521Y-138664640D02*
X192305519Y-138664640D01*
G75*
G02*
X192055520Y-138414641I0J249999D01*
G01*
X192055520Y-137764639D01*
G75*
G02*
X192305519Y-137514640I249999J0D01*
G01*
X193205521Y-137514640D01*
G75*
G02*
X193455520Y-137764639I0J-249999D01*
G01*
X193455520Y-138414641D01*
G75*
G02*
X193205521Y-138664640I-249999J0D01*
G01*
G37*
G36*
G01*
X194936100Y-122093700D02*
X195411100Y-122093700D01*
G75*
G02*
X195648600Y-122331200I0J-237500D01*
G01*
X195648600Y-122931200D01*
G75*
G02*
X195411100Y-123168700I-237500J0D01*
G01*
X194936100Y-123168700D01*
G75*
G02*
X194698600Y-122931200I0J237500D01*
G01*
X194698600Y-122331200D01*
G75*
G02*
X194936100Y-122093700I237500J0D01*
G01*
G37*
G36*
G01*
X194936100Y-120368700D02*
X195411100Y-120368700D01*
G75*
G02*
X195648600Y-120606200I0J-237500D01*
G01*
X195648600Y-121206200D01*
G75*
G02*
X195411100Y-121443700I-237500J0D01*
G01*
X194936100Y-121443700D01*
G75*
G02*
X194698600Y-121206200I0J237500D01*
G01*
X194698600Y-120606200D01*
G75*
G02*
X194936100Y-120368700I237500J0D01*
G01*
G37*
G36*
G01*
X217691680Y-117313720D02*
X217691680Y-116838720D01*
G75*
G02*
X217929180Y-116601220I237500J0D01*
G01*
X218529180Y-116601220D01*
G75*
G02*
X218766680Y-116838720I0J-237500D01*
G01*
X218766680Y-117313720D01*
G75*
G02*
X218529180Y-117551220I-237500J0D01*
G01*
X217929180Y-117551220D01*
G75*
G02*
X217691680Y-117313720I0J237500D01*
G01*
G37*
G36*
G01*
X215966680Y-117313720D02*
X215966680Y-116838720D01*
G75*
G02*
X216204180Y-116601220I237500J0D01*
G01*
X216804180Y-116601220D01*
G75*
G02*
X217041680Y-116838720I0J-237500D01*
G01*
X217041680Y-117313720D01*
G75*
G02*
X216804180Y-117551220I-237500J0D01*
G01*
X216204180Y-117551220D01*
G75*
G02*
X215966680Y-117313720I0J237500D01*
G01*
G37*
G36*
G01*
X213292400Y-131085600D02*
X213292400Y-130610600D01*
G75*
G02*
X213529900Y-130373100I237500J0D01*
G01*
X214129900Y-130373100D01*
G75*
G02*
X214367400Y-130610600I0J-237500D01*
G01*
X214367400Y-131085600D01*
G75*
G02*
X214129900Y-131323100I-237500J0D01*
G01*
X213529900Y-131323100D01*
G75*
G02*
X213292400Y-131085600I0J237500D01*
G01*
G37*
G36*
G01*
X211567400Y-131085600D02*
X211567400Y-130610600D01*
G75*
G02*
X211804900Y-130373100I237500J0D01*
G01*
X212404900Y-130373100D01*
G75*
G02*
X212642400Y-130610600I0J-237500D01*
G01*
X212642400Y-131085600D01*
G75*
G02*
X212404900Y-131323100I-237500J0D01*
G01*
X211804900Y-131323100D01*
G75*
G02*
X211567400Y-131085600I0J237500D01*
G01*
G37*
G36*
G01*
X211063720Y-141319260D02*
X211063720Y-140844260D01*
G75*
G02*
X211301220Y-140606760I237500J0D01*
G01*
X211901220Y-140606760D01*
G75*
G02*
X212138720Y-140844260I0J-237500D01*
G01*
X212138720Y-141319260D01*
G75*
G02*
X211901220Y-141556760I-237500J0D01*
G01*
X211301220Y-141556760D01*
G75*
G02*
X211063720Y-141319260I0J237500D01*
G01*
G37*
G36*
G01*
X209338720Y-141319260D02*
X209338720Y-140844260D01*
G75*
G02*
X209576220Y-140606760I237500J0D01*
G01*
X210176220Y-140606760D01*
G75*
G02*
X210413720Y-140844260I0J-237500D01*
G01*
X210413720Y-141319260D01*
G75*
G02*
X210176220Y-141556760I-237500J0D01*
G01*
X209576220Y-141556760D01*
G75*
G02*
X209338720Y-141319260I0J237500D01*
G01*
G37*
G36*
G01*
X212215820Y-116482340D02*
X212215820Y-112732340D01*
G75*
G02*
X212465820Y-112482340I250000J0D01*
G01*
X214040820Y-112482340D01*
G75*
G02*
X214290820Y-112732340I0J-250000D01*
G01*
X214290820Y-116482340D01*
G75*
G02*
X214040820Y-116732340I-250000J0D01*
G01*
X212465820Y-116732340D01*
G75*
G02*
X212215820Y-116482340I0J250000D01*
G01*
G37*
G36*
G01*
X205990820Y-116482340D02*
X205990820Y-112732340D01*
G75*
G02*
X206240820Y-112482340I250000J0D01*
G01*
X207815820Y-112482340D01*
G75*
G02*
X208065820Y-112732340I0J-250000D01*
G01*
X208065820Y-116482340D01*
G75*
G02*
X207815820Y-116732340I-250000J0D01*
G01*
X206240820Y-116732340D01*
G75*
G02*
X205990820Y-116482340I0J250000D01*
G01*
G37*
G36*
G01*
X210230840Y-135850620D02*
X210230840Y-136325620D01*
G75*
G02*
X209993340Y-136563120I-237500J0D01*
G01*
X209393340Y-136563120D01*
G75*
G02*
X209155840Y-136325620I0J237500D01*
G01*
X209155840Y-135850620D01*
G75*
G02*
X209393340Y-135613120I237500J0D01*
G01*
X209993340Y-135613120D01*
G75*
G02*
X210230840Y-135850620I0J-237500D01*
G01*
G37*
G36*
G01*
X211955840Y-135850620D02*
X211955840Y-136325620D01*
G75*
G02*
X211718340Y-136563120I-237500J0D01*
G01*
X211118340Y-136563120D01*
G75*
G02*
X210880840Y-136325620I0J237500D01*
G01*
X210880840Y-135850620D01*
G75*
G02*
X211118340Y-135613120I237500J0D01*
G01*
X211718340Y-135613120D01*
G75*
G02*
X211955840Y-135850620I0J-237500D01*
G01*
G37*
G36*
G01*
X205713340Y-137504460D02*
X205238340Y-137504460D01*
G75*
G02*
X205000840Y-137266960I0J237500D01*
G01*
X205000840Y-136666960D01*
G75*
G02*
X205238340Y-136429460I237500J0D01*
G01*
X205713340Y-136429460D01*
G75*
G02*
X205950840Y-136666960I0J-237500D01*
G01*
X205950840Y-137266960D01*
G75*
G02*
X205713340Y-137504460I-237500J0D01*
G01*
G37*
G36*
G01*
X205713340Y-139229460D02*
X205238340Y-139229460D01*
G75*
G02*
X205000840Y-138991960I0J237500D01*
G01*
X205000840Y-138391960D01*
G75*
G02*
X205238340Y-138154460I237500J0D01*
G01*
X205713340Y-138154460D01*
G75*
G02*
X205950840Y-138391960I0J-237500D01*
G01*
X205950840Y-138991960D01*
G75*
G02*
X205713340Y-139229460I-237500J0D01*
G01*
G37*
G36*
G01*
X203983300Y-112193080D02*
X203983300Y-111718080D01*
G75*
G02*
X204220800Y-111480580I237500J0D01*
G01*
X204820800Y-111480580D01*
G75*
G02*
X205058300Y-111718080I0J-237500D01*
G01*
X205058300Y-112193080D01*
G75*
G02*
X204820800Y-112430580I-237500J0D01*
G01*
X204220800Y-112430580D01*
G75*
G02*
X203983300Y-112193080I0J237500D01*
G01*
G37*
G36*
G01*
X202258300Y-112193080D02*
X202258300Y-111718080D01*
G75*
G02*
X202495800Y-111480580I237500J0D01*
G01*
X203095800Y-111480580D01*
G75*
G02*
X203333300Y-111718080I0J-237500D01*
G01*
X203333300Y-112193080D01*
G75*
G02*
X203095800Y-112430580I-237500J0D01*
G01*
X202495800Y-112430580D01*
G75*
G02*
X202258300Y-112193080I0J237500D01*
G01*
G37*
G36*
G01*
X201636620Y-145668880D02*
X202111620Y-145668880D01*
G75*
G02*
X202349120Y-145906380I0J-237500D01*
G01*
X202349120Y-146506380D01*
G75*
G02*
X202111620Y-146743880I-237500J0D01*
G01*
X201636620Y-146743880D01*
G75*
G02*
X201399120Y-146506380I0J237500D01*
G01*
X201399120Y-145906380D01*
G75*
G02*
X201636620Y-145668880I237500J0D01*
G01*
G37*
G36*
G01*
X201636620Y-143943880D02*
X202111620Y-143943880D01*
G75*
G02*
X202349120Y-144181380I0J-237500D01*
G01*
X202349120Y-144781380D01*
G75*
G02*
X202111620Y-145018880I-237500J0D01*
G01*
X201636620Y-145018880D01*
G75*
G02*
X201399120Y-144781380I0J237500D01*
G01*
X201399120Y-144181380D01*
G75*
G02*
X201636620Y-143943880I237500J0D01*
G01*
G37*
G36*
G01*
X192037460Y-127840720D02*
X192037460Y-128790720D01*
G75*
G02*
X191787460Y-129040720I-250000J0D01*
G01*
X191112460Y-129040720D01*
G75*
G02*
X190862460Y-128790720I0J250000D01*
G01*
X190862460Y-127840720D01*
G75*
G02*
X191112460Y-127590720I250000J0D01*
G01*
X191787460Y-127590720D01*
G75*
G02*
X192037460Y-127840720I0J-250000D01*
G01*
G37*
G36*
G01*
X194112460Y-127840720D02*
X194112460Y-128790720D01*
G75*
G02*
X193862460Y-129040720I-250000J0D01*
G01*
X193187460Y-129040720D01*
G75*
G02*
X192937460Y-128790720I0J250000D01*
G01*
X192937460Y-127840720D01*
G75*
G02*
X193187460Y-127590720I250000J0D01*
G01*
X193862460Y-127590720D01*
G75*
G02*
X194112460Y-127840720I0J-250000D01*
G01*
G37*
G36*
G01*
X199637660Y-129533940D02*
X199162660Y-129533940D01*
G75*
G02*
X198925160Y-129296440I0J237500D01*
G01*
X198925160Y-128696440D01*
G75*
G02*
X199162660Y-128458940I237500J0D01*
G01*
X199637660Y-128458940D01*
G75*
G02*
X199875160Y-128696440I0J-237500D01*
G01*
X199875160Y-129296440D01*
G75*
G02*
X199637660Y-129533940I-237500J0D01*
G01*
G37*
G36*
G01*
X199637660Y-131258940D02*
X199162660Y-131258940D01*
G75*
G02*
X198925160Y-131021440I0J237500D01*
G01*
X198925160Y-130421440D01*
G75*
G02*
X199162660Y-130183940I237500J0D01*
G01*
X199637660Y-130183940D01*
G75*
G02*
X199875160Y-130421440I0J-237500D01*
G01*
X199875160Y-131021440D01*
G75*
G02*
X199637660Y-131258940I-237500J0D01*
G01*
G37*
G36*
G01*
X195763860Y-145870940D02*
X195763860Y-145395940D01*
G75*
G02*
X196001360Y-145158440I237500J0D01*
G01*
X196601360Y-145158440D01*
G75*
G02*
X196838860Y-145395940I0J-237500D01*
G01*
X196838860Y-145870940D01*
G75*
G02*
X196601360Y-146108440I-237500J0D01*
G01*
X196001360Y-146108440D01*
G75*
G02*
X195763860Y-145870940I0J237500D01*
G01*
G37*
G36*
G01*
X194038860Y-145870940D02*
X194038860Y-145395940D01*
G75*
G02*
X194276360Y-145158440I237500J0D01*
G01*
X194876360Y-145158440D01*
G75*
G02*
X195113860Y-145395940I0J-237500D01*
G01*
X195113860Y-145870940D01*
G75*
G02*
X194876360Y-146108440I-237500J0D01*
G01*
X194276360Y-146108440D01*
G75*
G02*
X194038860Y-145870940I0J237500D01*
G01*
G37*
D34*
X207021560Y-146661400D03*
X204021560Y-146661400D03*
D35*
X205521560Y-145186400D03*
X205521560Y-148136400D03*
M02*
