M48
; DRILL file {KiCad 5.1.10-88a1d61d58~90~ubuntu20.04.1} date Sun Aug  8 16:05:02 2021
; FORMAT={-:-/ absolute / metric / decimal}
; #@! TF.CreationDate,2021-08-08T16:05:02+03:00
; #@! TF.GenerationSoftware,Kicad,Pcbnew,5.1.10-88a1d61d58~90~ubuntu20.04.1
; #@! TF.FileFunction,Plated,1,2,PTH
FMAT,2
METRIC
T1C0.300
T2C0.400
T3C0.650
T4C0.700
T5C1.000
%
G90
G05
T1
X191.145Y-144.623
X191.389Y-139.299
X192.123Y-146.07
X194.503Y-127.909
X199.395Y-135.189
X216.148Y-129.574
X221.488Y-129.751
T2
X191.0Y-125.0
X191.346Y-112.85
X191.519Y-118.471
X191.628Y-114.33
X192.032Y-111.534
X192.878Y-115.189
X193.581Y-111.346
X193.877Y-116.188
X194.7Y-112.3
X195.135Y-129.921
X195.2Y-113.7
X196.0Y-114.7
X197.871Y-120.183
X200.0Y-116.0
X200.0Y-123.0
X200.0Y-125.0
X200.0Y-127.0
X200.0Y-152.0
X200.683Y-133.437
X200.858Y-134.915
X201.0Y-131.0
X201.0Y-132.0
X201.059Y-111.417
X201.577Y-139.543
X202.0Y-114.0
X202.0Y-116.0
X202.0Y-152.0
X202.057Y-119.888
X203.86Y-131.318
X204.61Y-135.369
X204.8Y-120.891
X207.073Y-131.496
X207.696Y-118.986
X208.0Y-148.0
X208.046Y-145.666
X208.76Y-113.251
X208.76Y-114.089
X208.775Y-128.549
X208.826Y-115.545
X209.474Y-116.345
X209.593Y-113.276
X209.593Y-114.115
X209.842Y-115.506
X210.0Y-148.0
X210.046Y-145.666
X210.426Y-113.292
X210.426Y-114.13
X210.439Y-116.307
X210.858Y-115.506
X211.63Y-137.135
X212.0Y-148.0
X212.046Y-145.666
X212.369Y-129.235
X214.0Y-148.0
X214.046Y-145.666
X214.879Y-137.135
X215.189Y-113.751
X215.278Y-121.501
X215.422Y-124.308
X215.976Y-136.279
X216.003Y-147.997
X216.049Y-145.663
X216.459Y-126.327
X217.559Y-113.645
X218.003Y-147.997
X218.049Y-145.663
X219.05Y-124.269
X220.0Y-148.0
X220.402Y-125.863
X220.519Y-121.679
X221.303Y-116.66
X223.055Y-113.96
X226.652Y-116.931
X226.741Y-120.917
X226.952Y-122.69
X227.899Y-118.156
X227.929Y-151.595
X229.362Y-111.95
X231.912Y-121.806
X232.0Y-132.0
T5
X192.799Y-113.271
X225.377Y-123.899
X225.377Y-126.439
X225.377Y-128.979
X227.917Y-123.899
X227.917Y-126.439
X227.917Y-128.979
T3
X192.934Y-147.903G85X192.934Y-147.503
G05
X197.774Y-147.903G85X197.774Y-147.503
G05
T4
X192.624Y-150.953G85X192.624Y-150.453
G05
X198.084Y-150.953G85X198.084Y-150.453
G05
T0
M30
