G04 #@! TF.GenerationSoftware,KiCad,Pcbnew,5.1.10-88a1d61d58~90~ubuntu20.04.1*
G04 #@! TF.CreationDate,2021-08-08T16:04:40+03:00*
G04 #@! TF.ProjectId,GPS_keychain,4750535f-6b65-4796-9368-61696e2e6b69,rev?*
G04 #@! TF.SameCoordinates,Original*
G04 #@! TF.FileFunction,Soldermask,Bot*
G04 #@! TF.FilePolarity,Negative*
%FSLAX46Y46*%
G04 Gerber Fmt 4.6, Leading zero omitted, Abs format (unit mm)*
G04 Created by KiCad (PCBNEW 5.1.10-88a1d61d58~90~ubuntu20.04.1) date 2021-08-08 16:04:40*
%MOMM*%
%LPD*%
G01*
G04 APERTURE LIST*
%ADD10C,1.700000*%
%ADD11R,1.200000X1.600000*%
%ADD12R,1.800000X2.400000*%
%ADD13C,1.000000*%
%ADD14O,1.700000X1.700000*%
%ADD15R,1.700000X1.700000*%
%ADD16R,3.500000X1.500000*%
%ADD17O,1.350000X1.700000*%
%ADD18O,1.100000X1.500000*%
G04 APERTURE END LIST*
D10*
X192798700Y-113271300D03*
D11*
X202326240Y-133291580D03*
D12*
X204866240Y-133291580D03*
X207406240Y-133291580D03*
X209946240Y-133291580D03*
X212486240Y-133291580D03*
X215026240Y-133291580D03*
X217566240Y-133291580D03*
X222646240Y-133291580D03*
X225186240Y-133291580D03*
X227726240Y-133291580D03*
X227726240Y-111955580D03*
X225186240Y-111955580D03*
X222646240Y-111955580D03*
X220106240Y-111955580D03*
X217566240Y-111955580D03*
X215026240Y-111955580D03*
X212486240Y-111955580D03*
X209946240Y-111955580D03*
X207406240Y-111955580D03*
X204866240Y-111955580D03*
X220106240Y-133291580D03*
D13*
X198473060Y-146210020D03*
X192123060Y-146070320D03*
G36*
G01*
X231137500Y-133662500D02*
X230662500Y-133662500D01*
G75*
G02*
X230425000Y-133425000I0J237500D01*
G01*
X230425000Y-132925000D01*
G75*
G02*
X230662500Y-132687500I237500J0D01*
G01*
X231137500Y-132687500D01*
G75*
G02*
X231375000Y-132925000I0J-237500D01*
G01*
X231375000Y-133425000D01*
G75*
G02*
X231137500Y-133662500I-237500J0D01*
G01*
G37*
G36*
G01*
X231137500Y-135487500D02*
X230662500Y-135487500D01*
G75*
G02*
X230425000Y-135250000I0J237500D01*
G01*
X230425000Y-134750000D01*
G75*
G02*
X230662500Y-134512500I237500J0D01*
G01*
X231137500Y-134512500D01*
G75*
G02*
X231375000Y-134750000I0J-237500D01*
G01*
X231375000Y-135250000D01*
G75*
G02*
X231137500Y-135487500I-237500J0D01*
G01*
G37*
D14*
X225376740Y-123898660D03*
X227916740Y-123898660D03*
X225376740Y-126438660D03*
X227916740Y-126438660D03*
X225376740Y-128978660D03*
D15*
X227916740Y-128978660D03*
D16*
X203046000Y-142260000D03*
X203046000Y-144800000D03*
X203046000Y-147340000D03*
X227354000Y-142260000D03*
X227354000Y-144800000D03*
X227354000Y-147340000D03*
D17*
X198084060Y-150702520D03*
X192624060Y-150702520D03*
D18*
X197774060Y-147702520D03*
X192934060Y-147702520D03*
M02*
